
<svg width="1042px" height="1062px" viewBox="-173 -44 1042 1062" version="1.1" xmlns="http://www.w3.org/2000/svg" xmlns:xlink="http://www.w3.org/1999/xlink">
    <!-- Generator: Sketch 3.8.3 (29802) - http://www.bohemiancoding.com/sketch -->
    <desc>Created with Sketch.</desc>
    <defs>
        <radialGradient cx="50%" cy="50%" fx="50%" fy="50%" r="40.2875566%" id="radialGradient-1">
            <stop stop-color="#F3D886" offset="0%"></stop>
            <stop stop-color="#434343" stop-opacity="0" offset="100%"></stop>
        </radialGradient>
    </defs>
    <path d="M258.664423,-43.419244 L183.538923,-43.419244 L349.505088,486.753828 L258.664423,-43.419244 M58.3327371,-43.419244 L-39.4461392,-43.419244 L349.505088,486.753828 L58.3327371,-43.419244 M-173,9.34621993 L-173,120.243127 L349.505088,486.753828 L-173,9.34621993 M-173,334.882302 L349.505088,486.753828 L-173,257.075601 L-173,334.882302 Z M-173,443.09622 L-173,511.959622 L349.505088,486.753828 L-173,443.09622 M349.505088,486.753828 L-67.4690722,1017.25601 L33.5902062,1017.25601 L349.505088,486.753828 M349.505088,486.753828 L164.162371,1017.25601 L237.665557,1017.25601 L349.505088,486.753828 M349.505088,486.753828 L-173,619.27921 L-173,693.508591 L349.505088,486.753828 M-173,824.975086 L-173,929.611684 L349.505088,486.753828 L-173,824.975086 Z M783.03866,-43.419244 L349.505088,486.753828 L629.512624,-43.419244 L546.041237,-43.419244 L349.505088,486.753828 L431.56701,-43.419244 L362.404902,-43.419244 L349.505088,486.753828 L344.981567,1017.25601 L412.050943,1017.25601 L349.505088,486.753828 L524.731144,1017.25601 L613.264438,1017.25601 L349.505088,486.753828 L752.772747,1017.25601 L868,1017.25601 L349.505088,486.753828 L868,809.771478 L868,725.108844 L349.505088,486.753828 L868,607.057297 L868,539.088225 L349.505088,486.753828 L868,435.345957 L868,367.376885 L349.505088,486.753828 L868,250.516586 L868,165.853952 L349.505088,486.753828 L868,-4.66435223 L868,-43.419244 L783.03866,-43.419244 Z" id="Imported-Layers" stroke="none" fill="url(#radialGradient-1)" fill-rule="evenodd" opacity="0.2"></path>
</svg>