<?xml version="1.0" encoding="utf-8"?>
<!-- Generator: Adobe Illustrator 19.0.0, SVG Export Plug-In . SVG Version: 6.00 Build 0)  -->
<svg version="1.1" id="Layer_1" xmlns="http://www.w3.org/2000/svg" xmlns:xlink="http://www.w3.org/1999/xlink" x="0px" y="0px"
	 viewBox="0 0 30 30" style="enable-background:new 0 0 30 30;" xml:space="preserve">
<style type="text/css">
	.st0{enable-background:new    ;}
	.st1{fill:#DEDEDD;}
</style>
<g id="XMLID_4_" class="st0">
	<path id="XMLID_5_" class="st1" d="M25.9,17.4c0,0.5-0.2,0.9-0.5,1.1c-0.3,0.3-0.7,0.5-1.1,0.5c-0.6,0-1-0.3-1.3-0.8L19,12.5h-0.8
		v2.4l4.2,7c0.1,0.2,0.2,0.4,0.2,0.6c0,0.3-0.1,0.6-0.3,0.8c-0.2,0.2-0.5,0.3-0.8,0.3h-3.2v4.7c0,0.5-0.2,1-0.6,1.3
		c-0.4,0.4-0.9,0.6-1.3,0.6h-2.8c-0.5,0-1-0.2-1.3-0.6c-0.4-0.4-0.6-0.9-0.6-1.3v-4.7H8.5c-0.3,0-0.6-0.1-0.8-0.3
		c-0.2-0.2-0.3-0.5-0.3-0.8c0-0.2,0.1-0.4,0.2-0.6l4.2-7v-2.3h-0.8l-3.9,5.8c-0.3,0.5-0.8,0.8-1.3,0.8c-0.5,0-0.9-0.2-1.1-0.5
		c-0.3-0.3-0.5-0.7-0.5-1.1c0-0.3,0.1-0.7,0.3-0.9l4.4-6.6c0.9-1.2,1.8-1.8,3-1.8h6.6c1.1,0,2.2,0.6,3,1.8l4.4,6.6
		C25.8,16.9,25.9,17.1,25.9,17.4z M17.7,1.1c0.8,0.8,1.1,1.6,1.1,2.7s-0.4,2-1.1,2.7C16.9,7.2,16,7.6,15,7.6s-2-0.4-2.7-1.1
		c-0.8-0.8-1.1-1.6-1.1-2.7s0.4-1.9,1.1-2.7C13.1,0.4,14,0,15,0S17,0.5,17.7,1.1z"/>
</g>
</svg>
