
<svg width="30px" height="34px" viewBox="329 222 30 34" version="1.1" xmlns="http://www.w3.org/2000/svg" xmlns:xlink="http://www.w3.org/1999/xlink">
    <!-- Generator: Sketch 3.8.3 (29802) - http://www.bohemiancoding.com/sketch -->
    <desc>Created with Sketch.</desc>
    <defs></defs>
    <g id="Android" stroke="none" stroke-width="1" fill="none" fill-rule="evenodd" transform="translate(330.000000, 223.000000)">
        <path d="M4.17132216,21.0237934 C4.17132216,21.3891488 3.85346741,21.6703363 3.48951955,21.6703363 L2.21345996,21.6703363 C1.84998138,21.6703363 1.56424581,21.3892011 1.56424581,21.0237934 L1.56424581,12.4505047 C1.56424581,12.0851494 1.84998138,11.7774762 2.21345996,11.7774762 L3.48951955,11.7774762 C3.85346741,11.7774762 4.17132216,12.0851494 4.17132216,12.4505047 L4.17132216,21.0237934 Z M3.48951955,10.2071809 L2.21345996,10.2071809 C0.990845438,10.2071809 0,11.2221674 0,12.4505047 L0,21.0237934 C0,22.2521831 0.990845438,23.2406316 2.21345996,23.2406316 L3.48951955,23.2406316 C4.71265549,23.2406316 5.68342644,22.2521831 5.68342644,21.0237934 L5.68342644,12.4505047 C5.68342644,11.2221151 4.71265549,10.2071809 3.48951955,10.2071809 L3.48951955,10.2071809 Z" id="Fill-1" stroke="#F7F9FD" stroke-width="0.2" fill="#354052"></path>
        <path d="M26.4357542,21.0237934 C26.4357542,21.3891488 26.1489758,21.6703363 25.7850279,21.6703363 L24.509594,21.6703363 C24.1455419,21.6703363 23.8286778,21.3892011 23.8286778,21.0237934 L23.8286778,12.4505047 C23.8286778,12.0851494 24.1454898,11.7774762 24.509594,11.7774762 L25.7850279,11.7774762 C26.1489758,11.7774762 26.4357542,12.0851494 26.4357542,12.4505047 L26.4357542,21.0237934 Z M25.7849758,10.2071809 L24.5095419,10.2071809 C23.2863538,10.2071809 22.3165214,11.2221674 22.3165214,12.4505047 L22.3165214,21.0237934 C22.3165214,22.2521831 23.2863538,23.2406316 24.5095419,23.2406316 L25.7849758,23.2406316 C27.0081639,23.2406316 27.9999479,22.2521831 27.9999479,21.0237934 L27.9999479,12.4505047 C28,11.2221151 27.0081639,10.2071809 25.7849758,10.2071809 L25.7849758,10.2071809 Z" id="Fill-3" stroke="#F7F9FD" stroke-width="0.2" fill="#354052"></path>
        <g id="Group-7" transform="translate(6.204842, 10.207129)" stroke="#F7F9FD" stroke-width="0.2" fill="#354052">
            <path d="M14.0260708,15.4335475 C14.0260708,15.5225309 13.7952924,15.6506147 13.4935493,15.6506147 L11.9805065,15.6506147 C11.5511732,15.6506147 11.4189423,15.9951375 11.4189423,16.4266022 L11.4189423,19.1041127 C11.4189423,19.7078912 11.0926406,20.3168517 10.3678734,20.3163283 C9.83952328,20.3131877 9.33328119,19.8156135 9.33328119,19.2935426 L9.33328119,16.4266022 C9.33328119,15.9951375 8.7803203,15.6506147 8.35093482,15.6506147 L7.31394413,15.6506147 C6.8846108,15.6506147 6.77834637,15.9951375 6.77834637,16.4266022 L6.77834637,19.1041127 C6.77834637,19.4148741 6.55022719,19.713649 6.30495345,19.9457386 C6.05660335,20.1810212 5.63404842,20.3168517 5.30112477,20.3168517 L5.29283426,20.3148103 C4.63590317,20.2814677 4.17127002,19.6652315 4.17127002,18.9952912 L4.17127002,16.4266022 C4.17127002,15.9951375 3.59531471,15.6506147 3.16598138,15.6506147 L1.60168343,15.6506147 C1.35124767,15.6506147 1.56424581,15.57456 1.56424581,15.4335475 L1.56424581,2.3491146 C1.56424581,2.04091799 1.6301527,1.67142751 1.74575047,1.58186834 L13.6194711,1.57459264 C13.7465922,1.63389745 14.0260708,2.03940003 14.0260708,2.3491146 L14.0260708,15.4335475 L14.0260708,15.4335475 Z M13.4935493,5.7577493e-05 L1.60168343,5.7577493e-05 C0.423128492,5.7577493e-05 0,1.37265267 0,2.3491146 L0,15.4335999 C0,16.4782126 0.538256983,17.2209623 1.60168343,17.2209623 L2.60707635,17.2209623 L2.60707635,18.9953436 C2.60707635,20.5074332 3.71331099,21.7998386 5.20815642,21.8753174 C5.25482309,21.8778822 5.19220112,21.8794525 5.23985847,21.8794525 C5.97667039,21.8794525 6.70910242,21.5963283 7.25147858,21.0825277 C7.49205959,20.8545732 7.71366108,20.5948463 7.85626816,20.3142346 C8.26948976,21.2110825 9.25183613,21.8721768 10.2779814,21.8794002 C11.7561937,21.8794002 12.9832924,20.6858711 12.9832924,19.1041127 L12.9832924,17.2208576 L13.4936015,17.2208576 C14.5694376,17.2208576 15.5903687,16.4614628 15.5903687,15.4334952 L15.5903687,2.3491146 C15.5903166,1.37626434 14.6445214,5.7577493e-05 13.4935493,5.7577493e-05 L13.4935493,5.7577493e-05 Z" id="Fill-5"></path>
        </g>
        <g id="Group-10" transform="translate(5.787709, 0.000209)" stroke="#F7F9FD" stroke-width="0.2" fill="#354052">
            <path d="M3.59604469,4.66142672 C3.72540782,4.69743882 3.86848417,4.67770544 3.99378026,4.6047914 L4.96856611,4.03665858 C5.0529311,3.98787474 5.11795158,3.91715911 5.16201117,3.83754514 C5.92140037,3.59064238 6.80201862,3.46716483 7.80626443,3.46716483 C8.81040596,3.46716483 9.69097207,3.58959551 10.4503613,3.83655062 C10.4944209,3.91616459 10.5592849,3.98520523 10.6434935,4.03398907 L11.6182793,4.59919068 C11.7436276,4.67215707 11.8867561,4.69754351 12.0162235,4.66142672 C13.0134823,5.43746663 13.6447598,6.59535002 13.9198585,8.16564528 L1.69267039,8.16564528 C1.96776909,6.59529767 2.59889013,5.43741429 3.59604469,4.66142672 L3.59604469,4.66142672 Z M14.8060559,9.68354502 C15.0244246,9.68354502 15.2328864,9.60220373 15.3801341,9.44035863 C15.5273818,9.27793776 15.5999106,9.0674135 15.5807747,8.84877606 C15.3595382,6.36750017 14.4582719,4.52742819 12.9246331,3.36504329 L14.0558436,1.39762036 C14.1995456,1.14883325 14.1145028,0.830953143 13.8661006,0.687271127 L12.8912626,0.121860147 C12.6439032,-0.0218218698 12.3265698,0.0637068787 12.1834935,0.312546334 L11.0004022,2.37115108 C10.0689981,2.06127948 9.00291248,1.90383121 7.80636872,1.90383121 C6.6095121,1.90383121 5.54332216,2.06138417 4.61186592,2.37130811 L3.42861825,0.312703364 C3.28548976,0.0638639083 2.96872998,-0.0215078108 2.72037989,0.122174206 L1.74559404,0.687951588 C1.49823464,0.831633605 1.41319181,1.15019417 1.5563203,1.39898128 L2.68763501,3.36797451 C1.15420484,4.53035941 0.253147114,6.37304855 0.0319106145,8.85416741 C0.0127225326,9.07280485 0.0847821229,9.27793776 0.232029795,9.44030629 C0.379277467,9.60220373 0.588260708,9.68349268 0.80652514,9.68349268 L14.8060559,9.68349268 L14.8060559,9.68354502 Z" id="Fill-8"></path>
        </g>
        <path d="M16.3509572,5.63500978 C15.8283426,5.63500978 15.4046927,6.06029808 15.4046927,6.58545716 C15.4046927,7.1100928 15.8283426,7.53590454 16.3509572,7.53590454 C16.8735717,7.53590454 17.296648,7.1100928 17.296648,6.58545716 C17.296648,6.06029808 16.8735717,5.63500978 16.3509572,5.63500978" id="Fill-11" stroke="#F7F9FD" stroke-width="0.2" fill="#354052"></path>
        <path d="M11.2540708,5.63500978 C10.7314041,5.63500978 10.3083277,6.06029808 10.3083277,6.58545716 C10.3083277,7.1100928 10.7314041,7.53590454 11.2540708,7.53590454 C11.7766853,7.53590454 12.2003352,7.1100928 12.2003352,6.58545716 C12.2003352,6.06029808 11.7766853,5.63500978 11.2540708,5.63500978" id="Fill-13" stroke="#F7F9FD" stroke-width="0.2" fill="#354052"></path>
    </g>
</svg>