
<svg width="30px" height="24px" viewBox="6 8 30 24" version="1.1" xmlns="http://www.w3.org/2000/svg" xmlns:xlink="http://www.w3.org/1999/xlink">
    <!-- Generator: Sketch 3.8.3 (29802) - http://www.bohemiancoding.com/sketch -->
    <desc>Created with Sketch.</desc>
    <defs>
        <polygon id="path-1" points="0 22.1664316 28.000651 22.1664316 28.000651 0 0 0"></polygon>
    </defs>
    <g id="Page-1" stroke="none" stroke-width="1" fill="none" fill-rule="evenodd" transform="translate(6.999674, 8.166368)">
        <path d="M14.2461598,6.25610987 C15.2422401,6.25610987 16.0526018,7.07410198 16.0526018,8.0795915 C16.0526018,9.08531194 15.242183,9.90353495 14.2461598,9.90353495 C13.251051,9.90353495 12.4414321,9.08531194 12.4414321,8.0795915 C12.4414321,7.07410198 13.251051,6.25610987 14.2461598,6.25610987 L14.2461598,6.25610987 Z M14.2461598,10.7117135 C15.6833361,10.7117135 16.8526204,9.53096466 16.8526204,8.0795915 C16.8526204,6.62844926 15.6833361,5.44793136 14.2461598,5.44793136 C12.8098978,5.44793136 11.6414135,6.62844926 11.6414135,8.0795915 C11.6414135,9.53096466 12.8098978,10.7117135 14.2461598,10.7117135 L14.2461598,10.7117135 Z" id="Fill-1" fill="#FFFFFF"></path>
        <path d="M14.2462741,8.48414258 L15.231497,8.48414258 C15.4524164,8.48414258 15.6315063,8.30322604 15.6315063,8.08005332 C15.6315063,7.8568806 15.4524164,7.67596406 15.231497,7.67596406 L14.6462834,7.67596406 L14.6462834,6.96684515 C14.6462834,6.74367242 14.4671935,6.56275589 14.2462741,6.56275589 C14.0253547,6.56275589 13.8462648,6.74367242 13.8462648,6.96684515 L13.8462648,8.08005332 C13.8462648,8.30322604 14.0253547,8.48414258 14.2462741,8.48414258" id="Fill-3" fill="#FFFFFF"></path>
        <mask id="mask-2" fill="white">
            <use xlink:href="#path-1"></use>
        </mask>
        <g id="Clip-6"></g>
        <path d="M21.8248503,12.3162365 L22.2157165,12.3162365 L22.2157165,11.1891738 L21.8248503,11.1891738 L21.8248503,12.3162365 Z M21.5802732,13.1244727 L22.4605794,13.1244727 C22.7666436,13.1244727 23.0157351,12.872956 23.0157351,12.5637123 L23.0157351,10.9426216 C23.0157351,10.6329738 22.7667008,10.3809953 22.4605794,10.3809953 L21.5802732,10.3809953 C21.2740375,10.3809953 21.0248317,10.6329161 21.0248317,10.9426216 L21.0248317,12.5637123 C21.0248317,12.8728983 21.2739804,13.1244727 21.5802732,13.1244727 L21.5802732,13.1244727 Z" id="Fill-5" fill="#FFFFFF" mask="url(#mask-2)"></path>
        <path d="M24.4327395,12.3162365 L24.8234915,12.3162365 L24.8234915,11.1891738 L24.4327395,11.1891738 L24.4327395,12.3162365 Z M24.187591,13.1244727 L25.0674971,13.1244727 C25.3740185,13.1244727 25.6234529,12.872956 25.6234529,12.5637123 L25.6234529,10.9426216 C25.6234529,10.6329738 25.3740757,10.3809953 25.0674971,10.3809953 L24.187591,10.3809953 C23.881641,10.3809953 23.6326638,10.6329161 23.6326638,10.9426216 L23.6326638,12.5637123 C23.6327209,12.8728983 23.881641,13.1244727 24.187591,13.1244727 L24.187591,13.1244727 Z" id="Fill-7" fill="#FFFFFF" mask="url(#mask-2)"></path>
        <path d="M21.8248503,15.3362264 L22.2157165,15.3362264 L22.2157165,14.2094523 L21.8248503,14.2094523 L21.8248503,15.3362264 Z M21.5802732,16.1443472 L22.4605794,16.1443472 C22.7666436,16.1443472 23.0157351,15.8929459 23.0157351,15.5839908 L23.0157351,13.9623806 C23.0157351,13.6529637 22.7667008,13.4012161 22.4605794,13.4012161 L21.5802732,13.4012161 C21.2740375,13.4012161 21.0248317,13.652906 21.0248317,13.9623806 L21.0248317,15.5839908 C21.0248317,15.8930036 21.2739804,16.1443472 21.5802732,16.1443472 L21.5802732,16.1443472 Z" id="Fill-8" fill="#FFFFFF" mask="url(#mask-2)"></path>
        <path d="M24.4327395,15.3362264 L24.8234915,15.3362264 L24.8234915,14.2094523 L24.4327395,14.2094523 L24.4327395,15.3362264 Z M24.187591,16.1443472 L25.0674971,16.1443472 C25.3740185,16.1443472 25.6234529,15.8929459 25.6234529,15.5839908 L25.6234529,13.9623806 C25.6234529,13.6529637 25.3740757,13.4012161 25.0674971,13.4012161 L24.187591,13.4012161 C23.881641,13.4012161 23.6326638,13.652906 23.6326638,13.9623806 L23.6326638,15.5839908 C23.6327209,15.8930036 23.881641,16.1443472 24.187591,16.1443472 L24.187591,16.1443472 Z" id="Fill-9" fill="#FFFFFF" mask="url(#mask-2)"></path>
        <path d="M21.8248503,18.3554658 L22.2157165,18.3554658 L22.2157165,17.2286918 L21.8248503,17.2286918 L21.8248503,18.3554658 Z M21.5802732,19.1636444 L22.4605794,19.1636444 C22.7666436,19.1636444 23.0157351,18.9120699 23.0157351,18.6028839 L23.0157351,16.9815624 C23.0157351,16.6722032 22.7667008,16.4205133 22.4605794,16.4205133 L21.5802732,16.4205133 C21.2740375,16.4205133 21.0248317,16.6721455 21.0248317,16.9815624 L21.0248317,18.6028839 C21.0248317,18.9121277 21.2739804,19.1636444 21.5802732,19.1636444 L21.5802732,19.1636444 Z" id="Fill-10" fill="#FFFFFF" mask="url(#mask-2)"></path>
        <path d="M24.4327395,18.3554658 L24.8234915,18.3554658 L24.8234915,17.2286918 L24.4327395,17.2286918 L24.4327395,18.3554658 Z M24.187591,19.1636444 L25.0674971,19.1636444 C25.3740185,19.1636444 25.6234529,18.9120699 25.6234529,18.6028839 L25.6234529,16.9815624 C25.6234529,16.6722032 25.3740757,16.4205133 25.0674971,16.4205133 L24.187591,16.4205133 C23.881641,16.4205133 23.6326638,16.6721455 23.6326638,16.9815624 L23.6326638,18.6028839 C23.6327209,18.9121277 23.881641,19.1636444 24.187591,19.1636444 L24.187591,19.1636444 Z" id="Fill-11" fill="#FFFFFF" mask="url(#mask-2)"></path>
        <path d="M6.2459738,12.3162942 L6.63666859,12.3162942 L6.63666859,11.1892315 L6.2459738,11.1892315 L6.2459738,12.3162942 Z M6.88153143,10.3809953 L6.00111096,10.3809953 C5.6950467,10.3809953 5.4459552,10.6329161 5.4459552,10.9426216 L5.4459552,12.5637123 C5.4459552,12.8728983 5.69498956,13.1244727 6.00111096,13.1244727 L6.88153143,13.1244727 C7.18759569,13.1244727 7.4366872,12.872956 7.4366872,12.5637123 L7.4366872,10.9426216 C7.4366872,10.6329738 7.18759569,10.3809953 6.88153143,10.3809953 L6.88153143,10.3809953 Z" id="Fill-12" fill="#FFFFFF" mask="url(#mask-2)"></path>
        <path d="M3.64254184,12.3162942 L4.0325509,12.3162942 L4.0325509,11.1892315 L3.64254184,11.1892315 L3.64254184,12.3162942 Z M4.27752803,10.3809953 L3.39762186,10.3809953 C3.0915576,10.3809953 2.84252323,10.6329161 2.84252323,10.9426216 L2.84252323,12.5637123 C2.84252323,12.8728983 3.0915576,13.1244727 3.39762186,13.1244727 L4.27752803,13.1244727 C4.58353514,13.1244727 4.8325695,12.872956 4.8325695,12.5637123 L4.8325695,10.9426216 C4.8325695,10.6329738 4.58359229,10.3809953 4.27752803,10.3809953 L4.27752803,10.3809953 Z" id="Fill-13" fill="#FFFFFF" mask="url(#mask-2)"></path>
        <path d="M6.2459738,15.3361686 L6.63666859,15.3361686 L6.63666859,14.2093946 L6.2459738,14.2093946 L6.2459738,15.3361686 Z M6.88153143,13.4012738 L6.00111096,13.4012738 C5.6950467,13.4012738 5.4459552,13.6529637 5.4459552,13.9624384 L5.4459552,15.5840485 C5.4459552,15.8930036 5.69498956,16.1444049 6.00111096,16.1444049 L6.88153143,16.1444049 C7.18759569,16.1444049 7.4366872,15.8930036 7.4366872,15.5840485 L7.4366872,13.9624384 C7.4366872,13.6529637 7.18759569,13.4012738 6.88153143,13.4012738 L6.88153143,13.4012738 Z" id="Fill-14" fill="#FFFFFF" mask="url(#mask-2)"></path>
        <path d="M3.64254184,15.3361686 L4.0325509,15.3361686 L4.0325509,14.2093946 L3.64254184,14.2093946 L3.64254184,15.3361686 Z M4.27752803,13.4012738 L3.39762186,13.4012738 C3.0915576,13.4012738 2.84252323,13.6529637 2.84252323,13.9624384 L2.84252323,15.5840485 C2.84252323,15.8930036 3.0915576,16.1444049 3.39762186,16.1444049 L4.27752803,16.1444049 C4.58353514,16.1444049 4.8325695,15.8930036 4.8325695,15.5840485 L4.8325695,13.9624384 C4.8325695,13.6529637 4.58359229,13.4012738 4.27752803,13.4012738 L4.27752803,13.4012738 Z" id="Fill-15" fill="#FFFFFF" mask="url(#mask-2)"></path>
        <path d="M6.2459738,18.3554658 L6.63666859,18.3554658 L6.63666859,17.2286918 L6.2459738,17.2286918 L6.2459738,18.3554658 Z M6.88153143,16.4205133 L6.00111096,16.4205133 C5.6950467,16.4205133 5.4459552,16.6721455 5.4459552,16.9815624 L5.4459552,18.6028839 C5.4459552,18.9120699 5.69498956,19.1636444 6.00111096,19.1636444 L6.88153143,19.1636444 C7.18759569,19.1636444 7.4366872,18.9120699 7.4366872,18.6028839 L7.4366872,16.9815624 C7.4366872,16.6722032 7.18759569,16.4205133 6.88153143,16.4205133 L6.88153143,16.4205133 Z" id="Fill-16" fill="#FFFFFF" mask="url(#mask-2)"></path>
        <path d="M3.64254184,18.3554658 L4.0325509,18.3554658 L4.0325509,17.2286918 L3.64254184,17.2286918 L3.64254184,18.3554658 Z M4.27752803,16.4205133 L3.39762186,16.4205133 C3.0915576,16.4205133 2.84252323,16.6721455 2.84252323,16.9815624 L2.84252323,18.6028839 C2.84252323,18.9120699 3.0915576,19.1636444 3.39762186,19.1636444 L4.27752803,19.1636444 C4.58353514,19.1636444 4.8325695,18.9120699 4.8325695,18.6028839 L4.8325695,16.9815624 C4.8325695,16.6722032 4.58359229,16.4205133 4.27752803,16.4205133 L4.27752803,16.4205133 Z" id="Fill-17" fill="#FFFFFF" mask="url(#mask-2)"></path>
        <path d="M14.3955919,12.4232046 L14.0967278,12.4232046 C12.376402,12.4232046 10.9767695,13.8375748 10.9767695,15.5760245 L10.9767695,18.4108838 C10.9767695,18.6340565 11.1558594,18.8149731 11.3767788,18.8149731 C11.5976982,18.8149731 11.7767881,18.6340565 11.7767881,18.4108838 L11.7767881,15.5760245 C11.7767881,14.2831698 12.817498,13.2313832 14.0967278,13.2313832 L14.3955919,13.2313832 C15.6755073,13.2313832 16.7168458,14.2832275 16.7168458,15.5760245 L16.7168458,18.4108838 C16.7168458,18.6340565 16.8959357,18.8149731 17.1168551,18.8149731 C17.3377745,18.8149731 17.5168644,18.6340565 17.5168644,18.4108838 L17.5168644,15.5760245 C17.5168644,13.8375748 16.1166604,12.4232046 14.3955919,12.4232046" id="Fill-18" fill="#FFFFFF" mask="url(#mask-2)"></path>
        <path d="M27.2006324,21.3582531 L0.800018601,21.3582531 L0.800018601,20.4610018 L1.33917399,20.4610018 L8.14504652,20.4610018 L8.54505582,20.4610018 L19.9155488,20.4610018 L20.3465874,20.4610018 L27.1262879,20.4610018 L27.2006324,20.4610018 L27.2006324,21.3582531 Z M2.13924974,10.3648894 C2.13924974,10.1043096 2.34965463,9.89239364 2.60817493,9.89239364 L8.14504652,9.89239364 L8.14504652,19.6528233 L2.1391926,19.6528233 L2.1391926,10.3648894 L2.13924974,10.3648894 Z M8.94506512,5.50531203 C8.94506512,5.0346635 9.32415965,4.65176007 9.7900562,4.65176007 L18.7018063,4.65176007 C19.1675885,4.65176007 19.5465688,5.0346635 19.5465688,5.50531203 L19.5465688,19.6528233 L8.94506512,19.6528233 L8.94506512,5.50531203 Z M25.8579727,9.89245136 C26.1161501,9.89245136 26.3262693,10.1043673 26.3262693,10.3649472 L26.3262693,19.6528233 L20.3466445,19.6528233 L20.3466445,9.89245136 L25.8579727,9.89245136 Z M12.7652111,2.2066737 C12.5488061,2.31167918 12.3444013,2.41091196 12.1839976,2.41096969 C12.1411966,2.41096969 12.0916526,2.40496607 12.0317655,2.37286984 L12.0317655,1.28644701 C12.0817095,1.29320108 12.1325107,1.29660697 12.1840547,1.29660697 C12.5266341,1.29660697 12.8375556,1.1457085 13.1117334,1.01253222 C13.3281956,0.907526743 13.5326004,0.80823624 13.6929469,0.80823624 C13.7357479,0.80823624 13.7853491,0.814239852 13.8452362,0.846336084 L13.8452362,1.93270119 C13.7952922,1.92594712 13.744491,1.92254123 13.6929469,1.92254123 C13.3503104,1.92259896 13.0395032,2.07349743 12.7652111,2.2066737 L12.7652111,2.2066737 Z M27.6006417,19.6528233 L27.1262879,19.6528233 L27.1262879,10.3648894 C27.1262879,9.65877232 26.5573032,9.08421512 25.8579727,9.08421512 L20.3466445,9.08421512 L20.3466445,5.5052543 C20.3466445,4.58895305 19.6087988,3.84352383 18.7018634,3.84352383 L14.6453119,3.84352383 L14.6453119,0.648332349 C14.6453119,0.538420071 14.6009681,0.433125956 14.5225091,0.356983995 C14.2785606,0.120072236 13.9995255,0 13.6930041,0 C13.3504247,0 13.0395032,0.150898474 12.7653254,0.284074747 C12.5488632,0.389137954 12.3444584,0.48837073 12.1841119,0.48837073 C12.1150245,0.48837073 12.0282797,0.472726703 11.9090198,0.356983995 C11.7935314,0.244820362 11.6227274,0.213070492 11.475124,0.276512506 C11.3275777,0.340012246 11.231804,0.486292557 11.231804,0.648332349 L11.231804,2.57081585 C11.231804,2.68078586 11.2761479,2.78602224 11.3546069,2.8621642 C11.5985554,3.09907596 11.8775333,3.2191482 12.1839976,3.2191482 L12.184169,3.2191482 C12.5266913,3.21909047 12.8375556,3.068192 13.1117334,2.93507345 C13.3281956,2.83001024 13.5326004,2.73077747 13.6930041,2.73077747 C13.7358051,2.73077747 13.7854062,2.73683881 13.8452933,2.76893504 L13.8452933,3.84352383 L9.79011334,3.84352383 C8.88306368,3.84352383 8.14510367,4.58895305 8.14510367,5.5052543 L8.14510367,9.08421512 L2.60817493,9.08421512 C1.90850152,9.08421512 1.33923114,9.65871459 1.33923114,10.3648894 L1.33923114,19.6528233 L0.400009301,19.6528233 C0.179089878,19.6528233 0,19.8337398 0,20.0569125 L0,21.7623424 C0,21.9855151 0.179089878,22.1664316 0.400009301,22.1664316 L27.6006417,22.1664316 C27.8215612,22.1664316 28.000651,21.9855151 28.000651,21.7623424 L28.000651,20.0569125 C28.000651,19.8336821 27.8215612,19.6528233 27.6006417,19.6528233 L27.6006417,19.6528233 Z" id="Fill-19" fill="#FFFFFF" mask="url(#mask-2)"></path>
    </g>
</svg>