
<svg width="27px" height="27px" viewBox="9 7 27 27" version="1.1" xmlns="http://www.w3.org/2000/svg" xmlns:xlink="http://www.w3.org/1999/xlink">
    <!-- Generator: Sketch 3.8.3 (29802) - http://www.bohemiancoding.com/sketch -->
    <desc>Created with Sketch.</desc>
    <defs></defs>
    <g id="Page-1" stroke="none" stroke-width="1" fill="none" fill-rule="evenodd" transform="translate(9.164578, 7.997721)">
        <path d="M16.9318334,24.8515619 L16.9318334,17.7056182 C16.9318334,17.479387 16.7484234,17.2959771 16.5221923,17.2959771 L9.14865192,17.2959771 C8.92242077,17.2959771 8.73901079,17.479387 8.73901079,17.7056182 L8.73901079,24.8515619 L0.819282261,24.8515619 L0.819282261,16.1125511 L6.00806992,16.1125511 L6.00806992,23.6226385 C6.00806992,23.8488697 6.1914799,24.0322797 6.41771105,24.0322797 C6.64394219,24.0322797 6.82735218,23.8488697 6.82735218,23.6226385 L6.82735218,10.5960506 L14.3374396,10.5960506 C14.5636707,10.5960506 14.7470807,10.4126406 14.7470807,10.1864094 C14.7470807,9.96017831 14.5636707,9.77676832 14.3374396,9.77676832 L7.59534737,9.77676832 L12.8354221,5.62928842 L18.0754968,9.77676832 L15.9760041,9.77676832 C15.749773,9.77676832 15.566363,9.96017831 15.566363,10.1864094 C15.566363,10.4126406 15.749773,10.5960506 15.9760041,10.5960506 L18.843492,10.5960506 L18.843492,23.6226385 C18.843492,23.8488697 19.026902,24.0322797 19.2531331,24.0322797 C19.4793643,24.0322797 19.6627743,23.8488697 19.6627743,23.6226385 L19.6627743,16.1125511 L24.8515619,16.1125511 L24.8515619,24.8515619 L16.9318334,24.8515619 Z M9.55829305,24.8515619 L16.1125511,24.8515619 L16.1125511,24.0322797 L9.55829305,24.0322797 L9.55829305,24.8515619 Z M9.55829305,23.2129974 L12.425781,23.2129974 L12.425781,18.1152593 L9.55829305,18.1152593 L9.55829305,23.2129974 Z M13.2450632,23.2129974 L16.1125511,23.2129974 L16.1125511,18.1152593 L13.2450632,18.1152593 L13.2450632,23.2129974 Z M0.819282261,15.2932689 L6.00806992,15.2932689 L6.00806992,13.9277984 L0.819282261,13.9277984 L0.819282261,15.2932689 Z M19.6627743,15.2932689 L24.8515619,15.2932689 L24.8515619,13.9277984 L19.6627743,13.9277984 L19.6627743,15.2932689 Z M25.2612031,13.1085162 L19.6627743,13.1085162 L19.6627743,10.1864094 C19.6627743,10.17128 19.6618457,10.1563691 19.6602072,10.1416766 C19.6598249,10.1380172 19.6590602,10.134467 19.6585686,10.1308621 C19.6570393,10.1197199 19.6552915,10.1086323 19.6528883,10.0977631 C19.6519597,10.0936667 19.6508127,10.0896795 19.649775,10.0856377 C19.6471533,10.0753694 19.6443131,10.0652103 19.6409267,10.055215 C19.6395067,10.0510094 19.6379227,10.046913 19.6363934,10.0428166 C19.6327885,10.0332037 19.6289106,10.0238092 19.6246503,10.0145786 C19.6226841,10.010373 19.6207178,10.006222 19.6186423,10.0021256 C19.6141089,9.99316807 19.6092478,9.98448368 19.6041137,9.97590853 C19.6017104,9.97192135 19.5993618,9.96787956 19.5968494,9.963947 C19.591169,9.95520799 19.5851063,9.94685131 19.5788251,9.93860387 C19.5763127,9.93527213 19.5739641,9.93183114 19.5713424,9.92860863 C19.5622756,9.91741177 19.5527174,9.90665186 19.5425583,9.89649276 C19.5415751,9.89550963 19.5404281,9.89463572 19.5393904,9.89365259 C19.5300505,9.88447662 19.5202738,9.87579223 19.5100601,9.86759941 C19.5091315,9.86683475 19.5083669,9.86596085 19.5073837,9.8652508 L13.2450632,4.90864774 L13.2450632,0.819282261 L16.8225958,0.819282261 L16.8225958,2.34860915 L14.4739866,2.34860915 C14.2477555,2.34860915 14.0643455,2.53201914 14.0643455,2.75825028 C14.0643455,2.98448142 14.2477555,3.16789141 14.4739866,3.16789141 L17.2322369,3.16789141 C17.458468,3.16789141 17.641878,2.98448142 17.641878,2.75825028 L17.641878,0.409641131 C17.641878,0.183409989 17.458468,0 17.2322369,0 L12.8354221,0 C12.609191,0 12.425781,0.183409989 12.425781,0.409641131 L12.425781,4.90864774 L6.16346045,9.86519618 C6.16253193,9.86590623 6.16171265,9.86678013 6.16078413,9.86754479 C6.15057041,9.87579223 6.14079364,9.88447662 6.13145382,9.89359797 C6.13047069,9.89458111 6.12932369,9.89545501 6.12828593,9.89643815 C6.11812683,9.90659725 6.10856854,9.91735715 6.09950182,9.92855401 C6.09688011,9.93177652 6.0945315,9.93521751 6.09201904,9.93854925 C6.08573787,9.9467967 6.07967519,9.95515337 6.07399483,9.96389239 C6.07142774,9.96782494 6.06913375,9.97186673 6.06673053,9.97585391 C6.06159636,9.98442906 6.05673528,9.99311345 6.05220192,10.0020709 C6.0501264,10.006222 6.04816013,10.0103184 6.04619385,10.014524 C6.04193358,10.0237546 6.03800103,10.033149 6.0344508,10.042762 C6.03292148,10.046913 6.03133753,10.0510094 6.02991744,10.0551604 C6.02653108,10.0651011 6.0236909,10.0752602 6.02106919,10.0855831 C6.02003144,10.0896249 6.01888444,10.0936121 6.01795592,10.0977085 C6.01555269,10.1085776 6.01380489,10.1196106 6.01227556,10.1308075 C6.01178399,10.1344123 6.01101933,10.1380172 6.010637,10.141622 C6.00905305,10.1563145 6.00806992,10.1712254 6.00806992,10.1863548 L6.00806992,13.1085162 L0.409641131,13.1085162 C0.183409989,13.1085162 0,13.2919262 0,13.5181573 L0,25.2612031 C0,25.4874342 0.183409989,25.6708442 0.409641131,25.6708442 L25.2612031,25.6708442 C25.4874342,25.6708442 25.6708442,25.4874342 25.6708442,25.2612031 L25.6708442,13.5181573 C25.6708442,13.2919262 25.4874342,13.1085162 25.2612031,13.1085162 L25.2612031,13.1085162 Z" id="Fill-1" fill="#FFFFFF"></path>
        <path d="M2.41234931,17.2959771 C2.18611817,17.2959771 2.00270818,17.479387 2.00270818,17.7056182 L2.00270818,19.3441827 C2.00270818,19.5704138 2.18611817,19.7538238 2.41234931,19.7538238 C2.63858045,19.7538238 2.82199044,19.5704138 2.82199044,19.3441827 L2.82199044,17.7056182 C2.82199044,17.479387 2.63858045,17.2959771 2.41234931,17.2959771" id="Fill-3" fill="#FFFFFF"></path>
        <path d="M4.41500287,17.2959771 C4.18877173,17.2959771 4.00536174,17.479387 4.00536174,17.7056182 L4.00536174,19.3441827 C4.00536174,19.5704138 4.18877173,19.7538238 4.41500287,19.7538238 C4.64123401,19.7538238 4.824644,19.5704138 4.824644,19.3441827 L4.824644,17.7056182 C4.824644,17.479387 4.64128863,17.2959771 4.41500287,17.2959771" id="Fill-5" fill="#FFFFFF"></path>
        <path d="M23.2584949,17.2959771 C23.0322637,17.2959771 22.8488537,17.479387 22.8488537,17.7056182 L22.8488537,19.3441827 C22.8488537,19.5704138 23.0322637,19.7538238 23.2584949,19.7538238 C23.484726,19.7538238 23.668136,19.5704138 23.668136,19.3441827 L23.668136,17.7056182 C23.668136,17.479387 23.4847806,17.2959771 23.2584949,17.2959771" id="Fill-7" fill="#FFFFFF"></path>
        <path d="M21.2558413,17.2959771 C21.0296102,17.2959771 20.8462002,17.479387 20.8462002,17.7056182 L20.8462002,19.3441827 C20.8462002,19.5704138 21.0296102,19.7538238 21.2558413,19.7538238 C21.4820725,19.7538238 21.6654824,19.5704138 21.6654824,19.3441827 L21.6654824,17.7056182 C21.6654824,17.479387 21.4820725,17.2959771 21.2558413,17.2959771" id="Fill-9" fill="#FFFFFF"></path>
        <path d="M12.8354221,15.1112244 C12.1929409,15.1112244 11.6702389,14.5885223 11.6702389,13.9460411 C11.6702389,13.30356 12.1929409,12.7808033 12.8354221,12.7808033 C13.4779032,12.7808033 14.0006053,13.3035054 14.0006053,13.9459865 C14.0006053,14.5884677 13.4779032,15.1112244 12.8354221,15.1112244 M12.8354221,11.961521 C11.7411887,11.961521 10.8509566,12.8517531 10.8509566,13.9459865 C10.8509566,15.0402199 11.7411887,15.930452 12.8354221,15.930452 C13.9296555,15.930452 14.8198876,15.0402199 14.8198876,13.9459865 C14.8198876,12.8517531 13.9296555,11.961521 12.8354221,11.961521" id="Fill-11" fill="#FFFFFF"></path>
    </g>
</svg>