
<svg width="27px" height="29px" viewBox="11 5 27 29" version="1.1" xmlns="http://www.w3.org/2000/svg" xmlns:xlink="http://www.w3.org/1999/xlink">
    <!-- Generator: Sketch 3.8.3 (29802) - http://www.bohemiancoding.com/sketch -->
    <desc>Created with Sketch.</desc>
    <defs></defs>
    <path d="M24.8341743,14.1775404 C24.0095573,14.1775404 23.3386824,14.8484153 23.3386824,15.6729664 C23.3386824,16.4975835 24.0095573,17.1684584 24.8341743,17.1684584 C25.6588573,17.1684584 26.3297322,16.4975835 26.3297322,15.6730324 C26.3297322,14.8484153 25.6588573,14.1775404 24.8341743,14.1775404 L24.8341743,14.1775404 Z M24.8341743,17.8936573 C23.609709,17.8936573 22.6134835,16.8974318 22.6134835,15.6729664 C22.6134835,14.4485011 23.609709,13.4523415 24.8341743,13.4523415 C26.0587056,13.4523415 27.0549311,14.448567 27.0549311,15.6730324 C27.0549311,16.8974977 26.0587056,17.8936573 24.8341743,17.8936573 L24.8341743,17.8936573 Z M15.3503529,20.9797082 L15.3504189,22.2064151 C15.3504189,22.3682003 15.4820754,22.499791 15.6439266,22.499791 L16.8703698,22.499791 C17.032221,22.499791 17.1638776,22.3682003 17.1638776,22.2064151 L17.1638776,20.9797082 C17.1638776,20.8179229 17.032221,20.6863323 16.8703698,20.6863323 L15.6438607,20.6863323 C15.4820095,20.6863323 15.3503529,20.8179229 15.3503529,20.9797082 L15.3503529,20.9797082 Z M16.8703698,23.2249899 L15.6439266,23.2249899 C15.0822271,23.2249899 14.62522,22.7680486 14.62522,22.2064151 L14.625154,20.9797082 C14.625154,20.4180746 15.0821612,19.9611334 15.6438607,19.9611334 L16.8703698,19.9611334 C17.4320693,19.9611334 17.8890764,20.4180746 17.8890764,20.9797082 L17.8890764,22.2064151 C17.8890764,22.7680486 17.4320693,23.2249899 16.8703698,23.2249899 L16.8703698,23.2249899 Z M19.5852507,20.6863323 C19.4235314,20.6863323 19.2919407,20.8179229 19.2919407,20.9797082 L19.2919407,22.2064151 C19.2919407,22.3682003 19.4235314,22.499791 19.5852507,22.499791 L20.8118917,22.499791 C20.973611,22.499791 21.1052016,22.3682003 21.1052016,22.2064151 L21.1052016,20.9797082 C21.1052016,20.8179229 20.973611,20.6863323 20.8118917,20.6863323 L19.5852507,20.6863323 Z M20.8118917,23.2249899 L19.5852507,23.2249899 C19.0236171,23.2249899 18.5667418,22.7680486 18.5667418,22.2064151 L18.5667418,20.9797082 C18.5667418,20.4180746 19.0236171,19.9611334 19.5852507,19.9611334 L20.8118917,19.9611334 C21.3734593,19.9611334 21.8304005,20.4180746 21.8304005,20.9797082 L21.8304005,22.2064151 C21.8304005,22.7680486 21.3734593,23.2249899 20.8118917,23.2249899 L20.8118917,23.2249899 Z M28.8562592,20.6863323 C28.6945398,20.6863323 28.5630151,20.8179229 28.5630151,20.9797082 L28.5630151,22.2064151 C28.5630151,22.3682003 28.6945398,22.499791 28.8562592,22.499791 L30.0829661,22.499791 C30.2446854,22.499791 30.376276,22.3682003 30.376276,22.2064151 L30.376276,20.9797082 C30.376276,20.8179229 30.2446854,20.6863323 30.0829661,20.6863323 L28.8562592,20.6863323 Z M30.0829661,23.2249899 L28.8562592,23.2249899 C28.2946915,23.2249899 27.8378162,22.7680486 27.8378162,22.2064151 L27.8378162,20.9797082 C27.8378162,20.4180746 28.2946915,19.9611334 28.8562592,19.9611334 L30.0829661,19.9611334 C30.6445996,19.9611334 31.1014749,20.4180746 31.1014749,20.9797082 L31.1014749,22.2064151 C31.1014749,22.7680486 30.6445996,23.2249899 30.0829661,23.2249899 L30.0829661,23.2249899 Z M32.5042074,20.9797082 L32.5042733,22.2064151 C32.5042733,22.3682003 32.6359958,22.499791 32.7979129,22.499791 L34.024422,22.499791 C34.1862073,22.499791 34.3177979,22.3682003 34.3177979,22.2064151 L34.3177979,20.9797082 C34.3177979,20.8179229 34.1862073,20.6863323 34.024422,20.6863323 L32.797847,20.6863323 C32.6359298,20.6863323 32.5042074,20.8179229 32.5042074,20.9797082 L32.5042074,20.9797082 Z M34.024422,23.2249899 L32.7979129,23.2249899 C32.2360816,23.2249899 31.7790744,22.7680486 31.7790744,22.2064151 L31.7790085,20.9797082 C31.7790085,20.4180746 32.2360156,19.9611334 32.797847,19.9611334 L34.024422,19.9611334 C34.5860556,19.9611334 35.0429968,20.4180746 35.0429968,20.9797082 L35.0429968,22.2064151 C35.0429968,22.7680486 34.5860556,23.2249899 34.024422,23.2249899 L34.024422,23.2249899 Z M15.3503529,24.9210982 L15.3504189,26.1476732 C15.3504189,26.3094585 15.4820754,26.4410491 15.6439266,26.4410491 L16.8703698,26.4410491 C17.032221,26.4410491 17.1638776,26.3094585 17.1638776,26.1476732 L17.1638776,24.9210982 C17.1638776,24.7593129 17.032221,24.6277223 16.8703698,24.6277223 L15.6438607,24.6277223 C15.4820095,24.6277223 15.3503529,24.7593129 15.3503529,24.9210982 L15.3503529,24.9210982 Z M16.8703698,27.166248 L15.6439266,27.166248 C15.0822271,27.166248 14.62522,26.7093068 14.62522,26.1476732 L14.625154,24.9210982 C14.625154,24.3594646 15.0821612,23.9025234 15.6438607,23.9025234 L16.8703698,23.9025234 C17.4320693,23.9025234 17.8890764,24.3594646 17.8890764,24.9210982 L17.8890764,26.1476732 C17.8890764,26.7093068 17.4320693,27.166248 16.8703698,27.166248 L16.8703698,27.166248 Z M19.5852507,24.6277223 C19.4235314,24.6277223 19.2919407,24.7593129 19.2919407,24.9210982 L19.2919407,26.1476732 C19.2919407,26.3094585 19.4235314,26.4410491 19.5852507,26.4410491 L20.8118917,26.4410491 C20.973611,26.4410491 21.1052016,26.3094585 21.1052016,26.1476732 L21.1052016,24.9210982 C21.1052016,24.7593129 20.973611,24.6277223 20.8118917,24.6277223 L19.5852507,24.6277223 Z M20.8118917,27.166248 L19.5852507,27.166248 C19.0236171,27.166248 18.5667418,26.7093068 18.5667418,26.1476732 L18.5667418,24.9210982 C18.5667418,24.3594646 19.0236171,23.9025234 19.5852507,23.9025234 L20.8118917,23.9025234 C21.3734593,23.9025234 21.8304005,24.3594646 21.8304005,24.9210982 L21.8304005,26.1476732 C21.8304005,26.7093068 21.3734593,27.166248 20.8118917,27.166248 L20.8118917,27.166248 Z M28.8562592,24.6277223 C28.6945398,24.6277223 28.5630151,24.7593129 28.5630151,24.9210982 L28.5630151,26.1476732 C28.5630151,26.3094585 28.6945398,26.4410491 28.8562592,26.4410491 L30.0829661,26.4410491 C30.2446854,26.4410491 30.376276,26.3094585 30.376276,26.1476732 L30.376276,24.9210982 C30.376276,24.7593129 30.2446854,24.6277223 30.0829661,24.6277223 L28.8562592,24.6277223 Z M30.0829661,27.166248 L28.8562592,27.166248 C28.2946915,27.166248 27.8378162,26.7093068 27.8378162,26.1476732 L27.8378162,24.9210982 C27.8378162,24.3594646 28.2946915,23.9025234 28.8562592,23.9025234 L30.0829661,23.9025234 C30.6445996,23.9025234 31.1014749,24.3594646 31.1014749,24.9210982 L31.1014749,26.1476732 C31.1014749,26.7093068 30.6445996,27.166248 30.0829661,27.166248 L30.0829661,27.166248 Z M32.5042074,24.9210982 L32.5042733,26.1476732 C32.5042733,26.3094585 32.6359958,26.4410491 32.7979129,26.4410491 L34.024422,26.4410491 C34.1862073,26.4410491 34.3177979,26.3094585 34.3177979,26.1476732 L34.3177979,24.9210982 C34.3177979,24.7593129 34.1862073,24.6277223 34.024422,24.6277223 L32.797847,24.6277223 C32.6359298,24.6277223 32.5042074,24.7593129 32.5042074,24.9210982 L32.5042074,24.9210982 Z M34.024422,27.166248 L32.7979129,27.166248 C32.2360816,27.166248 31.7790744,26.7093068 31.7790744,26.1476732 L31.7790085,24.9210982 C31.7790085,24.3594646 32.2360156,23.9025234 32.797847,23.9025234 L34.024422,23.9025234 C34.5860556,23.9025234 35.0429968,24.3594646 35.0429968,24.9210982 L35.0429968,26.1476732 C35.0429968,26.7093068 34.5860556,27.166248 34.024422,27.166248 L34.024422,27.166248 Z M23.336309,29.6121461 L26.3321056,29.6121461 L26.3321056,24.4817595 C26.3321056,24.3199742 26.2005149,24.1883836 26.0387297,24.1883836 L23.6296849,24.1883836 C23.4677678,24.1883836 23.3361112,24.3199742 23.3361112,24.4817595 L23.336309,29.6121461 Z M26.8183185,30.337345 L22.8502279,30.337345 L22.7457993,30.1549904 C22.6576547,30.0011164 22.6111101,29.8264753 22.6111101,29.6497905 L22.6109123,24.4817595 C22.6109123,23.9201259 23.0679195,23.4631847 23.6296849,23.4631847 L26.0387297,23.4631847 C26.6003632,23.4631847 27.0573045,23.9201259 27.0573045,24.4817595 L27.0573045,29.6497905 C27.0573045,29.8268709 27.0108258,30.0015119 26.922813,30.1550563 L26.8183185,30.337345 Z M24.8591607,8.87290835 L27.4855014,8.87290835 L27.4855014,7.21576297 L24.8591607,7.21576297 L24.8591607,8.87290835 Z M14.3000672,17.4171357 C13.8791222,17.4171357 13.5366305,17.7596933 13.5366305,18.1807042 L13.5366305,30.33095 L13.3235539,30.4274015 C12.9600974,30.5918898 12.7251989,30.955544 12.7251989,31.353876 C12.7251989,31.9146525 13.181349,32.3708026 13.7420596,32.3708026 L35.926289,32.3708026 C36.4869996,32.3708026 36.9431497,31.9146525 36.9431497,31.353876 C36.9430838,30.955544 36.7082512,30.5918898 36.3449266,30.4274674 L36.131784,30.331016 L36.131784,18.1807042 C36.131784,17.7596933 35.7892924,17.4171357 35.3683474,17.4171357 L29.6582632,17.4171357 L29.6582632,13.8123039 C29.6582632,13.6377287 29.5635259,13.4764709 29.4109704,13.3913589 L25.0690728,10.9699857 C25.0555578,10.9624041 25.0415153,10.9559433 25.0274728,10.949812 L24.8337787,10.8655571 L24.6419966,10.9494824 C24.6274267,10.9558773 24.6128568,10.9626019 24.5988143,10.9703813 L20.2576419,13.3914907 C20.1050205,13.4764709 20.0102832,13.6377287 20.0102832,13.8123698 L20.0102832,17.4171357 L14.3000672,17.4171357 Z M35.926289,33.0960015 L13.7420596,33.0960015 C12.7815007,33.0960015 12,32.3145008 12,31.353876 C12,30.7527521 12.3119014,30.1978431 12.8114316,29.8816564 L12.8114316,18.1807042 C12.8114316,17.359845 13.4792079,16.6919368 14.3000672,16.6919368 L19.2850843,16.6919368 L19.2850843,13.8123698 C19.2850843,13.374943 19.5224221,12.9709413 19.904536,12.7580625 L24.1339618,10.3992542 L24.1339618,6.7004762 C24.1339618,6.3142089 24.4481707,6 24.8343721,6 C25.1474602,6 25.4132786,6.20654983 25.5026758,6.49056408 L27.5102901,6.49056408 C27.8964914,6.49056408 28.2107003,6.80477298 28.2107003,7.19104028 L28.2107003,8.89763104 C28.2107003,9.28389833 27.8964914,9.59810723 27.5102901,9.59810723 L25.5347824,9.59810723 L25.5347824,10.3993201 L29.7642741,12.7579966 C30.1462561,12.9711391 30.3834621,13.3751408 30.3834621,13.8123039 L30.3834621,16.6919368 L35.3683474,16.6919368 C36.1892066,16.6919368 36.8569829,17.359845 36.8569829,18.1807042 L36.8569829,29.8817223 C37.3563812,30.1978431 37.6682827,30.7527521 37.6683486,31.3538101 C37.6683486,32.3145008 36.8868479,33.0960015 35.926289,33.0960015 L35.926289,33.0960015 Z" id="Fill-1" stroke="#FFFFFF" stroke-width="0.2" fill="#FFFFFF" fill-rule="evenodd"></path>
</svg>