<?xml version="1.0" encoding="utf-8"?>
<!-- Generator: Adobe Illustrator 19.0.0, SVG Export Plug-In . SVG Version: 6.00 Build 0)  -->
<svg version="1.1" id="Layer_1" xmlns="http://www.w3.org/2000/svg" xmlns:xlink="http://www.w3.org/1999/xlink" x="0px" y="0px"
	 viewBox="0 0 100 100" style="enable-background:new 0 0 100 100;" xml:space="preserve">
<style type="text/css">
	.st0{fill:#959A9B;}
</style>
<g id="XMLID_1258_">
	<path id="XMLID_1262_" class="st0" d="M61.5,36.4H36c-1.8,0-3.2,1.5-3.2,3.2v18.6c0,1.8,1.5,3.2,3.2,3.2h25.5
		c1.8,0,3.2-1.5,3.2-3.2V39.7C64.8,37.9,63.3,36.4,61.5,36.4z M36,38.3h25.5c0.8,0,1.4,0.6,1.4,1.4v15.4l-9.5-9.5
		c-0.4-0.4-1-0.4-1.3,0l-6.9,6.9l-3.3-3.3c-0.4-0.4-1-0.4-1.3,0l-5.9,5.9V39.7C34.6,38.9,35.2,38.3,36,38.3z M61.5,59.6H36
		c-0.8,0-1.4-0.6-1.4-1.4v-0.5l6.5-6.5l5.6,5.6c0.4,0.4,1,0.4,1.3,0c0.4-0.4,0.4-1,0-1.3l-1.6-1.6l6.3-6.3l10.1,10.1v0.5
		C62.9,59,62.3,59.6,61.5,59.6z"/>
	<circle id="XMLID_1261_" class="st0" cx="45.1" cy="44" r="2.7"/>
	<path id="XMLID_1260_" class="st0" d="M37.4,34.8h22.8c0.5,0,0.9-0.4,0.9-0.9S60.7,33,60.1,33H37.4c-0.5,0-0.9,0.4-0.9,0.9
		S36.8,34.8,37.4,34.8z"/>
	<path id="XMLID_1259_" class="st0" d="M60.1,63.1H37.4c-0.5,0-0.9,0.4-0.9,0.9c0,0.5,0.4,0.9,0.9,0.9h22.8c0.5,0,0.9-0.4,0.9-0.9
		C61.1,63.5,60.7,63.1,60.1,63.1z"/>
</g>
</svg>
