<?xml version="1.0" encoding="utf-8"?>
<!-- Generator: Adobe Illustrator 19.0.0, SVG Export Plug-In . SVG Version: 6.00 Build 0)  -->
<svg version="1.1" id="Layer_1" xmlns="http://www.w3.org/2000/svg" xmlns:xlink="http://www.w3.org/1999/xlink" x="0px" y="0px"
	 viewBox="0 0 30 30" style="enable-background:new 0 0 30 30;" xml:space="preserve">
<style type="text/css">
	.st0{enable-background:new    ;}
	.st1{fill:#DEDEDD;}
</style>
<g id="XMLID_4_" class="st0">
	<path id="XMLID_5_" class="st1" d="M23.7,11.5v7c0,0.5-0.2,0.9-0.5,1.1c-0.3,0.3-0.7,0.5-1.1,0.5s-0.9-0.2-1.1-0.5
		c-0.3-0.3-0.5-0.7-0.5-1.1v-6h-1v15.5c0,0.5-0.2,1-0.6,1.3C18.4,29.8,18,30,17.5,30s-1-0.2-1.3-0.6c-0.4-0.4-0.6-0.9-0.6-1.3v-7.9
		h-1v7.9c0,0.5-0.2,1-0.6,1.3c-0.4,0.4-0.9,0.6-1.3,0.6c-0.5,0-1-0.2-1.3-0.6c-0.4-0.4-0.6-0.9-0.6-1.3V12.6h-1v6
		c0,0.5-0.2,0.9-0.5,1.1c-0.3,0.3-0.7,0.5-1.1,0.5c-0.5,0-0.9-0.2-1.1-0.5c-0.3-0.3-0.5-0.7-0.5-1.1v-7c0-1,0.3-1.7,1-2.3
		c0.7-0.7,1.4-1,2.3-1h10.9c1,0,1.7,0.3,2.3,1C23.4,9.8,23.7,10.6,23.7,11.5z M17.7,1.1c0.8,0.8,1.1,1.6,1.1,2.7s-0.4,2-1.1,2.7
		C16.9,7.2,16,7.6,15,7.6s-2-0.4-2.7-1.1c-0.8-0.8-1.1-1.6-1.1-2.7s0.4-1.9,1.1-2.7S14,0,15,0C16,0.1,17,0.5,17.7,1.1z"/>
</g>
</svg>
