<?xml version="1.0" encoding="utf-8"?>
<!-- Generator: Adobe Illustrator 19.0.0, SVG Export Plug-In . SVG Version: 6.00 Build 0)  -->
<svg version="1.1" id="Layer_1" xmlns="http://www.w3.org/2000/svg" xmlns:xlink="http://www.w3.org/1999/xlink" x="0px" y="0px"
	 viewBox="0 0 30 30" style="enable-background:new 0 0 30 30;" xml:space="preserve">
<style type="text/css">
	.st0{fill:#DEDEDD;}
</style>
<g>
	<path class="st0" d="M24.1,3v24c0,0.8-0.3,1.5-0.9,2.1s-1.3,0.9-2.1,0.9H9c-0.8,0-1.5-0.3-2.1-0.9S6,27.9,6,27.1V3
		C6,2.2,6.4,1.5,6.9,1S8.2,0.1,9,0.1h12.1c0.8,0,1.5,0.3,2.1,0.9S24.1,2.2,24.1,3z M21.8,23.3V6.8c0-0.2-0.1-0.3-0.2-0.6
		C21.4,6.1,21.2,6,21,6H9C8.8,6,8.7,6.1,8.4,6.3C8.3,6.4,8.2,6.6,8.2,6.8v16.4c0,0.2,0.1,0.3,0.2,0.6C8.6,24,8.8,24.1,9,24.1h12.1
		c0.2,0,0.3-0.1,0.6-0.2C21.9,23.7,21.8,23.5,21.8,23.3z M17.3,3.4c0-0.2-0.1-0.3-0.3-0.3h-3.8c-0.2,0-0.3,0.1-0.3,0.3
		c0,0.2,0.1,0.3,0.3,0.3h3.8C17.2,3.7,17.3,3.6,17.3,3.4z M16.4,28.3c0.3-0.3,0.6-0.8,0.6-1.4c0-0.5-0.2-0.9-0.6-1.4
		C16,25.2,15.6,25,15,25c-0.5,0-0.9,0.2-1.4,0.6c-0.3,0.3-0.6,0.8-0.6,1.4c0,0.5,0.2,0.9,0.6,1.4c0.3,0.3,0.8,0.6,1.4,0.6
		S16,28.7,16.4,28.3z"/>
</g>
</svg>
