
<svg width="22px" height="22px" viewBox="41 41 22 22" version="1.1" xmlns="http://www.w3.org/2000/svg" xmlns:xlink="http://www.w3.org/1999/xlink">
    <!-- Generator: Sketch 3.8.3 (29802) - http://www.bohemiancoding.com/sketch -->
    <desc>Created with Sketch.</desc>
    <defs>
        <path d="M53.1960833,50.1470625 L53.1960833,41.5065351 C53.1960833,41.2252524 52.9706659,41 52.6925995,41 L50.6505462,41 C50.3663405,41 50.1470625,41.2267835 50.1470625,41.5065351 L50.1470625,50.1470625 L41.5065351,50.1470625 C41.2252524,50.1470625 41,50.3724798 41,50.6505462 L41,52.6925995 C41,52.9768052 41.2267835,53.1960833 41.5065351,53.1960833 L50.1470625,53.1960833 L50.1470625,61.8366107 C50.1470625,62.1178934 50.3724798,62.3431458 50.6505462,62.3431458 L52.6925995,62.3431458 C52.9768052,62.3431458 53.1960833,62.1163623 53.1960833,61.8366107 L53.1960833,53.1960833 L61.8366107,53.1960833 C62.1178934,53.1960833 62.3431458,52.9706659 62.3431458,52.6925995 L62.3431458,50.6505462 C62.3431458,50.3663405 62.1163623,50.1470625 61.8366107,50.1470625 L53.1960833,50.1470625 Z" id="path-1"></path>
        <mask id="mask-2" maskContentUnits="userSpaceOnUse" maskUnits="objectBoundingBox" x="0" y="0" width="21.3431458" height="21.3431458" fill="white">
            <use xlink:href="#path-1"></use>
        </mask>
    </defs>
    <use id="Cross" stroke="#F9F9F9" mask="url(#mask-2)" stroke-width="2" fill="#B2B3BF" fill-rule="evenodd" opacity="0.465659981" xlink:href="#path-1"></use>
</svg>