<?xml version="1.0" encoding="utf-8"?>
<!-- Generator: Adobe Illustrator 19.0.0, SVG Export Plug-In . SVG Version: 6.00 Build 0)  -->
<svg version="1.1" id="Layer_1" xmlns="http://www.w3.org/2000/svg" xmlns:xlink="http://www.w3.org/1999/xlink" x="0px" y="0px"
	 viewBox="0 0 100 100" style="enable-background:new 0 0 100 100;" xml:space="preserve">
<style type="text/css">
	.st0{fill:#959A9B;}
</style>
<g id="XMLID_1172_">
	<circle id="XMLID_1188_" class="st0" cx="38.9" cy="47.8" r="1.2"/>
	<path id="XMLID_1176_" class="st0" d="M61.5,42.2h-2v-7.1c0-1.2-0.9-2.1-2-2.1H40c-1.1,0-2,1-2,2.1v7.1h-2c-1.8,0-3.3,1.5-3.3,3.3
		v10.8c0,1.8,1.5,3.3,3.3,3.3h2v3.3C38,64,38.9,65,40,65h17.4c1.1,0,2.1-0.9,2.1-2.1v-3.3h2c1.8,0,3.3-1.5,3.3-3.3V45.5
		C64.8,43.7,63.3,42.2,61.5,42.2z M39.8,35.1c0-0.2,0.1-0.3,0.1-0.3h17.6c0,0,0.1,0.1,0.1,0.3v7.1H39.8V35.1z M57.7,62.9
		c0,0.1-0.1,0.2-0.2,0.2H40c-0.1,0-0.2-0.1-0.2-0.2v-4.3v-3.1c0-0.1,0.1-0.2,0.2-0.2h17.4c0.1,0,0.2,0.1,0.2,0.2v3.1V62.9z
		 M62.9,56.3c0,0.8-0.6,1.4-1.4,1.4h-2v-2.2c0-1.1-0.9-2.1-2.1-2.1H40c-1.1,0-2.1,0.9-2.1,2.1v2.2h-2c-0.8,0-1.4-0.6-1.4-1.4V45.5
		c0-0.8,0.6-1.4,1.4-1.4h2.9h19.7h2.9c0.8,0,1.4,0.6,1.4,1.4V56.3z"/>
	<path id="XMLID_1175_" class="st0" d="M55.1,59.7H42.5c-0.5,0-0.9,0.4-0.9,0.9c0,0.5,0.4,0.9,0.9,0.9h12.6c0.5,0,0.9-0.4,0.9-0.9
		C56,60.1,55.6,59.7,55.1,59.7z"/>
	<path id="XMLID_1173_" class="st0" d="M55.1,56.9H42.5c-0.5,0-0.9,0.4-0.9,0.9s0.4,0.9,0.9,0.9h12.6c0.5,0,0.9-0.4,0.9-0.9
		S55.6,56.9,55.1,56.9z"/>
</g>
</svg>
