<?xml version="1.0" encoding="utf-8"?>
<!-- Generator: Adobe Illustrator 19.0.0, SVG Export Plug-In . SVG Version: 6.00 Build 0)  -->
<svg version="1.1" id="Layer_1" xmlns="http://www.w3.org/2000/svg" xmlns:xlink="http://www.w3.org/1999/xlink" x="0px" y="0px"
	 viewBox="0 0 100 100" style="enable-background:new 0 0 100 100;" xml:space="preserve">
<style type="text/css">
	.st0{fill:#959A9B;}
</style>
<g id="XMLID_1189_">
	<g id="XMLID_81_">
		<path id="XMLID_89_" class="st0" d="M61.5,33H36c-1.8,0-3.3,1.5-3.3,3.3v25.5c0,1.8,1.5,3.3,3.3,3.3h25.5c1.8,0,3.3-1.5,3.3-3.3
			V36.2C64.8,34.4,63.3,33,61.5,33z M62.9,61.7c0,0.8-0.6,1.4-1.4,1.4H36c-0.8,0-1.4-0.6-1.4-1.4V36.2c0-0.8,0.6-1.4,1.4-1.4h25.5
			c0.8,0,1.4,0.6,1.4,1.4V61.7z"/>
		<path id="XMLID_88_" class="st0" d="M53.2,47.6l-7.3-4.2c-1-0.6-2.4,0.2-2.4,1.4v8.4c0,1.2,1.3,2,2.4,1.4l7.3-4.2
			C54.2,49.7,54.2,48.2,53.2,47.6z"/>
		<path id="XMLID_87_" class="st0" d="M38.3,38.1c-0.5,0-0.9,0.4-0.9,0.9v3.5c0,0.5,0.4,0.9,0.9,0.9c0.5,0,0.9-0.4,0.9-0.9V39
			C39.3,38.5,38.8,38.1,38.3,38.1z"/>
		<path id="XMLID_86_" class="st0" d="M38.3,46.2c-0.5,0-0.9,0.4-0.9,0.9v3.5c0,0.5,0.4,0.9,0.9,0.9c0.5,0,0.9-0.4,0.9-0.9v-3.5
			C39.3,46.7,38.8,46.2,38.3,46.2z"/>
		<path id="XMLID_85_" class="st0" d="M38.3,54.4c-0.5,0-0.9,0.4-0.9,0.9v3.5c0,0.5,0.4,0.9,0.9,0.9c0.5,0,0.9-0.4,0.9-0.9v-3.5
			C39.3,54.9,38.8,54.4,38.3,54.4z"/>
		<path id="XMLID_84_" class="st0" d="M59.2,38.1c-0.5,0-0.9,0.4-0.9,0.9v3.5c0,0.5,0.4,0.9,0.9,0.9s0.9-0.4,0.9-0.9V39
			C60.1,38.5,59.7,38.1,59.2,38.1z"/>
		<path id="XMLID_83_" class="st0" d="M59.2,46.2c-0.5,0-0.9,0.4-0.9,0.9v3.5c0,0.5,0.4,0.9,0.9,0.9s0.9-0.4,0.9-0.9v-3.5
			C60.1,46.7,59.7,46.2,59.2,46.2z"/>
		<path id="XMLID_82_" class="st0" d="M59.2,54.4c-0.5,0-0.9,0.4-0.9,0.9v3.5c0,0.5,0.4,0.9,0.9,0.9s0.9-0.4,0.9-0.9v-3.5
			C60.1,54.9,59.7,54.4,59.2,54.4z"/>
	</g>
</g>
</svg>
