<?xml version="1.0" encoding="utf-8"?>
<!-- Generator: Adobe Illustrator 19.2.0, SVG Export Plug-In . SVG Version: 6.00 Build 0)  -->
<svg version="1.1" id="Layer_1" xmlns="http://www.w3.org/2000/svg" xmlns:xlink="http://www.w3.org/1999/xlink" x="0px" y="0px"
	 viewBox="0 0 28 48" style="enable-background:new 0 0 28 48;" xml:space="preserve">
<style type="text/css">
	.st0{fill:none;}
</style>
<g>
	<rect x="3" y="12" class="st0" width="22" height="24"/>
	<path class="st0" d="M25,3H3v6h22V3z M18,7h-8C9.4,7,9,6.6,9,6s0.4-1,1-1h8c0.6,0,1,0.4,1,1S18.6,7,18,7z"/>
	<path class="st0" d="M3,39v6h22v-6H3z M14,44c-1.1,0-2-0.9-2-2s0.9-2,2-2s2,0.9,2,2S15.1,44,14,44z"/>
	<path d="M25.5,0h-23C1.1,0,0,1.1,0,2.5V9v3v24v3v6.6C0,46.9,1.1,48,2.5,48h23.1c1.4,0,2.5-1.1,2.5-2.5v-43C28,1.1,26.9,0,25.5,0z
		 M3,3h22v6H3V3z M3,12h22v24H3V12z M3,45v-6h22v6H3z"/>
	<path d="M18,5h-8C9.4,5,9,5.4,9,6s0.4,1,1,1h8c0.6,0,1-0.4,1-1S18.6,5,18,5z"/>
	<circle cx="14" cy="42" r="2"/>
</g>
</svg>
