<?xml version="1.0" encoding="utf-8"?>
<!-- Generator: Adobe Illustrator 19.0.0, SVG Export Plug-In . SVG Version: 6.00 Build 0)  -->
<svg version="1.1" id="Layer_1" xmlns="http://www.w3.org/2000/svg" xmlns:xlink="http://www.w3.org/1999/xlink" x="0px" y="0px"
	 viewBox="0 0 30 30" style="enable-background:new 0 0 30 30;" xml:space="preserve">
<style type="text/css">
	.st0{enable-background:new    ;}
	.st1{fill:#DEDEDD;}
</style>
<g class="st0">
	<path class="st1" d="M4.2,9.8c0.5,0,0.9,0.2,1.3,0.5C5.9,10.7,6,11.1,6,11.6v7.8c0,0.5-0.2,0.9-0.5,1.3c-0.4,0.4-0.8,0.5-1.3,0.5
		S3.3,21,2.9,20.6c-0.4-0.4-0.5-0.8-0.5-1.3v-7.8c0-0.5,0.2-0.9,0.5-1.3C3.2,10,3.7,9.8,4.2,9.8z M19.1,2.8c1.3,0.7,2.3,1.6,3.1,2.7
		c0.8,1.2,1.1,2.5,1.1,3.8H6.6c0-1.4,0.4-2.7,1.1-3.8c0.8-1.2,1.8-2.1,3.1-2.7L9.6,0.5C9.5,0.3,9.5,0.2,9.7,0.1
		c0.2-0.1,0.3,0,0.4,0.1l1.3,2.4c1.1-0.5,2.3-0.8,3.6-0.8s2.5,0.2,3.6,0.8l1.3-2.4C20,0.1,20.1,0,20.3,0.1c0.1,0.1,0.2,0.2,0.1,0.4
		L19.1,2.8z M23.3,10.1v12c0,0.5-0.2,1-0.6,1.4c-0.4,0.4-0.8,0.6-1.4,0.6h-1.3v4.1c0,0.5-0.2,0.9-0.5,1.3C19,29.9,18.6,30,18.1,30
		s-0.9-0.2-1.3-0.5c-0.4-0.4-0.5-0.8-0.5-1.3v-4.1h-2.5v4.1c0,0.5-0.2,0.9-0.5,1.3C12.9,29.9,12.5,30,12,30c-0.5,0-0.9-0.2-1.3-0.5
		c-0.4-0.4-0.5-0.8-0.5-1.3v-4.1H8.8c-0.5,0-1-0.2-1.4-0.6c-0.4-0.4-0.6-0.8-0.6-1.4v-12H23.3z M10.8,6.2c0.1,0.1,0.3,0.2,0.5,0.2
		s0.4-0.1,0.5-0.2C11.9,6.1,12,5.9,12,5.7c0-0.2-0.1-0.4-0.2-0.5C11.7,5.1,11.5,5,11.3,5s-0.4,0.1-0.5,0.2s-0.2,0.3-0.2,0.5
		C10.6,5.9,10.6,6.1,10.8,6.2z M18.3,6.2c0.1,0.1,0.3,0.2,0.5,0.2c0.2,0,0.4-0.1,0.5-0.2c0.1-0.1,0.2-0.3,0.2-0.5
		c0-0.2-0.1-0.4-0.2-0.5C19.2,5.1,19,5,18.8,5c-0.2,0-0.4,0.1-0.5,0.2s-0.2,0.3-0.2,0.5C18.1,5.9,18.1,6.1,18.3,6.2z M27.7,11.6v7.8
		c0,0.5-0.2,0.9-0.5,1.3c-0.4,0.4-0.8,0.5-1.3,0.5S25,21,24.6,20.6c-0.4-0.4-0.5-0.8-0.5-1.3v-7.8c0-0.5,0.2-0.9,0.5-1.3
		c0.4-0.4,0.8-0.5,1.3-0.5s0.9,0.2,1.3,0.5C27.5,10.7,27.7,11.1,27.7,11.6z"/>
</g>
</svg>
