<?xml version="1.0" encoding="utf-8"?>
<!-- Generator: Adobe Illustrator 19.0.0, SVG Export Plug-In . SVG Version: 6.00 Build 0)  -->
<svg version="1.1" id="Layer_1" xmlns="http://www.w3.org/2000/svg" xmlns:xlink="http://www.w3.org/1999/xlink" x="0px" y="0px"
	 viewBox="0 0 30 30" style="enable-background:new 0 0 30 30;" xml:space="preserve">
<style type="text/css">
	.st0{enable-background:new    ;}
	.st1{fill:#DEDEDD;}
</style>
<g id="XMLID_4_" class="st0">
	<path id="XMLID_5_" class="st1" d="M27.4,21.9c-0.5,1.5-1.2,3-2.2,4.5c-1.5,2.3-3.1,3.5-4.6,3.5c-0.6,0-1.4-0.2-2.5-0.6
		c-1-0.4-1.9-0.6-2.7-0.6c-0.7,0-1.6,0.2-2.5,0.6c-1,0.4-1.8,0.6-2.4,0.6c-1.8,0-3.6-1.5-5.5-4.6c-1.8-3.1-2.6-6.2-2.6-9.1
		c0-2.7,0.7-4.9,2-6.8c1.3-1.7,3-2.6,5.2-2.6c0.9,0,1.9,0.2,3.2,0.5c1.2,0.4,2.1,0.5,2.5,0.5c0.5,0,1.4-0.2,2.6-0.6
		C19,6.9,20.1,6.7,21,6.7c1.4,0,2.7,0.4,3.8,1.2c0.6,0.4,1.2,1,1.9,1.8c-0.9,0.8-1.6,1.5-2,2.1c-0.8,1.1-1.2,2.4-1.2,3.7
		c0,1.5,0.4,2.8,1.2,4S26.3,21.6,27.4,21.9z M20.7,0.7c0,0.7-0.2,1.5-0.5,2.4c-0.4,0.9-0.9,1.7-1.7,2.5c-0.6,0.6-1.3,1.1-1.9,1.3
		c-0.4,0.1-1.1,0.2-1.9,0.3c0-1.8,0.5-3.3,1.4-4.6c0.9-1.3,2.4-2.2,4.5-2.6c0,0,0,0.1,0,0.2c0,0.1,0,0.2,0,0.2s0,0.1,0,0.2
		C20.7,0.6,20.7,0.7,20.7,0.7z"/>
</g>
</svg>
