<?xml version="1.0" encoding="utf-8"?>
<!-- Generator: Adobe Illustrator 19.0.0, SVG Export Plug-In . SVG Version: 6.00 Build 0)  -->
<svg version="1.1" id="Layer_1" xmlns="http://www.w3.org/2000/svg" xmlns:xlink="http://www.w3.org/1999/xlink" x="0px" y="0px"
	 viewBox="0 0 30 30" style="enable-background:new 0 0 30 30;" xml:space="preserve">
<style type="text/css">
	.st0{enable-background:new    ;}
	.st1{fill:#DEDEDD;}
</style>
<g id="XMLID_2_" class="st0">
	<path id="XMLID_4_" class="st1" d="M30,18.2v3.2c-0.3,0-0.5,0-0.7-0.1c-0.2-0.1-0.4-0.2-0.6-0.3c-0.1-0.1-0.3-0.3-0.6-0.5
		c-0.3-0.3-0.6-0.5-0.7-0.7s-0.6-0.3-0.9-0.5c-0.5-0.2-0.9-0.2-1.4-0.2c-0.5,0-1,0.1-1.4,0.2c-0.5,0.2-0.7,0.3-0.9,0.5
		c-0.2,0.2-0.5,0.4-0.7,0.7c-0.3,0.2-0.5,0.4-0.6,0.5c-0.1,0.1-0.3,0.2-0.6,0.3c-0.3,0.1-0.5,0.1-0.7,0.1c-0.4,0-0.7-0.1-0.9-0.2
		c-0.3-0.1-0.6-0.4-0.8-0.7c-0.3-0.3-0.6-0.5-0.7-0.7c-0.2-0.2-0.6-0.3-0.9-0.5c-0.5-0.2-0.9-0.2-1.4-0.2s-0.9,0.1-1.4,0.3
		c-0.5,0.2-0.7,0.3-0.9,0.5c-0.2,0.1-0.5,0.4-0.8,0.7c-0.2,0.2-0.4,0.4-0.6,0.5c-0.1,0.1-0.3,0.2-0.6,0.3c-0.2,0.1-0.5,0.1-0.7,0.1
		c-0.4,0-0.7-0.1-0.9-0.2c-0.2-0.1-0.6-0.4-0.8-0.7c-0.3-0.3-0.6-0.5-0.7-0.7c-0.2-0.2-0.6-0.3-1-0.5c-0.5-0.2-0.9-0.2-1.4-0.2
		s-1,0.1-1.4,0.2C3.3,19.7,3,19.8,2.9,20s-0.5,0.4-0.7,0.7c-0.4,0.3-0.7,0.5-0.8,0.7s-0.6,0.2-0.9,0.2v-3.2c0-0.9,0.3-1.7,0.9-2.2
		c0.7-0.7,1.4-0.9,2.2-0.9h1V7.7h4.3v7.5h4.3V7.7h4.3v7.5h4.3V7.7H26v7.5h1c0.9,0,1.7,0.3,2.2,0.9C29.7,16.6,30,17.4,30,18.2z
		 M30,23.6V30H0v-6.4c0.5,0,0.9-0.1,1.4-0.2c0.5-0.2,0.7-0.3,1-0.5c0.2-0.2,0.5-0.4,0.7-0.7c0.4-0.3,0.7-0.5,0.8-0.7
		c0.3-0.1,0.6-0.2,0.9-0.2c0.3,0,0.5,0,0.7,0.1c0.2,0.1,0.4,0.2,0.6,0.3c0.1,0.1,0.3,0.3,0.6,0.5c0.3,0.3,0.6,0.5,0.7,0.7
		c0.2,0.2,0.6,0.3,0.9,0.5c0.5,0.2,0.9,0.2,1.4,0.2c0.5,0,0.9-0.1,1.4-0.3s0.7-0.3,0.9-0.5c0.2-0.1,0.5-0.4,0.8-0.7
		c0.2-0.2,0.4-0.4,0.6-0.5c0.1-0.1,0.3-0.2,0.6-0.3c0.2-0.1,0.5-0.1,0.7-0.1c0.4,0,0.7,0.1,0.9,0.2s0.6,0.4,0.8,0.7
		c0.3,0.3,0.6,0.5,0.7,0.7c0.2,0.2,0.6,0.3,1,0.5c0.5,0.2,0.9,0.2,1.4,0.2c0.5,0,0.9-0.1,1.4-0.2c0.5-0.2,0.7-0.3,1-0.5
		c0.2-0.2,0.5-0.4,0.7-0.7c0.4-0.3,0.7-0.5,0.8-0.7s0.6-0.2,0.9-0.2s0.7,0.1,0.9,0.2c0.3,0.1,0.6,0.4,0.8,0.7
		c0.3,0.3,0.6,0.5,0.7,0.7s0.6,0.3,1,0.5C29,23.6,29.5,23.6,30,23.6z M8.6,3.8c0,0.8-0.2,1.5-0.6,2C7.6,6.3,7.1,6.4,6.5,6.4
		S5.4,6.3,5,5.8C4.6,5.4,4.3,4.9,4.3,4.3c0-0.3,0.1-0.6,0.2-0.8C4.6,3.2,4.8,3,4.9,2.9c0.2-0.1,0.4-0.3,0.6-0.5
		C5.7,2.2,5.8,2.1,6,1.9c0.2-0.2,0.3-0.4,0.4-0.7C6.5,0.8,6.6,0.5,6.6,0C7.1,0,7.4,0.4,8,1.2C8.4,2.1,8.6,3,8.6,3.8z M17.1,3.8
		c0,0.8-0.2,1.5-0.6,2c-0.4,0.5-0.9,0.7-1.5,0.7S14,6.3,13.6,5.8c-0.4-0.4-0.7-0.9-0.7-1.5c0-0.3,0.1-0.6,0.2-0.8s0.3-0.5,0.4-0.6
		c0.2-0.1,0.4-0.3,0.6-0.5c0.2-0.2,0.4-0.4,0.6-0.6c0.2-0.2,0.3-0.4,0.4-0.7c0.1-0.3,0.2-0.7,0.2-1.1c0.5,0,0.8,0.4,1.4,1.2
		C16.9,2.1,17.1,3,17.1,3.8z M25.7,3.8c0,0.8-0.2,1.5-0.6,2c-0.4,0.5-0.9,0.7-1.5,0.7c-0.6,0-1.1-0.2-1.5-0.7
		c-0.4-0.5-0.7-0.9-0.7-1.5c0-0.3,0.1-0.6,0.2-0.8C21.7,3.2,21.9,3,22,2.9c0.2-0.1,0.4-0.3,0.6-0.5c0.2-0.2,0.4-0.4,0.6-0.6
		s0.3-0.4,0.4-0.7c0.1-0.3,0.2-0.7,0.2-1.1c0.5,0,0.8,0.4,1.4,1.2C25.5,2.1,25.7,3,25.7,3.8z"/>
</g>
</svg>
