<?xml version="1.0" encoding="utf-8"?>
<!-- Generator: Adobe Illustrator 19.0.0, SVG Export Plug-In . SVG Version: 6.00 Build 0)  -->
<svg version="1.1" id="Layer_1" xmlns="http://www.w3.org/2000/svg" xmlns:xlink="http://www.w3.org/1999/xlink" x="0px" y="0px"
	 viewBox="0 0 30 30" style="enable-background:new 0 0 30 30;" xml:space="preserve">
<style type="text/css">
	.st0{enable-background:new    ;}
	.st1{fill:#DEDEDD;}
</style>
<g id="XMLID_5_" class="st0">
	<path id="XMLID_6_" class="st1" d="M7.4,2c2.3-1.3,4.8-2,7.6-2s5.3,0.7,7.6,2c2.3,1.3,4.2,3.2,5.5,5.5s2,4.8,2,7.6s-0.7,5.3-2,7.6
		c-1.3,2.3-3.2,4.2-5.5,5.5s-4.8,2-7.6,2s-5.3-0.7-7.6-2c-2.3-1.3-4.2-3.2-5.5-5.5S0,17.7,0,15s0.7-5.3,2-7.6C3.4,5.1,5.1,3.3,7.4,2
		z M20.4,10.2c0,0-0.1,0.1-0.2,0.2c-0.1,0.1-0.2,0.2-0.2,0.2s0.1,0,0.1-0.1s0.1-0.1,0.1-0.2c0-0.1,0.1-0.1,0.1-0.1
		c0.1-0.1,0.2-0.2,0.4-0.3s0.5-0.1,1-0.2c0.4-0.1,0.8,0,1,0.2c0,0,0-0.1,0.2-0.2c0.1-0.1,0.2-0.2,0.3-0.2c0,0,0.1-0.1,0.3-0.1
		c0.1,0,0.2-0.1,0.3-0.1V8.8c-0.1,0-0.2,0-0.3-0.1c-0.1-0.1-0.1-0.2-0.1-0.4c0,0,0,0.1-0.1,0.1c0-0.1,0-0.1-0.1-0.1s-0.1,0-0.2,0
		c-0.1,0-0.1,0-0.2,0c-0.1,0-0.2-0.1-0.3-0.1c-0.1-0.1-0.1-0.2-0.1-0.3s-0.1-0.2-0.1-0.3c0-0.1-0.1-0.1-0.2-0.2
		c-0.1-0.1-0.1-0.1-0.2-0.2V6.9c0,0,0-0.1-0.1-0.1c0,0,0-0.1-0.1-0.1h-0.1c0,0-0.1,0-0.1,0.1c0,0.1-0.1,0.1-0.1,0.2
		c0,0.1-0.1,0.1-0.1,0.1H21h-0.1c0,0,0,0-0.1,0.1l-0.1,0.1c0,0-0.1,0-0.2,0.1c-0.1,0.1-0.1,0-0.2,0c0.2-0.1,0.2-0.1,0-0.2
		c-0.1,0-0.2-0.1-0.3-0.1C20,7.1,20.1,7,20,6.9c0-0.1-0.1-0.2-0.2-0.2h0.1c0,0-0.1-0.1-0.2-0.2c-0.1-0.1-0.2-0.1-0.3-0.2
		c-0.1,0-0.2-0.1-0.2-0.1C19.1,6,18.8,6,18.5,5.9c-0.3-0.1-0.5-0.1-0.7,0C17.7,6,17.7,6,17.7,6.1c0,0.1,0,0.1,0.1,0.2
		c0,0.1,0.1,0.2,0.1,0.2c0,0.1,0,0.1-0.1,0.2S17.7,7,17.7,7c0,0.1,0.1,0.2,0.2,0.3s0.2,0.2,0.2,0.4c0,0.1-0.1,0.2-0.3,0.3
		c-0.2,0.1-0.2,0.2-0.3,0.2c-0.1,0.1-0.1,0.2,0,0.3c0,0.1,0.1,0.2,0.2,0.3c0,0,0,0,0,0.1c0,0,0,0.1-0.1,0.1l-0.1,0.1
		c0,0-0.1,0-0.1,0.1h-0.1c-0.1,0.1-0.3,0-0.4-0.1c-0.1-0.1-0.2-0.3-0.2-0.5c-0.1-0.3-0.2-0.5-0.3-0.5c-0.3-0.1-0.4-0.1-0.5,0
		C15.7,8,15.4,7.9,15,7.7c-0.3-0.1-0.7-0.1-1.1-0.1c0.1,0,0.1-0.1,0-0.3C13.8,7,13.7,7,13.6,7c0-0.1,0.1-0.2,0.1-0.3
		c0-0.1,0-0.2,0-0.2c0-0.2,0.1-0.3,0.2-0.4c0,0,0.1-0.1,0.1-0.2c0.1-0.1,0.1-0.2,0.2-0.2c0-0.1,0-0.1,0-0.1c0.4,0,0.8,0,1-0.2
		c0.1-0.1,0.1-0.2,0.2-0.3c0.1-0.1,0.1-0.2,0.2-0.3c0.1-0.1,0.2-0.1,0.2-0.1c0.1,0,0.1,0,0.3,0.1c0.1,0.1,0.2,0.1,0.3,0.1
		c0.2,0,0.3-0.1,0.3-0.2c0-0.1,0-0.3-0.1-0.4c0.1,0,0.2-0.1,0.1-0.3c0-0.1-0.1-0.1-0.1-0.2c-0.1,0-0.3,0-0.5,0.1
		c-0.1,0-0.1,0.1,0,0.1c0,0-0.1,0.1-0.2,0.2c-0.1,0.1-0.2,0.2-0.3,0.3c-0.1,0.1-0.2,0-0.3-0.1c0,0,0-0.1-0.1-0.2
		c-0.1-0.1-0.1-0.2-0.2-0.2c-0.1,0-0.2,0.1-0.3,0.3c0-0.1,0-0.2-0.2-0.3c-0.2-0.1-0.3-0.1-0.4-0.1c0.2-0.1,0.2-0.3-0.1-0.5
		c-0.1,0-0.2-0.1-0.4-0.1s-0.3,0-0.3,0.1C13,3.2,13,3.3,13,3.3s0,0.1,0.1,0.1s0.1,0.1,0.2,0.1c0.1,0,0.1,0,0.2,0.1
		c0.1,0,0.1,0,0.2,0.1C14,3.8,14,3.9,13.9,3.9c0,0-0.1,0-0.2,0.1c-0.1,0-0.1,0.1-0.2,0.1c-0.1,0-0.1,0-0.1,0.1c0,0,0,0.1,0,0.2
		c0,0.1,0,0.2,0,0.2c-0.1-0.1-0.1-0.2-0.2-0.3c0-0.1-0.1-0.2-0.1-0.3c0.1,0.1-0.1,0.1-0.4,0.1h-0.2c0,0-0.1,0-0.3,0
		c-0.1,0-0.3,0-0.4,0s-0.2-0.1-0.2-0.1c0-0.1,0-0.2,0-0.4c0,0,0-0.1,0.1,0c0,0-0.1-0.1-0.2-0.2c-0.1-0.1-0.1-0.1-0.2-0.2
		c-0.5,0.2-1.2,0.4-1.9,0.8c0.1,0,0.1,0,0.2,0c0.1,0,0.1-0.1,0.2-0.1c0.1-0.1,0.2-0.1,0.2-0.1c0.4-0.2,0.8-0.2,0.9-0.1l0.1-0.1
		c0.2,0.2,0.3,0.3,0.4,0.4c-0.1,0-0.3-0.1-0.5,0s-0.4,0.1-0.4,0.2c0.1,0.1,0.1,0.2,0.1,0.3c0,0-0.1-0.1-0.2-0.2
		C10.1,4.2,10,4.2,9.9,4.1c-0.1,0-0.2-0.1-0.3-0.1c-0.2,0-0.3,0-0.4,0C7.2,5,5.7,6.5,4.5,8.3c0.1,0.1,0.2,0.1,0.2,0.1
		s0.1,0.1,0.1,0.2c0,0.1,0,0.2,0,0.2s0.1,0,0.2-0.1C5.1,8.9,5.1,9,5.1,9.1c0,0,0.3,0.1,0.9,0.5c0.2,0.2,0.4,0.3,0.4,0.4
		c0,0.1,0,0.2-0.2,0.3c0,0-0.1-0.1-0.2-0.2c-0.1-0.1-0.1-0.1-0.2-0.1c0,0.1,0,0.2,0,0.3c0,0.2,0.1,0.2,0.2,0.2
		c-0.1,0-0.1,0.1-0.2,0.3c0,0.2,0,0.4,0,0.7c0,0.2,0,0.4,0,0.4l0,0c0,0.1,0,0.3,0.1,0.7C6,13,6.1,13.1,6.4,13c-0.2,0,0,0.3,0.4,0.9
		C6.9,14,6.9,14,6.9,14.1c0,0,0.1,0.1,0.2,0.1c0.1,0,0.2,0.1,0.3,0.2c0.1,0.1,0.1,0.1,0.2,0.2c0,0.1,0.1,0.2,0.2,0.4
		c0.1,0.2,0.2,0.3,0.2,0.4c0,0.1,0,0.2,0.2,0.4s0.2,0.3,0.2,0.4l0,0l0,0c0,0.1,0.1,0.2,0.3,0.2s0.2,0.2,0.3,0.2c0,0,0,0.1,0,0.2
		c0,0.1,0,0.1,0.1,0.2c0,0,0.1,0.1,0.1,0c0-0.2-0.1-0.7-0.4-1.2C8.5,16.2,8.4,16,8.4,16c0-0.1-0.1-0.2-0.1-0.3s-0.1-0.2-0.1-0.3h0.1
		c0,0,0.1,0,0.2,0.1c0.1,0,0.1,0,0.1,0.1c0,0,0,0,0,0.1c0,0.1,0,0.2,0,0.3c0,0.1,0.1,0.2,0.2,0.3c0.1,0.1,0.2,0.2,0.3,0.3
		c0.1,0.1,0.2,0.2,0.2,0.2c0.1,0.1,0.2,0.2,0.2,0.3c0.1,0.2,0.1,0.2,0,0.2c0.1,0,0.2,0.1,0.4,0.2c0.2,0.1,0.2,0.2,0.3,0.3
		c0.1,0.1,0.1,0.2,0.1,0.5c0,0.2,0.1,0.4,0.1,0.4c0,0.1,0.1,0.2,0.2,0.2c0.1,0.1,0.2,0.1,0.2,0.2c0.1,0,0.2,0.1,0.3,0.1
		c0.1,0.1,0.2,0.1,0.2,0.1c0.1,0,0.2,0.1,0.3,0.2c0.2,0.1,0.3,0.2,0.4,0.2c0.1,0,0.2,0.1,0.3,0.1c0.1,0,0.2,0,0.3,0
		c0.1,0,0.2,0,0.2-0.1c0.2,0,0.4,0.1,0.5,0.3c0.2,0.2,0.3,0.3,0.4,0.4c0.4,0.2,0.9,0.3,1.1,0.2v0.1c0,0.1,0.1,0.2,0.1,0.3
		c0.1,0.1,0.1,0.2,0.2,0.3c0,0.1,0.1,0.1,0.1,0.2c0.1,0.1,0.2,0.2,0.3,0.3c0.2,0.1,0.3,0.2,0.3,0.3c0.1,0,0.1-0.1,0.1-0.2
		c0,0.1,0,0.2,0.1,0.4c0.1,0.1,0.2,0.2,0.3,0.2c0.2,0,0.2-0.2,0.2-0.7c-0.4,0.2-0.8,0.1-1-0.3c0,0,0,0,0-0.1s-0.1-0.1-0.1-0.2
		c0,0,0-0.1,0-0.2c0-0.1,0-0.1,0-0.1s0-0.1,0.1-0.1s0.2,0,0.2-0.1s0-0.1,0-0.2c0-0.1-0.1-0.2-0.1-0.2c0-0.1-0.1-0.2-0.2-0.4
		c-0.1-0.1-0.2-0.2-0.2-0.3c-0.1,0.1-0.2,0.2-0.3,0.1c-0.1-0.1-0.2-0.1-0.3-0.2c0,0,0,0,0,0.1s0,0.1,0,0.1c-0.2,0-0.2,0-0.3,0
		c0,0,0-0.1,0-0.3s0-0.3,0.1-0.4c0,0,0-0.1,0.1-0.2c0.1-0.1,0.1-0.2,0.1-0.3s0.1-0.2,0.1-0.2s0-0.1-0.1-0.2s-0.2-0.1-0.3,0
		c-0.2,0-0.4,0.1-0.5,0.4c0,0,0,0.1-0.1,0.2c-0.1,0.1-0.1,0.2-0.1,0.2s-0.1,0.1-0.2,0.1c-0.1,0-0.2,0-0.4,0s-0.3,0-0.4-0.1
		c-0.2-0.1-0.3-0.3-0.4-0.5c-0.1-0.2-0.2-0.5-0.2-0.8c0-0.1,0-0.3,0-0.5c0-0.2,0-0.3,0.1-0.4c0-0.1,0-0.2-0.1-0.4
		c0,0,0.1-0.1,0.2-0.2c0.1-0.1,0.1-0.2,0.2-0.2h0.1H13c0,0,0,0,0.1,0c0,0,0-0.1,0.1-0.1c0,0,0,0-0.1-0.1L13,15.8c0.1,0,0.3,0,0.5,0
		c0.3-0.1,0.4,0,0.5,0c0.2,0.1,0.3,0.1,0.4,0c0,0,0-0.1,0-0.2c0-0.1,0-0.2,0-0.2c0.1,0.3,0.2,0.4,0.5,0.2c0,0,0.1,0.1,0.3,0.1
		c0.1,0,0.3,0.1,0.3,0.1l0.1,0.1L16,16c0,0,0,0,0.1,0c0,0,0.1-0.1,0.2-0.1c0.1,0.2,0.2,0.3,0.2,0.4c0.1,0.5,0.2,0.8,0.3,0.9
		c0.1,0,0.1,0,0.2,0c0,0,0.1-0.1,0.1-0.2c0-0.1,0-0.2,0-0.2s0-0.1,0-0.2v-0.1c0-0.1,0-0.2,0-0.3V16c-0.2,0-0.3-0.1-0.3-0.2
		c0-0.1,0-0.2,0-0.3c0.1-0.1,0.1-0.2,0.3-0.3c0,0,0.1,0,0.1-0.1c0.1,0,0.2-0.1,0.3-0.1s0.2-0.1,0.2-0.1c0.2-0.2,0.3-0.4,0.3-0.7
		c0.1,0,0.1-0.1,0.2-0.2c0,0,0,0-0.1-0.1l-0.1-0.1h-0.1c0.1-0.1,0.1-0.2,0-0.3c0.1,0,0.1-0.1,0.1-0.2c0-0.1,0.1-0.2,0.1-0.2
		c0.1,0.1,0.2,0.2,0.4,0c0.1-0.1,0.1-0.2,0-0.3c0.1-0.1,0.2-0.1,0.4-0.2s0.3-0.1,0.3-0.2c0.1,0,0.1,0,0.1,0s0-0.1,0-0.2
		c0-0.1,0-0.2,0.1-0.2c0-0.1,0.1-0.1,0.3-0.2c0.1,0,0.2-0.1,0.2-0.1l0.3-0.2v-0.1c0.2,0,0.4,0,0.7-0.2c0.1-0.1,0.1-0.2-0.1-0.4
		c0-0.1,0-0.1-0.1-0.2s-0.2-0.1-0.3-0.1c0,0,0.1,0,0.2,0c0.1,0,0.2,0,0.2,0c0.2-0.1,0.1-0.2-0.1-0.3C21,9.9,20.7,10,20.4,10.2z
		 M17.2,27.3c2.7-0.4,4.9-1.8,6.9-3.7c0,0-0.1-0.1-0.2-0.1s-0.2,0-0.2-0.1c-0.2-0.1-0.4-0.1-0.4-0.1c0-0.1,0-0.2,0-0.2
		s-0.1-0.1-0.1-0.2c-0.1,0-0.1-0.1-0.2-0.1s-0.2-0.1-0.2-0.1l-0.1-0.1c-0.1,0-0.1-0.1-0.1-0.1s-0.1,0-0.1-0.1c-0.1,0-0.1,0-0.2,0
		c0,0-0.1,0-0.2,0h-0.1h-0.1c0,0-0.1,0-0.1,0.1c0,0-0.1,0-0.1,0.1s0,0,0,0c-0.2-0.2-0.5-0.3-0.7-0.4c-0.1,0-0.1,0-0.2-0.1
		s-0.1-0.1-0.2-0.1c-0.1,0-0.1,0-0.2,0c-0.1,0-0.1,0.1-0.2,0.1c-0.1,0.1-0.1,0.1-0.1,0.3s0,0.2,0,0.2c-0.1-0.1-0.1-0.2,0-0.3
		s0.1-0.3,0-0.3c0-0.1-0.1-0.1-0.2-0.1c-0.1,0-0.2,0-0.2,0.1s-0.1,0.1-0.2,0.2c-0.1,0.1-0.1,0.1-0.2,0.1c0,0-0.1,0-0.2,0.1
		c-0.1,0.1-0.1,0.1-0.2,0.1c0,0-0.1,0.1-0.1,0.2c0,0.1-0.1,0.2-0.1,0.2s-0.1-0.1-0.2-0.1c-0.1,0-0.2-0.1-0.2-0.1
		c0,0.1,0,0.3,0.1,0.7c0,0.3,0.1,0.5,0.1,0.8c0.1,0.4,0,0.8-0.2,1c-0.3,0.3-0.5,0.5-0.5,0.8c0,0.3,0,0.4,0.2,0.5
		c0,0.1,0,0.2-0.1,0.4s-0.1,0.3-0.1,0.4C17.1,27,17.2,27.2,17.2,27.3z"/>
</g>
</svg>
