<?xml version="1.0" encoding="utf-8"?>
<!-- Generator: Adobe Illustrator 19.0.0, SVG Export Plug-In . SVG Version: 6.00 Build 0)  -->
<svg version="1.1" id="Layer_1" xmlns="http://www.w3.org/2000/svg" xmlns:xlink="http://www.w3.org/1999/xlink" x="0px" y="0px"
	 viewBox="0 0 200 120" style="enable-background:new 0 0 200 120;" xml:space="preserve">
<style type="text/css">
	.st0{fill:#FFFFFF;}
</style>
<g id="XMLID_3_">
	<path id="XMLID_112_" class="st0" d="M127.9,0H99.3C78,0,60.7,17.3,60.7,38.5c0,21.3,17.3,38.5,38.5,38.5
		c21.3,0,38.5-17.3,38.5-38.5V9.9C137.8,4.4,133.4,0,127.9,0 M99.3,67.5c-16,0-28.9-13-28.9-28.9c0-16,13-28.9,28.9-28.9
		c1.2,0,2.4,0.1,3.5,0.2c14.3,1.7,25.4,13.9,25.4,28.7C128.2,54.5,115.2,67.5,99.3,67.5 M128.5,13.5c-2.4,0-4.3-1.9-4.3-4.3
		c0-2.4,1.9-4.3,4.3-4.3c2.4,0,4.3,1.9,4.3,4.3C132.8,11.6,130.9,13.5,128.5,13.5 M99.3,20.1c-10.2,0-18.4,8.3-18.4,18.4
		S89.1,57,99.3,57c10.2,0,18.4-8.3,18.4-18.4S109.4,20.1,99.3,20.1z M112.5,38.5c0,7.3-5.9,13.2-13.2,13.2
		c-7.3,0-13.2-5.9-13.2-13.2S92,25.3,99.3,25.3C106.5,25.3,112.5,31.3,112.5,38.5z M105.1,38.5c0,3.2-2.6,5.9-5.9,5.9
		c-3.2,0-5.9-2.6-5.9-5.9c0-3.2,2.6-5.9,5.9-5.9C102.5,32.7,105.1,35.3,105.1,38.5"/>
	<g id="XMLID_4_">
		<path id="XMLID_5_" class="st0" d="M0,97h1.1v10.6h15.2V97h1.1v22.3h-1.1v-10.7H1.1v10.7H0V97z"/>
		<path id="XMLID_7_" class="st0" d="M23,108.2L23,108.2c0-6.1,4.4-11.5,11.1-11.5s11.1,5.4,11.1,11.5v0.1c0,6.1-4.4,11.5-11.1,11.5
			C27.4,119.7,23,114.3,23,108.2z M44.2,108.2L44.2,108.2c0-5.7-4.1-10.6-10-10.6c-5.9,0-10,4.8-10,10.5v0.1c0,5.6,4.1,10.5,10,10.5
			C40.1,118.7,44.2,113.9,44.2,108.2z"/>
		<path id="XMLID_10_" class="st0" d="M55,98h-7.9v-1H64v1h-7.9v21.3H55V98z"/>
		<path id="XMLID_12_" class="st0" d="M66.9,116l1.6-1.8c2.3,2.1,4.5,3.1,7.6,3.1c3,0,5-1.6,5-3.8v-0.1c0-2.1-1.1-3.2-5.8-4.2
			c-5.1-1.1-7.5-2.8-7.5-6.4v-0.1c0-3.5,3.1-6.1,7.3-6.1c3.2,0,5.6,0.9,7.8,2.7l-1.5,1.9C79.4,99.7,77.3,99,75,99
			c-2.9,0-4.7,1.6-4.7,3.6v0.1c0,2.1,1.1,3.3,6,4.3c5,1.1,7.2,2.9,7.2,6.3v0.1c0,3.8-3.2,6.3-7.6,6.3
			C72.4,119.6,69.5,118.4,66.9,116z"/>
		<path id="XMLID_14_" class="st0" d="M88.7,97H97c5,0,8.3,2.7,8.3,7.1v0.1c0,4.8-4,7.3-8.7,7.3h-5.4v7.9h-2.5V97z M96.7,109.1
			c3.7,0,6.1-2,6.1-4.9v-0.1c0-3.2-2.4-4.8-6-4.8h-5.6v9.8H96.7z"/>
		<path id="XMLID_17_" class="st0" d="M108.9,108.2L108.9,108.2c0-6.2,4.6-11.6,11.4-11.6c6.8,0,11.3,5.3,11.3,11.4v0.1
			c0,6.1-4.6,11.5-11.4,11.5C113.5,119.7,108.9,114.4,108.9,108.2z M129,108.2L129,108.2c0-5.1-3.7-9.3-8.8-9.3s-8.7,4.1-8.7,9.1
			v0.1c0,5.1,3.7,9.2,8.8,9.2S129,113.3,129,108.2z"/>
		<path id="XMLID_20_" class="st0" d="M141.3,99.3h-7.5V97h17.5v2.3h-7.5v19.9h-2.5V99.3z"/>
		<path id="XMLID_22_" class="st0" d="M166.7,113.8h-0.1l-7-10.4v15.9h-3.8V97h4.2l6.8,10.5l6.8-10.5h4.2v22.3h-3.9v-16L166.7,113.8
			z"/>
		<path id="XMLID_24_" class="st0" d="M199.9,100.5h-12.6v5.8h11.2v3.5h-11.2v6H200v3.5h-16.7V97h16.5V100.5z"/>
	</g>
</g>
</svg>
