
<svg width="30px" height="30px" viewBox="7 6 30 30" version="1.1" xmlns="http://www.w3.org/2000/svg" xmlns:xlink="http://www.w3.org/1999/xlink">
    <!-- Generator: Sketch 3.8.3 (29802) - http://www.bohemiancoding.com/sketch -->
    <desc>Created with Sketch.</desc>
    <defs>
        <polygon id="path-1" points="0.158910507 29.5966403 29.7769587 29.5966403 29.7769587 0.0430281705 0.158910507 0.0430281705"></polygon>
    </defs>
    <g id="Page-1" stroke="none" stroke-width="1" fill="none" fill-rule="evenodd" transform="translate(7.000000, 6.000000)">
        <path d="M13.5611123,12.9073054 C13.3795289,12.9073054 13.2874402,13.0000532 13.2874402,13.1829361 L13.2874402,15.28329 C13.2874402,15.4661729 13.3795289,15.5589206 13.5611123,15.5589206 L16.5052336,15.5589206 C16.686817,15.5589206 16.7789057,15.4661729 16.7789057,15.28329 L16.7789057,13.1829361 C16.7789057,13.0000532 16.686817,12.9073054 16.5052336,12.9073054 L13.5611123,12.9073054 L13.5611123,12.9073054 Z M16.5052336,16.2431763 L13.5611123,16.2431763 C13.0088888,16.2431763 12.6080466,15.8394655 12.6080466,15.28329 L12.6080466,13.1829361 C12.6080466,12.6267606 13.0088888,12.2230498 13.5611123,12.2230498 L16.5052336,12.2230498 C17.057457,12.2230498 17.4582993,12.6267606 17.4582993,13.1829361 L17.4582993,15.28329 C17.4582993,15.8394655 17.057457,16.2431763 16.5052336,16.2431763 L16.5052336,16.2431763 Z" id="Fill-1" fill="#FFFFFF"></path>
        <path d="M21.7697187,21.5033919 L23.9503251,21.5035785 L23.9505104,20.5920255 L21.7697187,20.5918389 L21.7697187,21.5033919 Z M23.9967709,22.1878342 L21.7234582,22.1878342 C21.3625149,22.1878342 21.0903251,21.9136965 21.0903251,21.5501079 L21.0903251,20.5452473 C21.0903251,20.1817209 21.3625149,19.9075832 21.7234582,19.9075832 L23.9967709,19.9075832 C24.3577142,19.9075832 24.629904,20.1817209 24.629904,20.5452473 L24.629904,21.5501079 C24.629904,21.9136965 24.3577142,22.1878342 23.9967709,22.1878342 L23.9967709,22.1878342 Z" id="Fill-3" fill="#FFFFFF"></path>
        <path d="M21.7697187,24.2224934 L23.9503251,24.22268 L23.9505104,23.311127 L21.7697187,23.3109404 L21.7697187,24.2224934 Z M23.9967709,24.9069356 L21.7234582,24.9069356 C21.3625149,24.9069356 21.0903251,24.6327979 21.0903251,24.2692716 L21.0903251,23.2643488 C21.0903251,22.9008224 21.3625149,22.6266847 21.7234582,22.6266847 L23.9967709,22.6266847 C24.3577142,22.6266847 24.629904,22.9008224 24.629904,23.2643488 L24.629904,24.2692716 C24.629904,24.6327979 24.3577142,24.9069356 23.9967709,24.9069356 L23.9967709,24.9069356 Z" id="Fill-5" fill="#FFFFFF"></path>
        <path d="M21.7697187,18.9024427 L23.9503251,18.9026293 L23.9505104,17.9910764 L21.7697187,17.9908897 L21.7697187,18.9024427 Z M23.9967709,19.586885 L21.7234582,19.586885 C21.3625149,19.586885 21.0903251,19.3127473 21.0903251,18.9492209 L21.0903251,17.9443604 C21.0903251,17.5807718 21.3625149,17.3066341 21.7234582,17.3066341 L23.9967709,17.3066341 C24.3577142,17.3066341 24.629904,17.5807718 24.629904,17.9443604 L24.629904,18.9492209 C24.629904,19.3127473 24.3577142,19.586885 23.9967709,19.586885 L23.9967709,19.586885 Z" id="Fill-7" fill="#FFFFFF"></path>
        <path d="M5.95885851,21.5033919 L8.13946491,21.5035785 L8.1396502,20.5920255 L5.95885851,20.5918389 L5.95885851,21.5033919 Z M8.18591072,22.1878342 L5.91259798,22.1878342 C5.55165469,22.1878342 5.27946491,21.9136965 5.27946491,21.5501079 L5.27946491,20.5452473 C5.27946491,20.1817209 5.55165469,19.9075832 5.91259798,19.9075832 L8.18591072,19.9075832 C8.54685401,19.9075832 8.8190438,20.1817209 8.8190438,20.5452473 L8.8190438,21.5501079 C8.8190438,21.9136965 8.54685401,22.1878342 8.18591072,22.1878342 L8.18591072,22.1878342 Z" id="Fill-9" fill="#FFFFFF"></path>
        <path d="M5.95885851,24.2224934 L8.13946491,24.22268 L8.1396502,23.311127 L5.95885851,23.3109404 L5.95885851,24.2224934 Z M8.18591072,24.9069356 L5.91259798,24.9069356 C5.55165469,24.9069356 5.27946491,24.6327979 5.27946491,24.2692716 L5.27946491,23.2643488 C5.27946491,22.9008224 5.55165469,22.6266847 5.91259798,22.6266847 L8.18591072,22.6266847 C8.54685401,22.6266847 8.8190438,22.9008224 8.8190438,23.2643488 L8.8190438,24.2692716 C8.8190438,24.6327979 8.54685401,24.9069356 8.18591072,24.9069356 L8.18591072,24.9069356 Z" id="Fill-11" fill="#FFFFFF"></path>
        <path d="M5.95885851,18.9024427 L8.13946491,18.9026293 L8.1396502,17.9910764 L5.95885851,17.9908897 L5.95885851,18.9024427 Z M8.18591072,19.586885 L5.91259798,19.586885 C5.55165469,19.586885 5.27946491,19.3127473 5.27946491,18.9492209 L5.27946491,17.9443604 C5.27946491,17.5807718 5.55165469,17.3066341 5.91259798,17.3066341 L8.18591072,17.3066341 C8.54685401,17.3066341 8.8190438,17.5807718 8.8190438,17.9443604 L8.8190438,18.9492209 C8.8190438,19.3127473 8.54685401,19.586885 8.18591072,19.586885 L8.18591072,19.586885 Z" id="Fill-13" fill="#FFFFFF"></path>
        <mask id="mask-2" fill="white">
            <use xlink:href="#path-1"></use>
        </mask>
        <g id="Clip-16"></g>
        <path d="M4.75013231,25.198018 L9.35296219,25.198018 L9.35296219,16.8973745 L4.75013231,16.8973745 L4.75013231,25.198018 Z M4.07073872,25.8822737 L10.0323558,25.8822737 L10.0323558,16.2131188 L4.07073872,16.2131188 L4.07073872,25.8822737 Z M17.7209296,25.198018 L18.156668,25.198018 L18.156668,12.0093629 L14.9748825,9.87299228 L11.7930969,12.0093629 L11.7930969,25.198018 L12.2288353,25.198018 L12.2288353,21.4023895 C12.2288353,19.9031853 13.4863928,18.6366281 14.9748825,18.6366281 C16.4890037,18.6366281 17.7209296,19.877308 17.7209296,21.4023895 L17.7209296,25.198018 Z M18.8360616,25.8822737 L17.041536,25.8822737 L17.041536,21.4023895 C17.041536,20.2545817 16.1144108,19.3208837 14.9748825,19.3208837 C13.8738942,19.3208837 12.9082289,20.2935221 12.9082289,21.4023895 L12.9082289,25.8822737 L11.1137033,25.8822737 L11.1137033,11.6431617 L14.9748825,9.05064136 L18.8360616,11.6431617 L18.8360616,25.8822737 Z M20.5968645,25.198018 L25.1996944,25.198018 L25.1996944,16.8973745 L20.5968645,16.8973745 L20.5968645,25.198018 Z M19.9174091,25.8822737 L25.8790262,25.8822737 L25.8790262,16.2131188 L19.9174091,16.2131188 L19.9174091,25.8822737 Z M3.55322608,13.1733441 C3.27807167,13.2152703 2.98939116,13.4190541 2.98939116,13.776982 L2.98939116,26.426879 C2.98939116,26.7118404 3.24706662,26.9713599 3.53006494,26.9713599 L26.4197,26.9713599 C26.7026983,26.9713599 26.9603738,26.7118404 26.9603738,26.426879 L26.9603738,13.776982 C26.9603738,13.6607207 26.9047252,13.509438 26.8030633,13.3480781 C26.7131362,13.2703218 26.5873249,13.2324389 26.4197,13.2324389 L19.9174709,13.2324389 L19.9174709,11.3534106 C19.9174709,11.1736379 19.8016652,11.0040669 19.6943827,10.9500729 L19.6559661,10.9274303 L15.515618,8.10649292 L15.515618,6.75521236 L18.7311879,6.75521236 C19.0141245,6.75521236 19.2717999,6.49569284 19.2717999,6.21066924 L19.2717999,4.20088589 C19.2717999,3.9159245 19.0141245,3.65634277 18.7311879,3.65634277 L15.5517494,3.65634277 L15.4742985,3.42245174 C15.406915,3.21879236 15.1922266,3.06520807 14.9748825,3.06520807 C14.6919459,3.06520807 14.4342087,3.32478979 14.4342087,3.60981338 L14.4342087,8.10879451 L10.2997898,10.8643544 C10.1223446,11.0005212 10.0323558,11.145148 10.0323558,11.2943157 L10.0323558,13.1733441 L3.55322608,13.1733441 Z M26.4197,27.6556156 L3.53006494,27.6556156 C2.86870615,27.6556156 2.30999756,27.0929086 2.30999756,26.426879 L2.30999756,13.776982 C2.30999756,13.1181682 2.80539902,12.5776062 3.48794253,12.491701 L3.53006494,12.4890884 L9.35296219,12.4890884 L9.35296219,11.2943157 C9.35296219,10.9213342 9.54201889,10.5814457 9.89968874,10.3112269 L9.91605595,10.2996568 L13.7548151,7.74103818 L13.7548151,3.60981338 C13.7548151,2.94372158 14.3135854,2.38095238 14.9748825,2.38095238 C15.4005534,2.38095238 15.7970105,2.61478121 16.01139,2.97208709 L18.7311879,2.97208709 C19.3924849,2.97208709 19.9511935,3.53485628 19.9511935,4.20088589 L19.9511935,6.21066924 C19.9511935,6.87676105 19.3924849,7.43946804 18.7311879,7.43946804 L16.1950116,7.43946804 L16.1950116,7.74327756 L20.0203681,10.3496075 C20.3609296,10.5331124 20.5968645,10.9419241 20.5968645,11.3534106 L20.5968645,12.5481832 L26.4197,12.5481832 C26.7857078,12.5481832 27.0837146,12.6614586 27.3055057,12.8847748 L27.3293462,12.9087859 L27.3479987,12.9369648 C27.5416259,13.2295152 27.6397674,13.5121128 27.6397674,13.776982 L27.6397674,26.426879 C27.6397674,27.0929086 27.0810588,27.6556156 26.4197,27.6556156 L26.4197,27.6556156 Z" id="Fill-15" stroke="#FFFFFF" stroke-width="0.2" fill="#FFFFFF" mask="url(#mask-2)"></path>
    </g>
</svg>