
<svg width="27px" height="33px" viewBox="330 110 27 33" version="1.1" xmlns="http://www.w3.org/2000/svg" xmlns:xlink="http://www.w3.org/1999/xlink">
    <!-- Generator: Sketch 3.8.3 (29802) - http://www.bohemiancoding.com/sketch -->
    <desc>Created with Sketch.</desc>
    <defs>
        <polygon id="path-1" points="13.2945925 25.3223412 26.1855492 25.3223412 26.1855492 0 0.403635823 6.18621476e-15 0.403635823 25.3223412"></polygon>
    </defs>
    <g id="APPLE" stroke="none" stroke-width="1" fill="none" fill-rule="evenodd" transform="translate(330.000000, 111.000000)">
        <g id="Group-3" transform="translate(0.000000, 5.558555)">
            <mask id="mask-2" fill="white">
                <use xlink:href="#path-1"></use>
            </mask>
            <g id="Clip-2"></g>
            <path d="M4.54015658,20.5077669 C5.87837139,22.4147021 7.23322809,24.1264413 9.08893987,24.1264413 C9.12391605,24.1264413 9.15898625,24.1257928 9.19490264,24.1244032 C10.0667684,24.0901258 10.6968097,23.825634 11.3059781,23.5700358 C11.989894,23.2828467 12.6972213,22.9859303 13.8066807,22.9859303 C14.8621714,22.9859303 15.5357448,23.273212 16.1871291,23.5509516 C16.8291112,23.8246149 17.4903677,24.1077277 18.4674441,24.0896626 C20.5577408,24.051309 21.8411408,22.2042203 22.9734474,20.5747468 C24.1550216,18.8733834 24.7477362,17.2214907 24.9477209,16.5902307 C24.9938857,16.4529358 24.9401051,16.3304635 24.8309456,16.2810856 C24.4456436,16.1255403 21.2167408,14.7141452 21.1827989,10.8672944 C21.1513015,7.74193667 23.6050871,6.08689409 24.0971981,5.78692052 C24.1734499,5.7390248 24.2105886,5.6853853 24.2231876,5.62405655 C24.2357865,5.56282044 24.2226234,5.499083 24.1868951,5.44757426 C22.4931832,3.00535581 19.8972364,2.63729065 18.852088,2.59300795 C18.7004306,2.57809265 18.543884,2.57058868 18.3866793,2.57058868 C17.1591283,2.57058868 15.9831954,3.02740452 15.0384626,3.39445063 C14.3863262,3.64782546 13.8230405,3.86664498 13.4345417,3.86664498 C12.9979976,3.86664498 12.4315152,3.64513886 11.7755239,3.38870685 C10.8982988,3.04565492 9.9040164,2.65693067 8.85144036,2.65693067 C8.82633649,2.65693067 8.80160871,2.6572086 8.77725702,2.65767181 C6.32986493,2.69315355 4.01730036,4.07277258 2.74236233,6.2576326 C0.318005631,10.402882 1.85921389,16.6935261 4.54015658,20.5077669 Z" id="Fill-1" stroke="#354052" stroke-width="1.5" mask="url(#mask-2)"></path>
        </g>
        <path d="M18.8542506,0.0118967549 C17.3721821,0.0713726763 15.5943205,0.970274337 14.5316841,2.19666413 C13.628603,3.22748746 12.7463948,4.94617484 12.9788171,6.67857317 C12.9933906,6.78696387 13.0828995,6.87061926 13.1935633,6.87904964 C13.2936027,6.8867389 13.3957106,6.89062985 13.4974424,6.89072249 C14.9466031,6.89072249 16.5099066,6.10076738 17.5775261,4.8287979 C18.7011828,3.48567966 19.2693576,1.76198964 19.0974854,0.218024364 C19.0839462,0.0970344057 18.975915,0.00717203212 18.8542506,0.0118967549" id="Fill-4" stroke="#354052" stroke-width="1.5"></path>
    </g>
</svg>