<svg version="1.1" id="Layer_1" xmlns="http://www.w3.org/2000/svg" x="0" y="0" viewBox="0 0 64 90" xml:space="preserve"><style type="text/css">.st0{fill:#fff}.st1{fill:#dae2e5}.st2{fill:#353b44}.st3{fill:#3c444f}.st4{fill:#e0e0e0}</style><path class="st0" d="M18.9 17.1l3.9 2 6.3 2.5 10.1 1.8H50.1l1.2 1.8.5 4.2.8 2-.4 11.7v4.3l-3.7 9.3-5.3 5-5.7 3.3-4.9 1.3-6.1-1.4-6.9-4.3-4.5-5-1.6-3.8-1.6-4.6v-5.9l-.3-9.5.7-.8.1-2 2.5-2.1 2.3-4 .7-4.2z"/><path class="st0" d="M52.6 31.8l2.5.1 2.2.8.5 3.9-1.4 6.7-2.9 3.2h-1.3zM26 64.6V70l1 3.2 2.4 1.9 3 .4 3.1-1.4 2.2-2.3-.2-6.8-4.6 1.2-3.8-.7z"/><path class="st1" d="M37.7 68.3v21.2h25.5V84l-2.7-7.2-4-4.8-6.5-3.4zM26 68.3v21.2H.4V84l2.8-7.2 4-4.8 6.5-3.4z"/><path class="st0" d="M37.7 71.8v17.7l-2.2-.3-2.2-8.6-.6-4.1-.3-1 2.7-.9 1.6-1.7zM26 71.8v17.7l2.2-.3 2.2-8.6.6-4.1.3-1-2.7-.9-1.6-1.7z"/><path id="Shape_34_2_" class="st1" d="M29.2 78.4l2.6-2.8 2.8 2.8-1.5 1.5 2.4 9.5h-7.4l2.6-9.5-1.5-1.5z"/><path id="Rounded_Rectangle_13_copy_3_2_" class="st2" d="M62.9 90H0l.3-5c.6-9.7 8.4-17.2 17.4-17.2h8.1v1h-7.6C9.6 68.9 2 76 1.5 85.4l-.2 3.5h61.4l-.1-3.5C62 76 54.5 68.9 45.8 68.9h-7.7v-1h8.2c9 0 16.8 7.4 17.4 17.2l.3 5h-1.1z"/><path id="neck_copy_7_2_" class="st2" d="M26.5 64.3v5.6c0 2.9 2.4 5.2 5.4 5.2s5.4-2.3 5.4-5.2v-5.5l.9-.3v5.8c0 3.4-2.8 6.2-6.3 6.2s-6.3-2.8-6.3-6.2v-6c.2.2.5.3.9.4z"/><path id="Rounded_Rectangle_2_2_" class="st2" d="M48.4 79.8l-2.6 5.3c-.1.3-.5.4-.7.3-.3-.1-.4-.5-.3-.7l2.5-5.2-2-3.3c-.2-.3-.1-.6.2-.7.3-.1.6-.1.8.2l2.1 3.6c.2.1.2.3 0 .5z"/><path id="Rounded_Rectangle_2_copy_3_2_" class="st2" d="M15.2 79.8l2.6 5.4c.1.3.5.4.7.3.3-.1.4-.5.3-.7l-2.5-5.2 2-3.4c.2-.3.1-.6-.2-.7-.3-.2-.6-.1-.8.2l-2.1 3.6c-.1.1-.1.4 0 .5z"/><path id="Rectangle_24_2_" class="st2" d="M25.5 67.7h1v22h-1v-22z"/><path id="Rectangle_24_copy_2_" class="st2" d="M37.2 67.9h1v22h-1v-22z"/><path id="Rectangle_24_copy_4_2_" class="st3" d="M35.2 89.6L32.6 80l.5-.2.4-.4 2.8 10.1-1.1.1zm-7.4-.1l2.7-9.9.2.1.6.4h.2l-2.6 9.4h-1.1z"/><path id="Ellipse_6_2_" class="st2" d="M38.1 81.1l-.7.7-2.8-2.7c-.5.8-1.5 1.4-2.6 1.4s-2.1-.6-2.6-1.5l-2.9 2.9-.7-.7 5.8-5.6.4-.4.4.4 5.7 5.5zm-8.2-2.6c.4.7 1.1 1.2 2 1.2.9 0 1.6-.5 2-1.2l-2-2-2 2z"/><path id="_x31__line_1_" class="st2" d="M53.5 30.4l-.7 16.3c-2 11.1-9.9 19-20.7 20.1-10.5-1.1-18.6-9.1-20.8-20.1l-.7-16.3c-.5-12 9-22.5 21.4-22.5s22 10.5 21.5 22.5zM32 9.1c-11.7 0-20.6 10-20.1 21.5l.6 15.6c2.1 10.6 9.7 18.3 19.6 19.3 10.1-1.1 17.6-8.7 19.4-19.3l.6-15.6C52.6 19.2 43.7 9.1 32 9.1z"/><path id="_x2D__1_" class="st2" d="M42.1 52c0 .2-.1.3-.2.4-1.7 1.4-5.5 2.7-9.8 2.7-4.3 0-8-1.3-9.7-2.6-.1-.1-.2-.3-.2-.4 0-.1 0-.3.1-.4.1-.1.2-.1.3-.2.2-.1.4 0 .6.1 1.7 1.4 4.7 2.5 9 2.5s7.3-1.1 9-2.5c.1-.1.2-.1.3-.1.1 0 .3 0 .4.1.2 0 .2.2.2.4z"/><path id="_x2D__x5F_1_1_" class="st2" d="M29.5 57.2h5c.3 0 .5.2.5.5 0 .2-.2.5-.5.5h-5c-.3 0-.5-.2-.5-.5.1-.3.3-.5.5-.5z"/><path id="Shape_11_copy_1_" class="st0" d="M10.7 32.3s-.2-.2-.7-.3c-.2-.1-.5-.1-.8-.1h-.4c-.2 0-.3 0-.5.1-.7.2-1.4.7-1.8 1.6-.2.5-.3 1.1-.4 1.8V36.7c0 .5.1 1 .2 1.5 0 0-.1 1.6.5 3.5.6 1.8 1.9 4.1 4.4 4.8-.1-4.7-.2-9.4-.5-14.2z"/><path id="Shape_3_1_" class="st2" d="M11 32.5s-4.4-1.3-4.2 3.1c0 0 .7 6.4.9 7 0 0 1.7 3.7 4.6 3.9v1.2s-5-.6-5.9-6.2l-.8-5.1s-.6-6.7 5.1-5l.3 1.1"/><path id="Shape_4_1_" class="st2" d="M9.6 41.4s-.2.2-.5.2-.5-.2-.5-.2L8.1 37s.6-2.2 3.3-1l.1 1.3s-2.3-.8-2.3.2c.1.8.4 3.9.4 3.9z"/><path id="Shape_3_x5F_1_1_" class="st2" d="M52.9 32.5s4.4-1.3 4.2 3.1c0 0-.7 6.4-.9 7 0 0-1.7 3.7-4.6 3.9v1.2s5-.6 6-6.2l.8-5.1s.6-6.7-5.2-5l-.3 1.1"/><path id="Shape_4_x5F_1_1_" class="st2" d="M54.4 41.4s.2.2.5.2.5-.2.5-.2l.5-4.4s-.6-2.2-3.3-1l-.1 1.3s2.3-.8 2.3.2c-.2.8-.4 3.9-.4 3.9z"/><path id="new_vector_shape_done_1_" class="st2" d="M33.9 41c.1 0 .3.1.3.2.6.9.8 2.2 1.2 3.3.1.4 0 1-.1 1.3-.4.9-1.5.9-2.4 1.4-.1 0-.2.1-.2.1-.3.2-.7.2-.9-.1-.1-.1-.1-.1-.1-.2-.2-.3.1-.5.3-.7.5-.2 1.9-.5 2-.9.2-.2.1-.9 0-1.2-.2-.6-.3-1.2-.5-1.7-.1-.1-.1-.3-.2-.4-.2-.4 0-.8.4-.9 0-.2.1-.2.2-.2z"/><path id="Rounded_Rectangle_8_1_" class="st2" d="M20.9 34.1h1.3c.7 0 1.3.6 1.3 1.3s-.6 1.3-1.3 1.3h-1.3c-.7 0-1.3-.6-1.3-1.3s.6-1.3 1.3-1.3z"/><path id="Rounded_Rectangle_8_copy_1_" class="st2" d="M42 34.1h1.3c.7 0 1.3.6 1.3 1.3s-.6 1.3-1.3 1.3H42c-.7 0-1.3-.6-1.3-1.3s.6-1.3 1.3-1.3z"/><path id="Ellipse_3_copy_1_" class="st4" d="M21.8 40c1.8 0 3.2.1 3.2 2.1s-1.4 2.1-3.2 2.1c-1.8 0-3.2-.4-3.2-2.1-.1-2 1.4-2.1 3.2-2.1z"/><path id="Ellipse_3_copy_2_1_" class="st4" d="M43.2 40c1.8 0 3.2.1 3.2 2.1s-1.4 2.1-3.2 2.1c-1.8 0-3.2-.4-3.2-2.1 0-2 1.4-2.1 3.2-2.1z"/><path id="R_copy_1_" class="st2" d="M37.9 30.9s5.4-3 9.4.2c.1.1.1.1.2.1.4.1.7-.4.4-.7-.9-1.2-3.5-3-10.2-.9-.2.1-.4.3-.3.6l.2.5m.3-.1s5.5-3.1 9.2.7c.1.1.2.1.3.1h.9c.4 0 .6-.5.3-.7-1.1-1.2-4.1-3.5-11.1-1.4-.3.1-.4.4-.2.7l.6.8"/><path id="R_copy_3_1_" class="st2" d="M26.1 30.9s-5.4-3-9.4.2c-.1.1-.1.1-.2.1-.4.1-.7-.4-.4-.7.9-1.2 3.5-2.9 10.1-.9.2.1.4.3.3.6l-.2.4m-.2 0s-5.5-3.1-9.2.7c-.1.1-.2.1-.3.1h-.9c-.4 0-.6-.5-.3-.7 1.1-1.2 4.1-3.4 11-1.3.3.1.4.4.2.7l-.6.8"/><path id="Shape_1_3_" class="st1" d="M12.4 29s5-2.5 5.4-10.7c.1-1 1.2-1.6 2.1-1 3.8 2.7 12.9 7.4 28.8 5.8 1.3-.1 2.4.8 2.6 2l.6 5.5c.1.6.8.7 1.1.2 2.6-5.8 9-24.2-11.8-29C17-3.8 16.7 11 16.7 11s-7.4-1.1-8 6c-.6 7.1 1.6 14.5 1.6 14.5.8.6 1.9.1 2-.9l.1-1.6z"/><path class="st2" d="M11.1 32.4c-.4 0-.8-.1-1.2-.4l-.2-.1-.1-.2c.1-.3-2.1-7.6-1.5-14.7.2-2.2 1-3.9 2.5-5.1 1.9-1.5 4.4-1.6 5.6-1.5.2-1.4 1-4.8 4.4-7.4C25-.3 32-.9 41.4 1.3c6.7 1.5 11.2 4.6 13.5 9.1 3.8 7.5.4 17-1.3 20.7-.2.5-.7.8-1.3.7-.5-.1-1-.5-1-1l-.6-5.5c-.1-.9-.9-1.6-1.9-1.5-15.9 1.6-25.1-3-29.2-5.9-.3-.2-.6-.1-.7-.1-.1.1-.4.2-.4.6-.4 7.3-4.3 10.3-5.5 11v1.3c0 .7-.5 1.3-1.1 1.6-.2.1-.5.1-.8.1zm-.2-1.3c.2.1.4 0 .4 0 .1 0 .3-.2.3-.5l.1-2 .3-.2c.2-.1 4.7-2.5 5.1-10.1 0-.7.5-1.3 1.1-1.6.7-.3 1.4-.2 2 .2 3.9 2.8 12.9 7.2 28.3 5.7 1.6-.2 3.1 1 3.3 2.6l.6 5.2c1.6-3.8 4.7-12.5 1.2-19.3-2.1-4.2-6.4-7-12.6-8.5C32 .5 25.4 1 21.3 4.1c-3.8 2.9-3.9 7-3.9 7.1v.7l-.7-.1s-3.1-.4-5.3 1.2c-1.2.9-1.9 2.3-2 4.2-.5 6.1 1.2 12.6 1.5 13.9z"/></svg>