<svg version="1.1" id="Layer_1" xmlns="http://www.w3.org/2000/svg" x="0" y="0" viewBox="0 0 56 48" xml:space="preserve"><style type="text/css">.st0{fill:none}</style><path class="st0" d="M3 44.5c0 .3.2.5.5.5h49c.3 0 .5-.2.5-.5V17H3v27.5zm31.9-21.4c-.6-.6-.6-1.5 0-2.1.6-.6 1.5-.6 2.1 0l8 8c.6.6.6 1.5 0 2.1l-8 8c-.3.3-.7.4-1.1.4s-.8-.1-1.1-.4c-.6-.6-.6-1.5 0-2.1l6.9-6.9-6.8-7zM23.6 36.4l6-14c.3-.8 1.2-1.1 2-.8.8.3 1.1 1.2.8 2l-6 14c-.2.6-.8.9-1.4.9-.2 0-.4 0-.6-.1-.8-.3-1.1-1.2-.8-2zm-12.7-7.5l8-8c.6-.6 1.5-.6 2.1 0 .6.6.6 1.5 0 2.1l-6.9 7 6.9 6.9c.6.6.6 1.5 0 2.1-.3.3-.7.4-1.1.4s-.8-.1-1.1-.4l-8-8c-.4-.5-.4-1.5.1-2.1zM52.5 3h-49c-.3 0-.5.2-.5.5V14h50V3.5c0-.3-.2-.5-.5-.5zM32 10c-1.1 0-2-.9-2-2s.9-2 2-2 2 .9 2 2-.9 2-2 2zm8 0c-1.1 0-2-.9-2-2s.9-2 2-2 2 .9 2 2-.9 2-2 2zm8 0c-1.1 0-2-.9-2-2s.9-2 2-2 2 .9 2 2-.9 2-2 2z"/><path d="M52.5 0h-49C1.6 0 0 1.6 0 3.5v41C0 46.4 1.6 48 3.5 48h49c1.9 0 3.5-1.6 3.5-3.5v-41C56 1.6 54.4 0 52.5 0zm.5 44.5c0 .3-.2.5-.5.5h-49c-.3 0-.5-.2-.5-.5V17h50v27.5zM3 14V3.5c0-.3.2-.5.5-.5h49c.3 0 .5.2.5.5V14H3z"/><circle cx="40" cy="8" r="2"/><circle cx="48" cy="8" r="2"/><circle cx="32" cy="8" r="2"/><path d="M18.9 39.1c.3.3.7.4 1.1.4s.8-.1 1.1-.4c.6-.6.6-1.5 0-2.1l-7-7 6.9-6.9c.6-.6.6-1.5 0-2.1-.6-.6-1.5-.6-2.1 0l-8 8c-.6.6-.6 1.5 0 2.1l8 8zM34.9 39.1c.3.3.7.4 1.1.4s.8-.1 1.1-.4l8-8c.6-.6.6-1.5 0-2.1l-8-8c-.6-.6-1.5-.6-2.1 0-.6.6-.6 1.5 0 2.1l6.9 6.9-6.9 6.9c-.6.6-.6 1.6-.1 2.2zM24.4 38.4c.2.1.4.1.6.1.6 0 1.1-.3 1.4-.9l6-14c.3-.8 0-1.6-.8-2-.8-.3-1.6 0-2 .8l-6 14c-.3.8 0 1.7.8 2z"/></svg>