<svg version="1.1" id="Social_Icons_Color" xmlns="http://www.w3.org/2000/svg" x="0" y="0" viewBox="0 0 12 12" xml:space="preserve"><path id="Google_x2B__1_" d="M6.3 9.6c0-.8-.9-1.8-1.7-2.1-.9-.3-2.7.3-3.1 1.2-1.3 2.8 4.8 3.7 4.8.9m-.8-6.2c0-1-.4-2.5-1.5-2.8-1.2-.4-1.9.7-1.9 1.7 0 .9.5 2.2 1.4 2.6 1.2.5 2-.4 2-1.5M4.5 0h3.2l-1 .6h-1c.9.6 1.3 1.8 1 2.8C6.4 4.3 4.9 5 5.2 6c.2.4.8.7 1.2 1 .4.3.7.7.8 1.2.3 1-.1 2.1-.9 2.8-1.4 1.2-4.7 1.5-5.9-.2-.7-.9-.3-2.2.6-2.9.9-.7 2.2-.8 3.2-.9-.5-.6-.4-1-.3-1.7C2.3 5.6.7 4.5.8 2.8.9.9 2.8 0 4.5 0M12 1.8v.9h-1.9v1.8h-.9V2.8H7.4v-1h1.8V0h.9v1.8H12z"/></svg>