<svg version="1.1" id="Layer_1" xmlns="http://www.w3.org/2000/svg" x="0" y="0" viewBox="0 0 28 48" xml:space="preserve"><style type="text/css">.st0{fill:none}</style><path class="st0" d="M3 12h22v24H3zM25 3H3v6h22V3zm-7 4h-8c-.6 0-1-.4-1-1s.4-1 1-1h8c.6 0 1 .4 1 1s-.4 1-1 1zM3 39v6h22v-6H3zm11 5c-1.1 0-2-.9-2-2s.9-2 2-2 2 .9 2 2-.9 2-2 2z"/><path d="M25.5 0h-23C1.1 0 0 1.1 0 2.5v43.1C0 46.9 1.1 48 2.5 48h23.1c1.4 0 2.5-1.1 2.5-2.5v-43C28 1.1 26.9 0 25.5 0zM3 3h22v6H3V3zm0 9h22v24H3V12zm0 33v-6h22v6H3z"/><path d="M18 5h-8c-.6 0-1 .4-1 1s.4 1 1 1h8c.6 0 1-.4 1-1s-.4-1-1-1z"/><circle cx="14" cy="42" r="2"/></svg>