<svg version="1.1" id="Layer_1" xmlns="http://www.w3.org/2000/svg" x="0" y="0" viewBox="0 0 64 90" xml:space="preserve"><style type="text/css">.st0{fill:#dae2e5}.st1{fill:#fff}.st2{fill:#353b44}.st3{fill:#3c444f}.st4{fill:#e0e0e0}</style><path class="st0" d="M.8 89.4h62.4v-5.1l-1.9-6.6-4.6-5.9-5.7-3.1-9.9-.8h-1.7v2.7l-.6 3-2.5 3.1-3.1 1.4-3.7.1-3.8-1.5-2.4-3-.9-3.4.3-2.4h-6.8l-3 1-5.6 3L2.6 78 .8 84.4z"/><path class="st0" d="M25 67.9l.4 3.1 1.3 2.2 2.7 2h3.2l3.2-2.4 1.2-3.1v-1.8h2.4v4.2l-2 3.8-2.5 1.4-3.7 1.3-3.3-.5-2.5-1.5-2.1-2.9-.8-3.1.2-2.7z"/><path class="st1" d="M25.4 64.7V71l2.4 3 3.3.8 2.8-.5 1.9-1.5 1.2-3.1v-5l-4.3.3h-4.9z"/><path id="Rounded_Rectangle_13_1_" class="st2" d="M62.9 90H0l.3-5.1C.9 75 8.7 67.5 17.7 67.5h6.8v1h-6.3C9.6 68.5 2 75.8 1.5 85.3l-.2 3.5h61.4l-.1-3.5c-.6-9.5-8.1-16.8-16.8-16.8h-8.4v-1h8.9c9 0 16.8 7.5 17.4 17.4L64 90h-1.1z"/><path id="Ellipse_4_1_" class="st3" d="M31 78.9c-5 0-9-4-9-8.9 0-.9.1-1.7.4-2.5H25v1h-1.9c-.1.5-.1 1-.1 1.5 0 4.4 3.6 8 8 8s8-3.6 8-8c0-.5 0-1-.1-1.5H37v-1h2.6c.2.8.4 1.6.4 2.5 0 4.9-4 8.9-9 8.9z"/><path id="neck_1_" class="st2" d="M25.7 63.9v5.7c0 2.9 2.4 5.3 5.4 5.3s5.4-2.4 5.4-5.3V64l.9-.3v5.9c0 3.5-2.8 6.3-6.3 6.3s-6.3-2.8-6.3-6.3v-6.1c.3.1.6.3.9.4z"/><path id="_x32__copy_5_1_" class="st1" d="M31.3 6.3c11.5 0 20.6 10.7 20.3 23.5l-.3 13.6C51 55.5 42.1 65 31.3 65s-19.7-9.6-20-21.6L11 29.8c-.2-12.9 8.8-23.5 20.3-23.5z"/><path id="_x32__line_1_" class="st2" d="M52.5 29.3l-.3 14.2C51.9 56.1 42.6 66 31.3 66s-20.6-9.9-20.9-22.5L10 29.3C9.7 16 19.2 4.9 31.3 4.9S52.9 16 52.5 29.3zm-21.3-23c-11.3 0-20.3 10.6-20 23.3l.3 13.5c.3 12 9.1 21.5 19.7 21.5s19.4-9.5 19.7-21.5l.3-13.5c.3-12.7-8.6-23.3-20-23.3z"/><path id="Rounded_Rectangle_3_1_" class="st2" d="M29.1 57.8h4.4c.2 0 .4.1.4.3 0 .2-.1.4-.4.4h-4.4c-.2 0-.4-.1-.4-.3 0-.2.1-.4.4-.4z"/><path id="_x32__1_" class="st2" d="M25.5 53c.1-.2.4-.2.6-.1 1.6.8 3.4 1.3 5.4 1.3 2 0 3.9-.5 5.5-1.3.2-.1.4 0 .6.1.2.2.1.5-.2.6-1.7.9-3.7 1.4-5.8 1.4-2.1 0-4.1-.5-5.8-1.4-.4-.1-.5-.4-.3-.6z"/><path id="Shape_11_copy_2_" class="st1" d="M10 31.4s-.2-.2-.7-.3c-.2-.1-.4-.1-.7-.1h-.4c-.2 0-.3 0-.5.1-.7.2-1.4.7-1.8 1.6-.2.5-.3 1.1-.4 1.9V35.9c0 .5.1 1 .2 1.5 0 0-.1 1.7.5 3.6.6 1.9 1.9 4.2 4.4 4.8-.3-4.7-.3-9.6-.6-14.4z"/><path id="Shape_3_2_" class="st2" d="M10.3 31.6s-4.4-1.3-4.2 3.1c0 0 .7 6.5.9 7.1 0 0 1.7 3.8 4.6 3.9v1.2s-5-.6-5.9-6.3l-.8-5.2s-.6-6.9 5.1-5.1l.3 1.3"/><path id="Shape_4_2_" class="st2" d="M8.8 40.6s-.2.2-.5.2-.5-.2-.5-.2l-.5-4.5s.6-2.2 3.3-1l.1 1.3s-2.3-.8-2.3.2c.2.9.4 4 .4 4z"/><path id="Shape_11_copy_x5F_1_1_" class="st1" d="M52.5 31.4s.2-.2.7-.3c.2-.1.5-.1.8-.1h.4c.2 0 .3 0 .5.1.7.2 1.4.7 1.8 1.6.2.5.3 1.1.4 1.9V35.9c0 .5-.1 1-.2 1.5 0 0 .1 1.7-.5 3.6-.6 1.9-1.9 4.2-4.5 4.8.3-4.7.3-9.6.6-14.4z"/><path id="Shape_3_x5F_1_2_" class="st2" d="M52.2 31.6s4.4-1.3 4.2 3.1c0 0-.7 6.5-.9 7.1 0 0-1.7 3.8-4.6 3.9v1.2s5-.6 6-6.3l.8-5.2s.6-6.8-5.2-5.1l-.3 1.3"/><path id="Shape_4_x5F_1_2_" class="st2" d="M53.6 40.6s.2.2.5.2.5-.2.5-.2l.5-4.5s-.6-2.2-3.3-1l-.1 1.3s2.3-.8 2.3.2c-.1.9-.4 4-.4 4z"/><path id="new_vector_shape_done_2_" class="st2" d="M33.1 40.2c.1 0 .3.1.3.2.6.9.8 2.2 1.2 3.3.1.4 0 1-.1 1.3-.4 1-1.5.9-2.4 1.4-.1 0-.2.1-.2.1-.3.2-.7.2-.9-.1-.1-.1-.1-.1-.1-.2-.2-.3.1-.6.3-.7.5-.2 1.9-.5 2-.9.2-.2.1-.9 0-1.2-.2-.6-.3-1.2-.5-1.7-.1-.1-.1-.3-.2-.4-.2-.4 0-.8.4-1 .1-.1.1-.1.2-.1z"/><path id="Rounded_Rectangle_9_1_" class="st3" d="M19.5 33.7h3.3c.5 0 .8.4.8 1 0 .5-.4 1-.8 1h-3.3c-.5 0-.8-.4-.8-1 0-.5.4-1 .8-1z"/><path id="Rounded_Rectangle_9_copy_1_" class="st3" d="M39.9 33.5h3.3c.5 0 .8.4.8 1 0 .5-.4 1-.8 1h-3.3c-.5 0-.8-.4-.8-1 0-.5.3-1 .8-1z"/><path id="Ellipse_3_1_" class="st4" d="M42.5 39.2c1.3 0 2.3 1 2.3 2.3 0 1.3-1 2.3-2.3 2.3-1.3 0-2.3-1-2.3-2.3 0-1.3 1-2.3 2.3-2.3z"/><path id="Ellipse_3_copy_2_" class="st4" d="M20.1 39.2c1.3 0 2.3 1 2.3 2.3 0 1.3-1 2.3-2.3 2.3-1.3 0-2.3-1-2.3-2.3 0-1.3 1-2.3 2.3-2.3z"/><path id="Shape_1_copy_5_1_" class="st2" d="M49.8 30.8v6.8c0 1.7-1.6 4.3-4.3 4.4h-8.3c-3.5 0-4.3-4.2-4.3-4.2v-4.6h-3.3v4.6s-.7 4.2-4.3 4.2H17c-2.7-.1-4.3-2.7-4.3-4.4v-6.8h-3V29H27s2.6.4 2.6 2.2H33c0-1.8 2.6-2.2 2.6-2.2h17.2v1.8h-3zm-22 .9c0-.7-.8-.7-.8-.7H14.6v6.4c0 2 2.8 2.8 2.8 2.8H25c2.6 0 2.8-2.8 2.8-2.8v-5.7zm20.1-.7H35.5s-.7.1-.7.7v5.7s.2 2.8 2.8 2.8h7.6s2.8-.8 2.8-2.8V31zm-2.6 11h0zm-28.2 0h.1-.1z"/><path id="fill_copy_2_" class="st0" d="M11.2 27.9c.2-3 1.1-7.7 4.6-10.7 0 0 12.9 12.6 30.3 0 0 0 5 5 5.7 10.9.1.7 1 1 1.4.4 2.6-3.4 7.3-10.9 1-12.6 0 0-2 .6-2.8-2.4-.8-3-2.2-12.6-21.3-12.9S12.4 12 12.4 12c.1 0-9.4 4.6-2.7 16.2.4.7 1.4.5 1.5-.3z"/><path class="st2" d="M52.6 29.5c-.1 0-.3 0-.4-.1-.6-.2-1-.6-1.1-1.2-.5-4.7-4-8.9-5.1-10.1-9 6.3-16.8 5.9-21.8 4.5-4.4-1.3-7.3-3.5-8.4-4.5-1.5 1.4-3.6 4.4-3.9 9.9 0 .6-.5 1.2-1.1 1.3-.6.1-1.3-.1-1.6-.7-2.7-4.8-3.2-9-1.4-12.5.9-1.7 2.3-3.2 4-4.3 0-1.1.2-4.1 2.6-6.8 3.1-3.3 8.4-5 15.8-4.9C48.9.4 51.2 9.6 52 13c0 .2.1.3.1.4.2.9.6 1.5 1.1 1.8.5.3.9.2.9.2l.2-.1.2.1c1.7.5 2.9 1.4 3.3 2.8.6 1.7.4 5-4 10.8-.4.2-.8.5-1.2.5zm-6.4-13.2l.4.4c.2.2 5.2 5.2 5.9 11.3 0 .1 0 .1.1.1s.1 0 .1-.1c3.1-4.1 4.5-7.6 3.8-9.6-.3-.9-1.1-1.5-2.3-1.9-.3.1-1 .1-1.7-.3-.8-.5-1.4-1.3-1.7-2.6 0-.1-.1-.3-.1-.4-.4-1.7-1.1-4.5-3.9-7-3.4-3.1-9-4.8-16.7-4.9-7-.1-12 1.4-14.8 4.4-2.2 2.4-2.3 5-2.3 5.9v.4c0 .4-.3.5-.4.6-7.6 4.6-3.7 12.9-2.3 15.3 0 0 0 .1.2.1.1 0 .1-.1.1-.1.2-3.4 1.2-8.1 4.8-11.2l.5-.4.4.4s3.2 3.1 8.4 4.6c6.9 2 14 .4 21.1-4.6l.4-.4z"/></svg>