<?xml version="1.0" encoding="utf-8"?>
<!-- Generator: Adobe Illustrator 19.2.1, SVG Export Plug-In . SVG Version: 6.00 Build 0)  -->
<svg version="1.1" id="Layer_1" xmlns="http://www.w3.org/2000/svg" xmlns:xlink="http://www.w3.org/1999/xlink" x="0px" y="0px"
	 viewBox="0 0 64 90" style="enable-background:new 0 0 64 90;" xml:space="preserve">
<style type="text/css">
	.st0{fill:#F6ECDF;}
	.st1{fill:#DAE2E5;}
	.st2{fill:#FFFFFF;}
	.st3{fill:#FACE3F;}
	.st4{fill:#353B44;}
	.st5{fill:#3C444F;}
	.st6{fill:#E8C9B9;}
</style>
<g>
	<polygon class="st0" points="18.9,17.1 22.8,19.1 29.1,21.6 39.2,23.4 45.3,23.4 50.1,23.4 51.3,25.2 51.8,29.4 52.6,31.4 
		52.2,43.1 52.2,47.4 48.5,56.7 43.2,61.7 37.5,65 32.6,66.3 26.5,64.9 19.6,60.6 15.1,55.6 13.5,51.8 11.9,47.2 11.9,41.3 
		11.6,31.8 12.3,31 12.4,29 14.9,26.9 17.2,22.9 17.9,18.7 	"/>
	<polygon class="st0" points="52.6,31.8 55.1,31.9 57.3,32.7 57.8,36.6 56.4,43.3 53.5,46.5 52.2,46.5 	"/>
	<polygon class="st0" points="26,64.6 26,70 27,73.2 29.4,75.1 32.4,75.5 35.5,74.1 37.7,71.8 37.5,65 32.9,66.2 29.1,65.5 	"/>
	<polygon class="st1" points="37.7,68.3 37.7,89.5 63.2,89.5 63.2,84 60.5,76.8 56.5,72 50,68.6 	"/>
	<polygon class="st1" points="26,68.3 26,89.5 0.4,89.5 0.4,84 3.2,76.8 7.2,72 13.7,68.6 	"/>
	<polygon class="st2" points="37.7,71.8 37.7,89.5 35.5,89.2 33.3,80.6 32.7,76.5 32.4,75.5 35.1,74.6 36.7,72.9 	"/>
	<polygon class="st2" points="26,71.8 26,89.5 28.2,89.2 30.4,80.6 31,76.5 31.3,75.5 28.6,74.6 27,72.9 	"/>
	<g>
		<path id="Shape_34_1_" class="st3" d="M29.2,78.4l2.6-2.8l2.8,2.8l-1.5,1.5l2.4,9.5h-7.4l2.6-9.5L29.2,78.4z"/>
		<path class="st4" d="M35.9,89.8h-8.2l2.7-9.8l-1.6-1.6l3-3.2l3.3,3.2L33.5,80L35.9,89.8z M28.5,89.1h6.5l-2.3-9.3l1.4-1.4
			l-2.3-2.3l-2.2,2.3l1.4,1.4L28.5,89.1z"/>
	</g>
	<path id="Rounded_Rectangle_13_copy_3_1_" class="st4" d="M62.9,90L62.9,90H1.2l0,0H0l0.3-5c0.6-9.7,8.4-17.2,17.4-17.2h8.1v1h-7.6
		C9.6,68.9,2,76,1.5,85.4l-0.2,3.5h61.4l-0.1-3.5C62,76,54.5,68.9,45.8,68.9h-7.7v-1h8.2c9,0,16.8,7.4,17.4,17.2l0.3,5H62.9z"/>
	<path id="neck_copy_7_1_" class="st4" d="M26.5,64.3v5.6c0,2.9,2.4,5.2,5.4,5.2s5.4-2.3,5.4-5.2v-5.5c0.3-0.1,0.6-0.2,0.9-0.3v5.8
		c0,3.4-2.8,6.2-6.3,6.2s-6.3-2.8-6.3-6.2v-6C25.8,64.1,26.1,64.2,26.5,64.3z"/>
	<path id="Rounded_Rectangle_2_1_" class="st4" d="M48.4,79.8l-2.6,5.3c-0.1,0.3-0.5,0.4-0.7,0.3c-0.3-0.1-0.4-0.5-0.3-0.7l2.5-5.2
		l-2-3.3c-0.2-0.3-0.1-0.6,0.2-0.7c0.3-0.1,0.6-0.1,0.8,0.2l2.1,3.6C48.6,79.4,48.6,79.6,48.4,79.8z"/>
	<path id="Rounded_Rectangle_2_copy_3_1_" class="st4" d="M15.2,79.8l2.6,5.4c0.1,0.3,0.5,0.4,0.7,0.3c0.3-0.1,0.4-0.5,0.3-0.7
		l-2.5-5.2l2-3.4c0.2-0.3,0.1-0.6-0.2-0.7c-0.3-0.2-0.6-0.1-0.8,0.2l-2.1,3.6C15.1,79.4,15.1,79.7,15.2,79.8z"/>
	<path id="Rectangle_24_1_" class="st4" d="M25.5,67.7h1v22h-1V67.7z"/>
	<path id="Rectangle_24_copy_1_" class="st4" d="M37.2,67.9h1v22h-1V67.9z"/>
	<path id="Rectangle_24_copy_4_1_" class="st5" d="M35.2,89.6L32.6,80l0.5-0.2l0.4-0.4l2.8,10.1L35.2,89.6z M27.8,89.5l2.7-9.9
		l0.2,0.1l0.6,0.4l0.2,0l-2.6,9.4L27.8,89.5z"/>
	<path id="Ellipse_6_1_" class="st4" d="M38.1,81.1l-0.7,0.7l-2.8-2.7c-0.5,0.8-1.5,1.4-2.6,1.4c-1.1,0-2.1-0.6-2.6-1.5l-2.9,2.9
		l-0.7-0.7l5.8-5.6l0.4-0.4l0.4,0.4L38.1,81.1z M29.9,78.5c0.4,0.7,1.1,1.2,2,1.2c0.9,0,1.6-0.5,2-1.2l-2-2L29.9,78.5z"/>
	<path id="_x31__line_1_" class="st4" d="M53.5,30.4l-0.7,16.3c-2,11.1-9.9,19-20.7,20.1c-10.5-1.1-18.6-9.1-20.8-20.1l-0.7-16.3
		c-0.5-12,9-22.5,21.4-22.5S54,18.4,53.5,30.4z M32,9.1c-11.7,0-20.6,10-20.1,21.5l0.6,15.6c2.1,10.6,9.7,18.3,19.6,19.3
		c10.1-1.1,17.6-8.7,19.4-19.3l0.6-15.6C52.6,19.2,43.7,9.1,32,9.1z"/>
	<path id="_x2D__1_" class="st4" d="M42.1,52c0,0.2-0.1,0.3-0.2,0.4c-1.7,1.4-5.5,2.7-9.8,2.7c-4.3,0-8-1.3-9.7-2.6
		c-0.1-0.1-0.2-0.3-0.2-0.4c0-0.1,0-0.3,0.1-0.4c0.1-0.1,0.2-0.1,0.3-0.2c0.2-0.1,0.4,0,0.6,0.1c1.7,1.4,4.7,2.5,9,2.5
		c4.3,0,7.3-1.1,9-2.5c0.1-0.1,0.2-0.1,0.3-0.1c0.1,0,0.3,0,0.4,0.1C42.1,51.6,42.1,51.8,42.1,52z"/>
	<path id="_x2D__x5F_1_1_" class="st4" d="M29.5,57.2h5c0.3,0,0.5,0.2,0.5,0.5v0c0,0.2-0.2,0.5-0.5,0.5h-5c-0.3,0-0.5-0.2-0.5-0.5v0
		C29.1,57.4,29.3,57.2,29.5,57.2z"/>
	<path id="Shape_11_copy_1_" class="st0" d="M10.7,32.3c0,0-0.2-0.2-0.7-0.3c-0.2-0.1-0.5-0.1-0.8-0.1c-0.1,0-0.2,0-0.2,0
		c-0.1,0-0.2,0-0.2,0c-0.2,0-0.3,0-0.5,0.1c-0.7,0.2-1.4,0.7-1.8,1.6c-0.2,0.5-0.3,1.1-0.4,1.8c0,0.2,0,0.4,0,0.6c0,0.2,0,0.4,0,0.7
		c0,0.5,0.1,1,0.2,1.5c0,0-0.1,1.6,0.5,3.5c0.6,1.8,1.9,4.1,4.4,4.8C11.1,41.8,11,37.1,10.7,32.3L10.7,32.3z"/>
	<path id="Shape_3_1_" class="st4" d="M11,32.5c0,0-4.4-1.3-4.2,3.1c0,0,0.7,6.4,0.9,7c0,0,1.7,3.7,4.6,3.9l0,0l0,1.2
		c0,0-5-0.6-5.9-6.2l-0.8-5.1c0,0-0.6-6.7,5.1-5l0,0L11,32.5"/>
	<path id="Shape_4_1_" class="st4" d="M9.6,41.4c0,0-0.2,0.2-0.5,0.2s-0.5-0.2-0.5-0.2l-0.5-4.4c0,0,0.6-2.2,3.3-1l0.1,1.3
		c0,0-2.3-0.8-2.3,0.2C9.3,38.3,9.6,41.4,9.6,41.4z"/>
	<path id="Shape_3_x5F_1_1_" class="st4" d="M52.9,32.5c0,0,4.4-1.3,4.2,3.1c0,0-0.7,6.4-0.9,7c0,0-1.7,3.7-4.6,3.9l0,0l0,1.2
		c0,0,5-0.6,6-6.2l0.8-5.1c0,0,0.6-6.7-5.2-5l0,0L52.9,32.5"/>
	<path id="Shape_4_x5F_1_1_" class="st4" d="M54.4,41.4c0,0,0.2,0.2,0.5,0.2s0.5-0.2,0.5-0.2l0.5-4.4c0,0-0.6-2.2-3.3-1l-0.1,1.3
		c0,0,2.3-0.8,2.3,0.2C54.6,38.3,54.4,41.4,54.4,41.4z"/>
	<path id="new_vector_shape_done_1_" class="st4" d="M33.9,41L33.9,41c0.1,0,0.3,0.1,0.3,0.2c0.6,0.9,0.8,2.2,1.2,3.3
		c0.1,0.4,0,1-0.1,1.3c-0.4,0.9-1.5,0.9-2.4,1.4c-0.1,0-0.2,0.1-0.2,0.1c-0.3,0.2-0.7,0.2-0.9-0.1c-0.1-0.1-0.1-0.1-0.1-0.2
		c-0.2-0.3,0.1-0.5,0.3-0.7c0.5-0.2,1.9-0.5,2-0.9c0.2-0.2,0.1-0.9,0-1.2c-0.2-0.6-0.3-1.2-0.5-1.7c-0.1-0.1-0.1-0.3-0.2-0.4
		c-0.2-0.4,0-0.8,0.4-0.9c0,0,0,0,0,0C33.7,41,33.8,41,33.9,41z"/>
	<path id="Rounded_Rectangle_8_1_" class="st4" d="M20.9,34.1h1.3c0.7,0,1.3,0.6,1.3,1.3s-0.6,1.3-1.3,1.3h-1.3
		c-0.7,0-1.3-0.6-1.3-1.3S20.2,34.1,20.9,34.1z"/>
	<path id="Rounded_Rectangle_8_copy_1_" class="st4" d="M42,34.1h1.3c0.7,0,1.3,0.6,1.3,1.3s-0.6,1.3-1.3,1.3H42
		c-0.7,0-1.3-0.6-1.3-1.3S41.3,34.1,42,34.1z"/>
	<path id="Ellipse_3_copy_1_" class="st6" d="M21.8,40c1.8,0,3.2,0.1,3.2,2.1c0,2-1.4,2.1-3.2,2.1c-1.8,0-3.2-0.4-3.2-2.1
		C18.5,40.1,20,40,21.8,40z"/>
	<path id="Ellipse_3_copy_2_1_" class="st6" d="M43.2,40c1.8,0,3.2,0.1,3.2,2.1c0,2-1.4,2.1-3.2,2.1c-1.8,0-3.2-0.4-3.2-2.1
		C40,40.1,41.4,40,43.2,40z"/>
	<path id="R_copy_1_" class="st4" d="M37.9,30.9c0,0,5.4-3,9.4,0.2c0.1,0.1,0.1,0.1,0.2,0.1l0,0c0.4,0.1,0.7-0.4,0.4-0.7
		c-0.9-1.2-3.5-3-10.2-0.9c-0.2,0.1-0.4,0.3-0.3,0.6l0.2,0.5 M37.9,30.6c0,0,5.5-3.1,9.2,0.7c0.1,0.1,0.2,0.1,0.3,0.1l0.9,0
		c0.4,0,0.6-0.5,0.3-0.7c-1.1-1.2-4.1-3.5-11.1-1.4c-0.3,0.1-0.4,0.4-0.2,0.7l0.6,0.8"/>
	<path id="R_copy_3_1_" class="st4" d="M26.1,30.9c0,0-5.4-3-9.4,0.2c-0.1,0.1-0.1,0.1-0.2,0.1h0c-0.4,0.1-0.7-0.4-0.4-0.7
		c0.9-1.2,3.5-2.9,10.1-0.9c0.2,0.1,0.4,0.3,0.3,0.6l-0.2,0.4 M26.1,30.6c0,0-5.5-3.1-9.2,0.7c-0.1,0.1-0.2,0.1-0.3,0.1l-0.9,0
		c-0.4,0-0.6-0.5-0.3-0.7c1.1-1.2,4.1-3.4,11-1.3c0.3,0.1,0.4,0.4,0.2,0.7l-0.6,0.8"/>
	<g>
		<path id="Shape_1_1_" class="st3" d="M12.4,29c0,0,5-2.5,5.4-10.7c0.1-1,1.2-1.6,2.1-1c3.8,2.7,12.9,7.4,28.8,5.8
			c1.3-0.1,2.4,0.8,2.6,2l0.6,5.5c0.1,0.6,0.8,0.7,1.1,0.2c2.6-5.8,9-24.2-11.8-29c-24.2-5.6-24.5,9.2-24.5,9.2s-7.4-1.1-8,6
			c-0.6,7.1,1.6,14.5,1.6,14.5l0,0c0.8,0.6,1.9,0.1,2-0.9L12.4,29z"/>
		<path class="st4" d="M11.1,32.4c-0.4,0-0.8-0.1-1.2-0.4l-0.2-0.1l-0.1-0.2C9.7,31.4,7.5,24.1,8.1,17c0.2-2.2,1-3.9,2.5-5.1
			c1.9-1.5,4.4-1.6,5.6-1.5c0.2-1.4,1-4.8,4.4-7.4C25-0.3,32-0.9,41.4,1.3c6.7,1.5,11.2,4.6,13.5,9.1c3.8,7.5,0.4,17-1.3,20.7
			c-0.2,0.5-0.7,0.8-1.3,0.7c-0.5-0.1-1-0.5-1-1l-0.6-5.5c-0.1-0.9-0.9-1.6-1.9-1.5c-15.9,1.6-25.1-3-29.2-5.9
			c-0.3-0.2-0.6-0.1-0.7-0.1c-0.1,0.1-0.4,0.2-0.4,0.6c-0.4,7.3-4.3,10.3-5.5,11L13,30.7c0,0.7-0.5,1.3-1.1,1.6
			C11.7,32.4,11.4,32.4,11.1,32.4z M10.9,31.1c0.2,0.1,0.4,0,0.4,0c0.1,0,0.3-0.2,0.3-0.5l0.1-2l0.3-0.2c0.2-0.1,4.7-2.5,5.1-10.1
			c0-0.7,0.5-1.3,1.1-1.6c0.7-0.3,1.4-0.2,2,0.2c3.9,2.8,12.9,7.2,28.3,5.7c1.6-0.2,3.1,1,3.3,2.6l0.6,5.2
			c1.6-3.8,4.7-12.5,1.2-19.3c-2.1-4.2-6.4-7-12.6-8.5c-9-2.1-15.6-1.6-19.7,1.5c-3.8,2.9-3.9,7-3.9,7.1l0,0.7l-0.7-0.1
			c0,0-3.1-0.4-5.3,1.2c-1.2,0.9-1.9,2.3-2,4.2C8.9,23.3,10.6,29.8,10.9,31.1z"/>
	</g>
</g>
</svg>
