<?xml version="1.0" encoding="utf-8"?>
<!-- Generator: Adobe Illustrator 19.2.0, SVG Export Plug-In . SVG Version: 6.00 Build 0)  -->
<svg version="1.1" id="Layer_1" xmlns="http://www.w3.org/2000/svg" xmlns:xlink="http://www.w3.org/1999/xlink" x="0px" y="0px"
	 viewBox="0 0 28 48" style="enable-background:new 0 0 28 48;" xml:space="preserve">
<style type="text/css">
	.st0{fill:none;}
</style>
<g>
	<polygon class="st0" points="15,6.2 15,15 22.6,15 	"/>
	<path class="st0" d="M12,16.5V3H3v42h22V18H13.5C12.7,18,12,17.3,12,16.5z"/>
	<path d="M27.3,15.7L14.4,1.1C13.8,0.4,13,0,12.1,0H2.5C1.1,0,0,1.1,0,2.5v43.1C0,46.9,1.1,48,2.5,48h23.1c1.4,0,2.5-1.1,2.5-2.5
		V17.8C28.1,17,27.8,16.3,27.3,15.7z M15,6.2l7.6,8.8H15V6.2z M25,45H3V3h9v13.5c0,0.8,0.7,1.5,1.5,1.5H25V45z"/>
</g>
</svg>
