<?xml version="1.0" encoding="utf-8"?>
<!-- Generator: Adobe Illustrator 19.2.0, SVG Export Plug-In . SVG Version: 6.00 Build 0)  -->
<svg version="1.1" id="Layer_1" xmlns="http://www.w3.org/2000/svg" xmlns:xlink="http://www.w3.org/1999/xlink" x="0px" y="0px"
	 viewBox="0 0 56 48" style="enable-background:new 0 0 56 48;" xml:space="preserve">
<style type="text/css">
	.st0{fill:none;}
</style>
<g>
	<path class="st0" d="M3,44.5C3,44.8,3.2,45,3.5,45h49c0.3,0,0.5-0.2,0.5-0.5V17H3V44.5z M34.9,23.1c-0.6-0.6-0.6-1.5,0-2.1
		c0.6-0.6,1.5-0.6,2.1,0l8,8c0.6,0.6,0.6,1.5,0,2.1l-8,8c-0.3,0.3-0.7,0.4-1.1,0.4s-0.8-0.1-1.1-0.4c-0.6-0.6-0.6-1.5,0-2.1l6.9-6.9
		L34.9,23.1z M23.6,36.4l6-14c0.3-0.8,1.2-1.1,2-0.8c0.8,0.3,1.1,1.2,0.8,2l-6,14c-0.2,0.6-0.8,0.9-1.4,0.9c-0.2,0-0.4,0-0.6-0.1
		C23.6,38.1,23.3,37.2,23.6,36.4z M10.9,28.9l8-8c0.6-0.6,1.5-0.6,2.1,0c0.6,0.6,0.6,1.5,0,2.1L14.1,30l6.9,6.9
		c0.6,0.6,0.6,1.5,0,2.1c-0.3,0.3-0.7,0.4-1.1,0.4s-0.8-0.1-1.1-0.4l-8-8C10.4,30.5,10.4,29.5,10.9,28.9z"/>
	<path class="st0" d="M52.5,3h-49C3.2,3,3,3.2,3,3.5V14h50V3.5C53,3.2,52.8,3,52.5,3z M32,10c-1.1,0-2-0.9-2-2s0.9-2,2-2s2,0.9,2,2
		S33.1,10,32,10z M40,10c-1.1,0-2-0.9-2-2s0.9-2,2-2s2,0.9,2,2S41.1,10,40,10z M48,10c-1.1,0-2-0.9-2-2s0.9-2,2-2s2,0.9,2,2
		S49.1,10,48,10z"/>
	<path d="M52.5,0h-49C1.6,0,0,1.6,0,3.5V14v3v27.5C0,46.4,1.6,48,3.5,48h49c1.9,0,3.5-1.6,3.5-3.5V17v-3V3.5C56,1.6,54.4,0,52.5,0z
		 M53,44.5c0,0.3-0.2,0.5-0.5,0.5h-49C3.2,45,3,44.8,3,44.5V17h50V44.5z M3,14V3.5C3,3.2,3.2,3,3.5,3h49C52.8,3,53,3.2,53,3.5V14H3z
		"/>
	<circle cx="40" cy="8" r="2"/>
	<circle cx="48" cy="8" r="2"/>
	<circle cx="32" cy="8" r="2"/>
	<path d="M18.9,39.1c0.3,0.3,0.7,0.4,1.1,0.4s0.8-0.1,1.1-0.4c0.6-0.6,0.6-1.5,0-2.1L14.1,30l6.9-6.9c0.6-0.6,0.6-1.5,0-2.1
		c-0.6-0.6-1.5-0.6-2.1,0l-8,8c-0.6,0.6-0.6,1.5,0,2.1L18.9,39.1z"/>
	<path d="M34.9,39.1c0.3,0.3,0.7,0.4,1.1,0.4s0.8-0.1,1.1-0.4l8-8c0.6-0.6,0.6-1.5,0-2.1l-8-8c-0.6-0.6-1.5-0.6-2.1,0
		c-0.6,0.6-0.6,1.5,0,2.1l6.9,6.9l-6.9,6.9C34.4,37.5,34.4,38.5,34.9,39.1z"/>
	<path d="M24.4,38.4c0.2,0.1,0.4,0.1,0.6,0.1c0.6,0,1.1-0.3,1.4-0.9l6-14c0.3-0.8,0-1.6-0.8-2c-0.8-0.3-1.6,0-2,0.8l-6,14
		C23.3,37.2,23.6,38.1,24.4,38.4z"/>
</g>
</svg>
