<?xml version="1.0" encoding="utf-8"?>
<!-- Generator: Adobe Illustrator 19.2.0, SVG Export Plug-In . SVG Version: 6.00 Build 0)  -->
<svg version="1.1" id="Social_Icons_Color" xmlns="http://www.w3.org/2000/svg" xmlns:xlink="http://www.w3.org/1999/xlink" x="0px"
	 y="0px" viewBox="0 0 12 12" style="enable-background:new 0 0 12 12;" xml:space="preserve">
<path id="Google_x2B__1_" d="M6.3,9.6c0-0.8-0.9-1.8-1.7-2.1C3.7,7.2,1.9,7.8,1.5,8.7C0.2,11.5,6.3,12.4,6.3,9.6 M5.5,3.4
	c0-1-0.4-2.5-1.5-2.8C2.8,0.2,2.1,1.3,2.1,2.3c0,0.9,0.5,2.2,1.4,2.6C4.7,5.4,5.5,4.5,5.5,3.4 M4.5,0h3.2l-1,0.6c-0.3,0-0.7,0-1,0
	c0.9,0.6,1.3,1.8,1,2.8C6.4,4.3,4.9,5,5.2,6C5.4,6.4,6,6.7,6.4,7c0.4,0.3,0.7,0.7,0.8,1.2c0.3,1-0.1,2.1-0.9,2.8
	c-1.4,1.2-4.7,1.5-5.9-0.2C-0.3,9.9,0.1,8.6,1,7.9c0.9-0.7,2.2-0.8,3.2-0.9c-0.5-0.6-0.4-1-0.3-1.7C2.3,5.6,0.7,4.5,0.8,2.8
	C0.9,0.9,2.8,0,4.5,0 M12,1.8v0.9h-1.9v1.8H9.2V2.8H7.4V1.8h1.8V0h0.9c0,0.3,0,1.8,0,1.8S11.7,1.8,12,1.8z"/>
</svg>
