<?xml version="1.0" encoding="utf-8"?>
<!-- Generator: Adobe Illustrator 19.2.1, SVG Export Plug-In . SVG Version: 6.00 Build 0)  -->
<svg version="1.1" id="Layer_1" xmlns="http://www.w3.org/2000/svg" xmlns:xlink="http://www.w3.org/1999/xlink" x="0px" y="0px"
	 viewBox="0 0 64 90" style="enable-background:new 0 0 64 90;" xml:space="preserve">
<style type="text/css">
	.st0{fill:#DAE2E5;}
	.st1{fill:#FACE3F;}
	.st2{fill:#F6ECDF;}
	.st3{fill:#353B44;}
	.st4{fill:#3C444F;}
	.st5{fill:#E8C9B9;}
</style>
<g>
	<polygon class="st0" points="0.8,89.4 63.2,89.4 63.2,84.3 61.3,77.7 56.7,71.8 51,68.7 41.1,67.9 39.4,67.9 39.4,70.6 38.8,73.6 
		36.3,76.7 33.2,78.1 29.5,78.2 25.7,76.7 23.3,73.7 22.4,70.3 22.7,67.9 15.9,67.9 12.9,68.9 7.3,71.9 2.6,78 0.8,84.4 	"/>
	<polygon class="st1" points="25,67.9 25.4,71 26.7,73.2 29.4,75.2 32.6,75.2 35.8,72.8 37,69.7 37,67.9 39.4,67.9 39.4,72.1 
		37.4,75.9 34.9,77.3 31.2,78.6 27.9,78.1 25.4,76.6 23.3,73.7 22.5,70.6 22.7,67.9 	"/>
	<polygon class="st2" points="25.4,64.7 25.4,71 27.8,74 31.1,74.8 33.9,74.3 35.8,72.8 37,69.7 37,64.7 32.7,65 27.8,65 	"/>
	<path id="Rounded_Rectangle_13_6_" class="st3" d="M62.9,90L62.9,90H1.2l0,0H0l0.3-5.1C0.9,75,8.7,67.5,17.7,67.5h6.8v1h-6.3
		C9.6,68.5,2,75.8,1.5,85.3l-0.2,3.5h61.4l-0.1-3.5c-0.6-9.5-8.1-16.8-16.8-16.8h-8.4v-1h8.9c9,0,16.8,7.5,17.4,17.4L64,90H62.9z"/>
	<path id="Ellipse_4_6_" class="st4" d="M31,78.9c-5,0-9-4-9-8.9c0-0.9,0.1-1.7,0.4-2.5h0h1H25v1h-1.9C23,69,23,69.5,23,70
		c0,4.4,3.6,8,8,8c4.4,0,8-3.6,8-8c0-0.5,0-1-0.1-1.5H37v-1h1.6h1h0c0.2,0.8,0.4,1.6,0.4,2.5C40,74.9,36,78.9,31,78.9z"/>
	<path id="neck_6_" class="st3" d="M25.7,63.9v5.7c0,2.9,2.4,5.3,5.4,5.3s5.4-2.4,5.4-5.3V64c0.3-0.1,0.6-0.2,0.9-0.3v5.9
		c0,3.5-2.8,6.3-6.3,6.3s-6.3-2.8-6.3-6.3v-6.1C25.1,63.6,25.4,63.8,25.7,63.9z"/>
	<path id="_x32__copy_5_13_" class="st2" d="M31.3,6.3c11.5,0,20.6,10.7,20.3,23.5l-0.3,13.6C51,55.5,42.1,65,31.3,65
		s-19.7-9.6-20-21.6L11,29.8C10.8,16.9,19.8,6.3,31.3,6.3z"/>
	<path id="_x32__line_13_" class="st3" d="M52.5,29.3l-0.3,14.2C51.9,56.1,42.6,66,31.3,66s-20.6-9.9-20.9-22.5L10,29.3
		C9.7,16,19.2,4.9,31.3,4.9S52.9,16,52.5,29.3z M31.2,6.3c-11.3,0-20.3,10.6-20,23.3l0.3,13.5c0.3,12,9.1,21.5,19.7,21.5
		s19.4-9.5,19.7-21.5l0.3-13.5C51.5,16.9,42.6,6.3,31.2,6.3z"/>
	<path id="Rounded_Rectangle_3_6_" class="st3" d="M29.1,57.8h4.4c0.2,0,0.4,0.1,0.4,0.3c0,0.2-0.1,0.4-0.4,0.4h-4.4
		c-0.2,0-0.4-0.1-0.4-0.3C28.7,58,28.8,57.8,29.1,57.8z"/>
	<path id="_x32__6_" class="st3" d="M25.5,53L25.5,53c0.1-0.2,0.4-0.2,0.6-0.1c1.6,0.8,3.4,1.3,5.4,1.3c2,0,3.9-0.5,5.5-1.3
		c0.2-0.1,0.4,0,0.6,0.1l0,0c0.2,0.2,0.1,0.5-0.2,0.6c-1.7,0.9-3.7,1.4-5.8,1.4c-2.1,0-4.1-0.5-5.8-1.4C25.4,53.5,25.3,53.2,25.5,53
		z"/>
	<path id="Shape_11_copy_20_" class="st2" d="M10,31.4c0,0-0.2-0.2-0.7-0.3C9.1,31,8.9,31,8.6,31c-0.1,0-0.2,0-0.2,0
		c-0.1,0-0.2,0-0.2,0c-0.2,0-0.3,0-0.5,0.1c-0.7,0.2-1.4,0.7-1.8,1.6c-0.2,0.5-0.3,1.1-0.4,1.9c0,0.2,0,0.4,0,0.6c0,0.2,0,0.4,0,0.7
		c0,0.5,0.1,1,0.2,1.5c0,0-0.1,1.7,0.5,3.6c0.6,1.9,1.9,4.2,4.4,4.8C10.3,41.1,10.3,36.2,10,31.4L10,31.4z"/>
	<path id="Shape_3_20_" class="st3" d="M10.3,31.6c0,0-4.4-1.3-4.2,3.1c0,0,0.7,6.5,0.9,7.1c0,0,1.7,3.8,4.6,3.9l0,0l0,1.2
		c0,0-5-0.6-5.9-6.3l-0.8-5.2c0,0-0.6-6.9,5.1-5.1l0,0L10.3,31.6"/>
	<path id="Shape_4_20_" class="st3" d="M8.8,40.6c0,0-0.2,0.2-0.5,0.2s-0.5-0.2-0.5-0.2l-0.5-4.5c0,0,0.6-2.2,3.3-1l0.1,1.3
		c0,0-2.3-0.8-2.3,0.2C8.6,37.5,8.8,40.6,8.8,40.6z"/>
	<path id="Shape_11_copy_x5F_1_18_" class="st2" d="M52.5,31.4c0,0,0.2-0.2,0.7-0.3c0.2-0.1,0.5-0.1,0.8-0.1c0.1,0,0.2,0,0.2,0
		c0.1,0,0.2,0,0.2,0c0.2,0,0.3,0,0.5,0.1c0.7,0.2,1.4,0.7,1.8,1.6c0.2,0.5,0.3,1.1,0.4,1.9c0,0.2,0,0.4,0,0.6c0,0.2,0,0.4,0,0.7
		c0,0.5-0.1,1-0.2,1.5c0,0,0.1,1.7-0.5,3.6c-0.6,1.9-1.9,4.2-4.5,4.8C52.2,41.1,52.2,36.2,52.5,31.4L52.5,31.4z"/>
	<path id="Shape_3_x5F_1_20_" class="st3" d="M52.2,31.6c0,0,4.4-1.3,4.2,3.1c0,0-0.7,6.5-0.9,7.1c0,0-1.7,3.8-4.6,3.9l0,0l0,1.2
		c0,0,5-0.6,6-6.3l0.8-5.2c0,0,0.6-6.8-5.2-5.1l0,0L52.2,31.6"/>
	<path id="Shape_4_x5F_1_20_" class="st3" d="M53.6,40.6c0,0,0.2,0.2,0.5,0.2s0.5-0.2,0.5-0.2l0.5-4.5c0,0-0.6-2.2-3.3-1l-0.1,1.3
		c0,0,2.3-0.8,2.3,0.2C53.9,37.5,53.6,40.6,53.6,40.6z"/>
	<path id="new_vector_shape_done_20_" class="st3" d="M33.1,40.2L33.1,40.2c0.1,0,0.3,0.1,0.3,0.2c0.6,0.9,0.8,2.2,1.2,3.3
		c0.1,0.4,0,1-0.1,1.3c-0.4,1-1.5,0.9-2.4,1.4c-0.1,0-0.2,0.1-0.2,0.1c-0.3,0.2-0.7,0.2-0.9-0.1c-0.1-0.1-0.1-0.1-0.1-0.2
		c-0.2-0.3,0.1-0.6,0.3-0.7c0.5-0.2,1.9-0.5,2-0.9c0.2-0.2,0.1-0.9,0-1.2c-0.2-0.6-0.3-1.2-0.5-1.7c-0.1-0.1-0.1-0.3-0.2-0.4
		c-0.2-0.4,0-0.8,0.4-1c0,0,0,0,0,0C33,40.2,33,40.2,33.1,40.2z"/>
	<path id="Rounded_Rectangle_9_2_" class="st4" d="M19.5,33.7h3.3c0.5,0,0.8,0.4,0.8,1c0,0.5-0.4,1-0.8,1h-3.3c-0.5,0-0.8-0.4-0.8-1
		C18.7,34.2,19.1,33.7,19.5,33.7z"/>
	<path id="Rounded_Rectangle_9_copy_2_" class="st4" d="M39.9,33.5h3.3c0.5,0,0.8,0.4,0.8,1c0,0.5-0.4,1-0.8,1h-3.3
		c-0.5,0-0.8-0.4-0.8-1C39.1,34,39.4,33.5,39.9,33.5z"/>
	<path id="Ellipse_3_11_" class="st5" d="M42.5,39.2c1.3,0,2.3,1,2.3,2.3c0,1.3-1,2.3-2.3,2.3c-1.3,0-2.3-1-2.3-2.3
		C40.2,40.2,41.2,39.2,42.5,39.2z"/>
	<path id="Ellipse_3_copy_18_" class="st5" d="M20.1,39.2c1.3,0,2.3,1,2.3,2.3c0,1.3-1,2.3-2.3,2.3c-1.3,0-2.3-1-2.3-2.3
		C17.8,40.2,18.8,39.2,20.1,39.2z"/>
	<path id="Shape_1_copy_5_5_" class="st3" d="M49.8,30.8v6.8c0,1.7-1.6,4.3-4.3,4.4c-0.4,0-8.3,0-8.3,0c-3.5,0-4.3-4.2-4.3-4.2v-4.6
		h-3.3v4.6c0,0-0.7,4.2-4.3,4.2c0,0-7.9,0-8.3,0c-2.7-0.1-4.3-2.7-4.3-4.4v-6.8h-3v-1.8H27c0,0,2.6,0.4,2.6,2.2H33
		c0-1.8,2.6-2.2,2.6-2.2h17.2v1.8H49.8z M27.8,31.7C27.8,31,27,31,27,31H14.6v6.4c0,2,2.8,2.8,2.8,2.8H25c2.6,0,2.8-2.8,2.8-2.8
		S27.8,32.3,27.8,31.7z M47.9,31H35.5c0,0-0.7,0.1-0.7,0.7c0,0.7,0,5.7,0,5.7s0.2,2.8,2.8,2.8h7.6c0,0,2.8-0.8,2.8-2.8V31z M45.3,42
		c0.1,0,0.1,0,0.1,0C45.5,42,45.5,42,45.3,42z M17.1,42c0,0,0.1,0,0.1,0C17.1,42,17,42,17.1,42z"/>
	<g>
		<path id="fill_copy_3_" class="st1" d="M11.2,27.9c0.2-3,1.1-7.7,4.6-10.7c0,0,12.9,12.6,30.3,0c0,0,5,5,5.7,10.9
			c0.1,0.7,1,1,1.4,0.4c2.6-3.4,7.3-10.9,1-12.6c0,0-2,0.6-2.8-2.4c-0.8-3-2.2-12.6-21.3-12.9S12.4,12,12.4,12
			c0.1,0-9.4,4.6-2.7,16.2C10.1,28.9,11.1,28.7,11.2,27.9z"/>
		<path class="st3" d="M52.6,29.5c-0.1,0-0.3,0-0.4-0.1c-0.6-0.2-1-0.6-1.1-1.2c-0.5-4.7-4-8.9-5.1-10.1c-9,6.3-16.8,5.9-21.8,4.5
			c-4.4-1.3-7.3-3.5-8.4-4.5c-1.5,1.4-3.6,4.4-3.9,9.9v0c0,0.6-0.5,1.2-1.1,1.3c-0.6,0.1-1.3-0.1-1.6-0.7c-2.7-4.8-3.2-9-1.4-12.5
			c0.9-1.7,2.3-3.2,4-4.3c0-1.1,0.2-4.1,2.6-6.8c3.1-3.3,8.4-5,15.8-4.9c18.7,0.3,21,9.5,21.8,12.9c0,0.2,0.1,0.3,0.1,0.4
			c0.2,0.9,0.6,1.5,1.1,1.8c0.4,0.3,0.9,0.2,0.9,0.2l0.2-0.1l0.2,0c1.7,0.5,2.9,1.4,3.3,2.8c0.6,1.7,0.4,5-4,10.8
			C53.4,29.2,53,29.5,52.6,29.5z M46.2,16.3l0.4,0.4c0.2,0.2,5.2,5.2,5.9,11.3c0,0.1,0,0.1,0.1,0.1c0.1,0,0.1,0,0.1-0.1
			c3.1-4.1,4.5-7.6,3.8-9.6c-0.3-0.9-1.1-1.5-2.3-1.9c-0.3,0.1-1,0.1-1.7-0.3c-0.8-0.5-1.4-1.3-1.7-2.6c0-0.1-0.1-0.3-0.1-0.4
			c-0.4-1.7-1.1-4.5-3.9-7c-3.4-3.1-9-4.8-16.7-4.9c-7-0.1-12,1.4-14.8,4.5c-2.2,2.4-2.3,5-2.3,5.9l0,0l0,0.4c0,0.4-0.3,0.5-0.4,0.6
			C5,17.2,8.9,25.5,10.3,27.9c0,0,0.1,0.1,0.2,0.1c0.1,0,0.1-0.1,0.1-0.1v0c0.2-3.4,1.2-8.1,4.8-11.2l0.5-0.4l0.4,0.4
			c0,0,3.2,3.1,8.4,4.6c6.9,2,14,0.4,21.1-4.6L46.2,16.3z"/>
	</g>
	<path id="line_3_" class="st3" d="M51.8,30.1c-0.6-6-4.4-10.6-5.5-11.8c-0.2-0.2-0.4-0.2-0.6-0.1C30,28.8,18.2,20,16.1,18.3
		c-0.2-0.2-0.5-0.2-0.6,0c-2.9,2.6-3.9,8.9-4.2,11.6c0,0.4-0.6,0.6-0.9,0.2C2.1,18.6,10.1,13,11.5,12c0.1-0.1,0.2-0.2,0.2-0.4
		c0-1.8,0.6-11.9,18-11.6C49.7,0.3,51.2,9.9,52,13.2c0.6,2.3,2.5,2.3,2.9,2.2c0.1,0,0.2,0,0.2,0c6.9,2.8,0,12-2.5,14.9
		C52.4,30.7,51.9,30.5,51.8,30.1z M54,16.5c-0.1,0-0.1,0-0.2,0c-0.4,0.1-2.3,0.2-3.1-3c-0.7-3-1.5-11.9-20.6-12.2
		C12.9,1,12.8,10.4,12.9,12.2c0,0.2-0.1,0.4-0.2,0.4c-1.4,0.9-7.9,5.2-3.1,14.3c0.2,0.4,0.9,0.3,0.9-0.2c0.2-2.4,1.2-6.8,4.7-10.1
		c0.2-0.2,0.5-0.2,0.7,0c2,1.9,13.7,11.4,30,0c0.2-0.1,0.5-0.1,0.6,0.1c1.1,1.1,4.9,5.4,5.8,10.6c0.1,0.4,0.6,0.6,0.9,0.2
		C55.1,24.9,59.6,17.8,54,16.5z"/>
</g>
</svg>
