<?xml version="1.0" encoding="utf-8"?>
<!-- Generator: Adobe Illustrator 19.2.0, SVG Export Plug-In . SVG Version: 6.00 Build 0)  -->
<svg version="1.1" id="Social_Icons_Color" xmlns="http://www.w3.org/2000/svg" xmlns:xlink="http://www.w3.org/1999/xlink" x="0px"
	 y="0px" viewBox="0 0 12 9" style="enable-background:new 0 0 12 9;" xml:space="preserve">
<path id="Twitter_2_" d="M12,1.1c-0.4,0.2-0.9,0.3-1.4,0.4c0.5-0.3,0.9-0.7,1.1-1.3c-0.5,0.3-1,0.4-1.6,0.6C9.7,0.3,9,0,8.3,0
	C6.9,0,5.8,1,5.8,2.3c0,0.2,0,0.4,0.1,0.5c-2-0.1-3.9-1-5.1-2.4C0.6,0.8,0.5,1.1,0.5,1.6c0,0.8,0.4,1.5,1.1,1.9
	c-0.4,0-0.8-0.1-1.1-0.3c0,0,0,0,0,0c0,1.1,0.8,2,2,2.2C2.3,5.5,2,5.5,1.8,5.5c-0.2,0-0.3,0-0.5,0C1.7,6.4,2.6,7,3.6,7
	C2.8,7.6,1.7,8,0.6,8C0.4,8,0.2,8,0,8c1.1,0.6,2.4,1,3.8,1c4.5,0,7-3.5,7-6.5c0-0.1,0-0.2,0-0.3C11.3,1.9,11.7,1.5,12,1.1z"/>
</svg>
