
<svg width="23px" height="23px" viewBox="34 0 23 23" version="1.1" xmlns="http://www.w3.org/2000/svg" xmlns:xlink="http://www.w3.org/1999/xlink">
    <!-- Generator: Sketch 3.8.3 (29802) - http://www.bohemiancoding.com/sketch -->
    <desc>Created with Sketch.</desc>
    <defs></defs>
    <g id="Edit" stroke="none" stroke-width="1" fill="none" fill-rule="evenodd" transform="translate(35.968056, 1.383459)">
        <path d="M19.2491111,11.7894737 L17.0662222,11.7894737 L17.0000741,11.7894737 L16.967,11.8568421 C16.967,11.8905263 16.9339259,11.9242105 16.9339259,11.9578947 C16.7685556,12.5642105 16.537037,13.1705263 16.2062963,13.7094737 C16.1732222,13.7768421 16.1401481,13.8442105 16.1401481,13.9115789 C16.1401481,14.0126316 16.2062963,14.08 16.2724444,14.1473684 C16.7354815,14.6189474 17.2315926,15.0905263 17.6946296,15.5621053 L15.3132963,17.9873684 C15.3132963,17.9536842 15.2802222,17.9536842 15.2471481,17.92 L13.858037,16.5052632 C13.824963,16.4378947 13.7588148,16.4042105 13.6926667,16.4042105 C13.6265185,16.4042105 13.5934444,16.4378947 13.5272963,16.4378947 C12.965037,16.7747368 12.4027778,17.0105263 11.7743704,17.1789474 C11.7082222,17.1789474 11.6420741,17.2126316 11.609,17.28 C11.5759259,17.3473684 11.5759259,17.3810526 11.5759259,17.4484211 L11.5759259,18.4589474 L11.5759259,19.4357895 L11.5759259,19.5368421 L9.92222222,19.5368421 L9.88914815,19.5368421 L9.85607407,19.5368421 L8.20237037,19.5368421 L8.20237037,19.4357895 L8.20237037,18.4589474 L8.20237037,17.4484211 C8.20237037,17.3810526 8.20237037,17.3473684 8.1692963,17.28 C8.13622222,17.2126316 8.07007407,17.1789474 8.00392593,17.1789474 C7.37551852,17.0105263 6.81325926,16.7747368 6.251,16.4378947 C6.21792593,16.4042105 6.15177778,16.4042105 6.08562963,16.4042105 C6.01948148,16.4042105 5.95333333,16.4378947 5.88718519,16.5052632 C5.42414815,16.9768421 4.96111111,17.4484211 4.49807407,17.92 C4.465,17.9536842 4.465,17.9536842 4.43192593,17.9873684 C3.63814815,17.1789474 2.84437037,16.3705263 2.05059259,15.5621053 C2.51362963,15.0905263 2.97666667,14.6189474 3.47277778,14.1473684 C3.53892593,14.08 3.60507407,14.0126316 3.60507407,13.9115789 C3.60507407,13.8442105 3.572,13.7768421 3.53892593,13.7094737 C3.20818519,13.1705263 2.97666667,12.5642105 2.8112963,11.9578947 C2.8112963,11.9242105 2.77822222,11.8905263 2.77822222,11.8568421 L2.74514815,11.7894737 L2.679,11.7894737 L0.496111111,11.7894737 L0.496111111,8.42105263 L2.679,8.42105263 L2.74514815,8.42105263 L2.77822222,8.35368421 C2.87744444,8.08421053 2.91051852,7.81473684 3.00974074,7.61263158 C3.17511111,7.20842105 3.37355556,6.80421053 3.572,6.43368421 C3.60507407,6.4 3.60507407,6.33263158 3.60507407,6.29894737 C3.60507407,6.23157895 3.572,6.16421053 3.50585185,6.13052632 L2.11674074,4.71578947 L2.05059259,4.64842105 L4.39885185,2.25684211 L5.06033333,2.93052632 L5.85411111,3.73894737 C5.88718519,3.77263158 5.95333333,3.84 6.01948148,3.84 C6.08562963,3.84 6.1187037,3.80631579 6.15177778,3.80631579 C6.71403704,3.46947368 7.30937037,3.2 7.93777778,3.06526316 C8.00392593,3.06526316 8.07007407,2.99789474 8.10314815,2.96421053 C8.13622222,2.89684211 8.13622222,2.86315789 8.13622222,2.79578947 L8.13622222,1.71789474 L8.13622222,0.808421053 L8.13622222,0.707368421 L8.23544444,0.707368421 L9.823,0.707368421 L9.85607407,0.707368421 L9.88914815,0.707368421 L11.4767037,0.707368421 L11.5759259,0.707368421 L11.5759259,0.808421053 L11.5759259,1.71789474 L11.5759259,2.42526316 L11.5759259,2.79578947 C11.5759259,2.82947368 11.5759259,2.89684211 11.609,2.96421053 C11.6420741,3.03157895 11.7082222,3.06526316 11.7743704,3.06526316 C12.4027778,3.23368421 12.9981111,3.50315789 13.5603704,3.80631579 C13.5934444,3.84 13.6595926,3.84 13.6926667,3.84 C13.7588148,3.84 13.824963,3.80631579 13.858037,3.73894737 C14.1226296,3.46947368 14.3872222,3.2 14.6518148,2.93052632 C14.8833333,2.69473684 15.1148519,2.45894737 15.3132963,2.25684211 C16.1070741,3.06526316 16.8677778,3.84 17.6615556,4.64842105 C17.6284815,4.64842105 17.6284815,4.68210526 17.5954074,4.71578947 C17.1323704,5.18736842 16.6693333,5.65894737 16.2062963,6.13052632 C16.1732222,6.16421053 16.1070741,6.23157895 16.1070741,6.29894737 C16.1070741,6.33263158 16.1401481,6.4 16.1401481,6.43368421 C16.3385926,6.83789474 16.503963,7.20842105 16.7024074,7.61263158 C16.8016296,7.84842105 16.8677778,8.08421053 16.9339259,8.35368421 L16.967,8.42105263 L17.0331481,8.42105263 L19.216037,8.42105263 C19.2491111,9.53263158 19.2491111,10.6442105 19.2491111,11.7894737 L19.2491111,11.7894737 Z M19.8444444,8.38736842 C19.8444444,8.18526316 19.8113704,8.01684211 19.6790741,7.91578947 C19.5798519,7.81473684 19.4144815,7.74736842 19.182963,7.74736842 L19.0506667,7.74736842 L18.4222593,7.74736842 L17.4631111,7.74736842 L17.396963,7.74736842 L17.3638889,7.71368421 C17.1654444,7.24210526 17.0000741,6.77052632 16.8347037,6.29894737 C16.8677778,6.26526316 16.9339259,6.23157895 16.967,6.19789474 C17.3308148,5.82736842 17.7277037,5.45684211 18.0915185,5.05263158 C18.2238148,4.91789474 18.323037,4.74947368 18.323037,4.58105263 C18.323037,4.41263158 18.2568889,4.27789474 18.1245926,4.14315789 C17.3638889,3.33473684 16.5701111,2.56 15.8094074,1.75157895 C15.644037,1.58315789 15.5117407,1.51578947 15.3463704,1.51578947 C15.181,1.51578947 15.0487037,1.61684211 14.8833333,1.75157895 C14.4864444,2.15578947 14.0895556,2.56 13.6595926,2.96421053 C13.6265185,2.99789474 13.5934444,2.99789474 13.5934444,2.99789474 C13.5934444,2.99789474 13.5603704,2.99789474 13.5272963,2.96421053 C13.1304074,2.79578947 12.7004444,2.62736842 12.3035556,2.45894737 C12.2704815,2.42526316 12.2374074,2.42526316 12.2374074,2.42526316 L12.2374074,2.35789474 L12.2374074,1.48210526 L12.2374074,0.606315789 C12.2374074,0.404210526 12.2043333,0.269473684 12.072037,0.168421053 C11.9728148,0.0673684211 11.8074444,0 11.6420741,0 L9.9552963,0 L9.92222222,0 L9.88914815,0 L8.20237037,0 C8.00392593,0 7.87162963,0.0336842105 7.77240741,0.168421053 C7.67318519,0.269473684 7.60703704,0.437894737 7.60703704,0.606315789 L7.60703704,1.48210526 L7.60703704,2.35789474 L7.60703704,2.42526316 C7.60703704,2.42526316 7.57396296,2.45894737 7.54088889,2.45894737 C7.144,2.62736842 6.71403704,2.79578947 6.31714815,2.96421053 C6.28407407,2.96421053 6.251,2.99789474 6.251,2.99789474 C6.251,2.99789474 6.21792593,2.99789474 6.18485185,2.96421053 C5.78796296,2.56 5.39107407,2.15578947 4.96111111,1.75157895 C4.79574074,1.58315789 4.66344444,1.51578947 4.49807407,1.51578947 C4.3327037,1.51578947 4.20040741,1.61684211 4.03503704,1.75157895 C3.27433333,2.56 2.48055556,3.33473684 1.71985185,4.14315789 C1.58755556,4.27789474 1.52140741,4.44631579 1.52140741,4.58105263 C1.52140741,4.74947368 1.58755556,4.88421053 1.75292593,5.05263158 C2.11674074,5.42315789 2.48055556,5.82736842 2.87744444,6.19789474 C2.91051852,6.23157895 2.97666667,6.26526316 3.00974074,6.29894737 C2.84437037,6.77052632 2.64592593,7.24210526 2.48055556,7.71368421 L2.44748148,7.74736842 L2.38133333,7.74736842 L1.42218519,7.74736842 L0.793777778,7.74736842 L0.661481481,7.74736842 C0.463037037,7.74736842 0.297666667,7.78105263 0.16537037,7.91578947 C0.0661481481,8.01684211 0,8.18526316 0,8.38736842 L0,9.97052632 L0,11.7221053 C0,11.9578947 0.0330740741,12.1263158 0.16537037,12.2273684 C0.264592593,12.3284211 0.463037037,12.3957895 0.661481481,12.3957895 L0.826851852,12.3957895 L1.38911111,12.3957895 L2.31518519,12.3957895 L2.38133333,12.4294737 L2.41440741,12.4631579 C2.57977778,12.9010526 2.77822222,13.3726316 2.97666667,13.9115789 C2.57977778,14.3157895 2.11674074,14.72 1.68677778,15.1578947 C1.55448148,15.2926316 1.48833333,15.4273684 1.48833333,15.5957895 C1.48833333,15.7642105 1.55448148,15.8989474 1.68677778,16.0336842 C2.48055556,16.8421053 3.27433333,17.6505263 4.06811111,18.4589474 C4.20040741,18.5936842 4.36577778,18.6947368 4.49807407,18.6947368 C4.66344444,18.6947368 4.79574074,18.5936842 4.96111111,18.4589474 C5.358,18.0547368 5.78796296,17.6168421 6.18485185,17.2126316 C6.21792593,17.1789474 6.251,17.1789474 6.251,17.1789474 C6.251,17.1789474 6.28407407,17.1789474 6.31714815,17.2126316 C6.71403704,17.3810526 7.11092593,17.5494737 7.54088889,17.7178947 C7.57396296,17.7515789 7.60703704,17.7515789 7.60703704,17.7515789 L7.60703704,17.8189474 L7.60703704,18.6610526 L7.60703704,19.5368421 C7.60703704,19.7389474 7.64011111,19.9073684 7.77240741,20.0084211 C7.87162963,20.1094737 8.037,20.1768421 8.23544444,20.1768421 L9.88914815,20.1768421 L9.92222222,20.1768421 L9.9552963,20.1768421 L11.609,20.1768421 C11.8074444,20.1768421 11.9728148,20.1431579 12.072037,20.0084211 C12.1712593,19.9073684 12.2374074,19.7389474 12.2374074,19.5368421 L12.2374074,18.6610526 L12.2374074,17.8189474 L12.2374074,17.7515789 C12.2374074,17.7515789 12.2704815,17.7178947 12.3035556,17.7178947 C12.7004444,17.5494737 13.1304074,17.3810526 13.5272963,17.2126316 C13.5603704,17.2126316 13.5934444,17.1789474 13.5934444,17.1789474 C13.5934444,17.1789474 13.6265185,17.1789474 13.6595926,17.2126316 L14.8833333,18.4589474 C15.0156296,18.5936842 15.181,18.6947368 15.3463704,18.6947368 C15.5117407,18.6947368 15.644037,18.5936842 15.7763333,18.4589474 L18.1576667,16.0336842 C18.289963,15.8989474 18.3561111,15.7642105 18.3561111,15.5957895 C18.3561111,15.4273684 18.289963,15.2926316 18.1576667,15.1578947 C17.7277037,14.72 17.2646667,14.3157895 16.8677778,13.9115789 C17.0662222,13.3726316 17.2315926,12.9010526 17.430037,12.4631579 L17.4631111,12.4294737 L17.5292593,12.3957895 L18.4553333,12.3957895 L19.0175926,12.3957895 L19.182963,12.3957895 C19.4144815,12.3957895 19.5798519,12.3621053 19.6790741,12.2273684 C19.7782963,12.0926316 19.8444444,11.9242105 19.8444444,11.7221053 L19.8444444,9.97052632 L19.8444444,8.38736842 Z" id="Fill-1" stroke="#5B5C59" stroke-width="0.4" fill="#5B5C59"></path>
        <path d="M9.9552963,14.5515789 L9.9552963,14.5515789 C9.92222222,14.5515789 9.92222222,14.5515789 9.9552963,14.5515789 L9.92222222,14.5515789 C7.54088889,14.5515789 5.55644444,12.5305263 5.55644444,10.1052632 L5.55644444,10.0715789 C5.55644444,7.61263158 7.54088889,5.62526316 9.92222222,5.62526316 L9.9552963,5.62526316 L9.98837037,5.62526316 C12.3697037,5.62526316 14.3541481,7.61263158 14.3541481,10.0715789 L14.3541481,10.1052632 C14.3210741,12.5305263 12.3366296,14.5515789 9.9552963,14.5515789 M9.9552963,4.98526316 L9.9552963,4.98526316 C9.92222222,4.98526316 9.92222222,4.98526316 9.9552963,4.98526316 L9.92222222,4.98526316 C7.17707407,4.98526316 4.92803704,7.27578947 4.89496296,10.0715789 L4.89496296,10.1052632 C4.89496296,12.9010526 7.144,15.1915789 9.88914815,15.1915789 L9.92222222,15.1915789 L9.9552963,15.1915789 C12.7004444,15.1915789 14.9494815,12.9010526 14.9494815,10.1052632 L14.9494815,10.0715789 C14.9494815,7.27578947 12.7004444,4.98526316 9.9552963,4.98526316" id="Fill-3" stroke="#5B5C59" stroke-width="0.5" fill="#5B5C59"></path>
    </g>
</svg>