
<svg width="19px" height="25px" viewBox="0 0 19 25" version="1.1" xmlns="http://www.w3.org/2000/svg" xmlns:xlink="http://www.w3.org/1999/xlink">
    <!-- Generator: Sketch 3.8.3 (29802) - http://www.bohemiancoding.com/sketch -->
    <desc>Created with Sketch.</desc>
    <defs>
        <path d="M0,24 L14.2631944,24 L18.6041667,24 L18.6041667,0 L0,0 L0,24 Z" id="path-1"></path>
        <path d="M0.885912698,5.07692308 L17.718254,5.07692308 L17.718254,3.23076923 L0.885912698,3.23076923 L0.885912698,5.07692308 Z M17.718254,2.30769231 L0.885912698,2.30769231 C0.398660714,2.30769231 0,2.72307692 0,3.23076923 L0,5.07692308 C0,5.58461538 0.398660714,6 0.885912698,6 L17.718254,6 C18.205506,6 18.6041667,5.58461538 18.6041667,5.07692308 L18.6041667,3.23076923 C18.6041667,2.72307692 18.205506,2.30769231 17.718254,2.30769231 L17.718254,2.30769231 Z" id="path-3"></path>
    </defs>
    <g id="bin" stroke="none" stroke-width="1" fill="none" fill-rule="evenodd">
        <path d="M15.9907242,6.46153846 L15.0605159,22.1769231 C15.0383681,22.6615385 14.6397073,23.0769231 14.1746032,23.0769231 L4.42956349,23.0769231 C3.96445933,23.0769231 3.56579861,22.6615385 3.54365079,22.1769231 L2.61344246,6.46153846 L1.72752976,6.46153846 L2.6577381,22.2461538 C2.72418155,23.2153846 3.49935516,24 4.42956349,24 L14.1746032,24 C15.1048115,24 15.8799851,23.2153846 15.9464286,22.2461538 L16.8766369,6.46153846 L15.9907242,6.46153846 L15.9907242,6.46153846 Z" id="Fill-1" stroke="#5B5C59" stroke-width="0.2" fill="#5B5C59"></path>
        <mask id="mask-2" fill="white">
            <use xlink:href="#path-1"></use>
        </mask>
        <g id="Clip-4"></g>
        <g id="Fill-3" mask="url(#mask-2)">
            <use fill="#5B5C59" fill-rule="evenodd" xlink:href="#path-3"></use>
            <use stroke="#5B5C59" stroke-width="0.1" xlink:href="#path-3"></use>
        </g>
        <path d="M9.61215278,21.1615385 C9.42611111,21.1615385 9.30208333,21.0692308 9.30208333,20.9307692 L9.30208333,7.61538462 C9.30208333,7.47692308 9.42611111,7.38461538 9.61215278,7.38461538 C9.79819444,7.38461538 9.92222222,7.47692308 9.92222222,7.61538462 L9.92222222,20.9307692 C9.92222222,21.0461538 9.79819444,21.1615385 9.61215278,21.1615385" id="Fill-5" stroke="#5B5C59" stroke-width="0.7" fill="#5B5C59" mask="url(#mask-2)"></path>
        <path d="M12.797913,21.1615385 L12.797913,21.1615385 C12.6650261,21.1615385 12.5764348,21.0461538 12.5764348,20.9307692 L13.0636868,7.61538462 C13.0636868,7.47692308 13.1744259,7.38461538 13.285165,7.38461538 C13.4180519,7.38461538 13.5066432,7.5 13.5066432,7.61538462 L13.0193912,20.9307692 C13.0193912,21.0461538 12.9307999,21.1615385 12.797913,21.1615385" id="Fill-6" stroke="#5B5C59" stroke-width="0.7" fill="#5B5C59" mask="url(#mask-2)"></path>
        <path d="M6.1331827,21.1615385 C6.02244361,21.1615385 5.91170452,21.0692308 5.91170452,20.9307692 L5.35800908,7.61538462 C5.35800908,7.47692308 5.44660035,7.38461538 5.57948726,7.38461538 C5.69022635,7.38461538 5.80096543,7.47692308 5.80096543,7.61538462 L6.35466087,20.9307692 C6.35466087,21.0461538 6.2660696,21.1384615 6.1331827,21.1615385" id="Fill-7" stroke="#5B5C59" stroke-width="0.7" fill="#5B5C59" mask="url(#mask-2)"></path>
        <path d="M6.86406067,1.84615385 L6.86406067,1.38461538 C6.86406067,1.13076923 7.06339103,0.923076923 7.30701702,0.923076923 L11.7365805,0.923076923 C11.9802065,0.923076923 12.1795369,1.13076923 12.1795369,1.38461538 L12.1795369,1.84615385 L13.0654496,1.84615385 L13.0654496,1.38461538 C13.0654496,0.623076923 12.4674585,0 11.7365805,0 L7.30701702,0 C6.57613904,0 5.97814797,0.623076923 5.97814797,1.38461538 L5.97814797,1.84615385 L6.86406067,1.84615385 Z" id="Fill-8" stroke="#5B5C59" stroke-width="0.2" fill="#5B5C59" mask="url(#mask-2)"></path>
    </g>
</svg>